<svg id="Layer_1" data-name="Layer 1" xmlns="http://www.w3.org/2000/svg" viewBox="0 0 84.46 83.64"><defs><style>.cls-1{fill:#1d1d1b}</style></defs><title>logo5</title><path class="cls-1" d="M256.06 378.69v83.64h84.46v-83.64zm53.14 56.44a1.21 1.21 0 1 1-1.21 1.21 1.21 1.21 0 0 1 1.21-1.21zM268.37 457c-4.33 0-7.22-2.2-7.22-6.26v-.14h2.34v.14c0 2.68 1.93 4.2 4.88 4.2 1.58 0 4.61-.69 4.61-3.16 0-4.88-11.28-1.38-11.28-8.32 0-3.51 3.3-5.09 6.53-5.09 3.85 0 6.47 2.2 6.47 5.71v.14h-2.34V444c0-2.27-1.65-3.65-4.26-3.65-1.86 0-4 .76-4 2.89 0 4.54 11.28 1.38 11.28 8.32-.06 3.75-3.57 5.44-7.01 5.44zm20.84-.48a13.87 13.87 0 0 1-.28-2.82c-.89 1.93-3 3.37-6.19 3.37-3.71 0-5.92-2-5.92-5.23 0-4.68 4.26-5.16 8.46-5.64l.89-.14c1.72-.21 2.61-.41 2.61-2.27 0-2.34-1.38-3.37-4.33-3.37-2.48 0-4.47 1-4.47 3.71v.14h-2.34v-.14c0-4.13 3.3-5.78 7.08-5.78 4.13 0 6.47 1.65 6.47 5.43v9.63a13.27 13.27 0 0 0 .34 3.1zm11.56 0h-2.61l-6.33-17.68h2.75l4.88 15 4.88-15h2.54zm9.7 0H308v-17.71h2.48zm5 0h-2.48v-24.39h2.48zm4.81 0h-2.48v-24.39h2.48zm8.67.48c-4.4 0-7.29-2.2-7.29-6.26v-.14H324v.14c0 2.68 2 4.2 4.88 4.2 1.58 0 4.61-.69 4.61-3.16 0-4.88-11.35-1.38-11.35-8.32 0-3.51 3.3-5.09 6.53-5.09 3.92 0 6.53 2.2 6.53 5.71v.14h-2.34V444c0-2.27-1.65-3.65-4.26-3.65-1.93 0-4.06.76-4.06 2.89 0 4.54 11.35 1.38 11.35 8.32-.04 3.75-3.48 5.44-6.99 5.44z" transform="translate(-256.06 -378.69)"/><path class="cls-1" d="M287.08 447.82l-1.65.21c-3.16.34-6.12 1-6.12 3.71 0 2.27 1.93 3.16 3.71 3.16a6.23 6.23 0 0 0 4.47-1.72 5.16 5.16 0 0 0 1.38-3.58v-2.34h-.07a3.63 3.63 0 0 1-1.72.56z" transform="translate(-256.06 -378.69)"/></svg>