<svg id="Layer_1" data-name="Layer 1" xmlns="http://www.w3.org/2000/svg" viewBox="0 0 209.05 54.95"><defs><style>.cls-1{fill:#1d1d1b}</style></defs><title>logo2</title><path class="cls-1" d="M251.86 448c-2.84 0-4.26-2.13-4.26-4.62s1.42-4.62 4.26-4.62a4 4 0 0 1 2.31.53l-.44 1a3 3 0 0 0-1.42-.36c-1.86 0-2.57 1.69-2.57 3.46s.71 3.37 2.57 3.37a2.42 2.42 0 0 0 1.42-.36l.44 1.07a4.23 4.23 0 0 1-2.31.53m11.54-4.63c0-2.57-1.15-4.62-4.17-4.62s-4.17 2-4.17 4.62 1.15 4.62 4.17 4.62 4.17-2 4.17-4.62m-2-.09c0 1.69-.36 3.46-2 3.46s-2.13-1.78-2.13-3.46.36-3.46 2.13-3.46 2 1.78 2 3.46m10.7 4.53l-4.17-5.81c-.36-.53-.62-1-.62-1a7.43 7.43 0 0 1 .09 1.07v5.77h-1.69v-9.05h2l4 5.5c.36.53.62.89.62.89a5.56 5.56 0 0 1-.09-1v-5.41h1.69v9zm6.3.19a5.36 5.36 0 0 1-2.75-.53l.53-1.15a4 4 0 0 0 1.86.44c1.07 0 1.78-.53 1.78-1.42 0-.71-.44-1.07-1.69-1.51-1.78-.62-2.31-1.6-2.31-2.49 0-1.42 1.24-2.66 3.28-2.66a4 4 0 0 1 2.4.53l-.44 1a3.86 3.86 0 0 0-1.69-.44c-1 0-1.6.53-1.6 1.33s.71 1.15 1.69 1.51c2.13.71 2.49 1.78 2.49 2.57 0 1.69-1.51 2.84-3.55 2.84" transform="translate(-193.8 -393.04)"/><path class="cls-1" d="M93.21 46.87v7.9h-2.04v-7.9h-2.04V45.8h6.21v1.07h-2.13z"/><path class="cls-1" d="M298.37 447.81l-3.28-4c1.78-.09 2.93-1.07 2.93-2.4 0-1.69-1.33-2.75-4.08-2.75a7.07 7.07 0 0 0-3 .53v8.61h2v-4.08l3.11 4.08zm-2.31-6.3q0 1.86-2.4 1.86a2.2 2.2 0 0 1-.8-.09v-3.55a3.19 3.19 0 0 1 1-.18c1.6.09 2.22.71 2.22 2m7.8 6.45c-2.22 0-3.64-1.15-3.64-2.75v-6.39h2v6.39a1.54 1.54 0 0 0 1.69 1.51 1.5 1.5 0 0 0 1.69-1.51v-6.39h1.86v6.39c0 1.6-1.51 2.75-3.64 2.75m10.07 0c-2.84 0-4.26-2.13-4.26-4.62s1.42-4.62 4.26-4.62a4 4 0 0 1 2.31.53l-.44 1a3 3 0 0 0-1.42-.36c-1.86 0-2.57 1.69-2.57 3.46s.71 3.37 2.57 3.37a2.42 2.42 0 0 0 1.42-.36l.44 1.07a4.23 4.23 0 0 1-2.31.53" transform="translate(-193.8 -393.04)"/><path class="cls-1" d="M127.65 46.96v7.81h-2.13l.09-7.9h-2.13V45.8h6.21v1.16h-2.04zm3.91-1.15h2.04v8.97h-2.04z"/><path class="cls-1" d="M337.88 443.37c0-2.57-1.15-4.62-4.17-4.62s-4.17 2-4.17 4.62 1.15 4.62 4.17 4.62 4.17-2 4.17-4.62m-2.13-.09c0 1.69-.36 3.46-2 3.46s-2.13-1.78-2.13-3.46.36-3.46 2.13-3.46 2 1.78 2 3.46m10.74 4.53l-4.17-5.81c-.36-.53-.62-1-.62-1a7.43 7.43 0 0 1 .09 1.07v5.77h-1.69v-9.05h2l4 5.5c.36.53.62.89.62.89a5.56 5.56 0 0 1-.09-1v-5.41h1.69v9zm-60.01-34.53v17.13a72.65 72.65 0 0 0 15.8 1.51 73.66 73.66 0 0 0 15.8-1.51v-5.77a89.56 89.56 0 0 1-15.89 1.36 63.57 63.57 0 0 1-9-.71v-6.75a71.06 71.06 0 0 1 9.05-.71 86.11 86.11 0 0 1 15.8 1.42v-5.86a72.65 72.65 0 0 0-15.8-1.51 63.31 63.31 0 0 0-15.8 1.42" transform="translate(-193.8 -393.04)"/><path class="cls-1" d="M131.82 19h6.92v19.53h-6.92zm-92.76 0h6.92v19.53h-6.92z"/><path class="cls-1" d="M272.1 431.47a81.6 81.6 0 0 0-12.34-8c-2-1.07-3.82-1.78-5.41-2.49v10.39h-6.75V412a51.63 51.63 0 0 1 12.16 4.53 91.11 91.11 0 0 1 12.34 7.63V412h6.75v19.53h-6.75zm-43.85-15.09L211 432l-17.2-15.62 5.15-4.7s10.47 10.21 12.07 11.63c1.51-1.42 12.07-11.72 12.07-11.72zM348.17 412h9.59a8.91 8.91 0 0 0 6.57-2.66c.8-.89 2.75-3 2.75-5.5v-8.08a2.75 2.75 0 0 1 2.66-2.75h10.47a2.69 2.69 0 0 1 2.66 2.75v10.56a2.75 2.75 0 0 1-2.66 2.75h-8c-2.49 0-4.62 2-5.5 2.75a8.91 8.91 0 0 0-2.66 6.57v9.76h-15.88V412zm54.69 8.55a9.57 9.57 0 0 0-2.66-6.57 9.13 9.13 0 0 0-6.48-2.66 9.41 9.41 0 0 0-9.41 9.41c0 1 .44 2.75.44 3.46a7.26 7.26 0 0 1-7.28 7.28h-7.72a2.69 2.69 0 0 0-2.66 2.75v10.56a2.75 2.75 0 0 0 2.66 2.75h10.47a2.69 2.69 0 0 0 2.66-2.75V437a7.31 7.31 0 0 1 7.28-7.28c.71 0 2.49.44 3.46.44a9.6 9.6 0 0 0 9.23-9.59" transform="translate(-193.8 -393.04)"/></svg>