<svg id="Layer_1" data-name="Layer 1" xmlns="http://www.w3.org/2000/svg" viewBox="0 0 136.39 76.11"><defs><style>.cls-1{fill:none}.cls-2{fill:#1d1d1b}</style></defs><title>logo23</title><path class="cls-1" d="M0 0h136.39v76.11H0z"/><path class="cls-2" d="M107.86 56.77l-1.61 5.95h3.52l-1.69-5.95h-.22z"/><path class="cls-2" d="M176.06 90.84h-1.46v5.51h1.46c1.56 0 2-.85 2-2.75s-.43-2.76-2-2.76z" transform="translate(-104.12 -36.75)"/><path class="cls-2" d="M104.12 36.9v75.94h136.34V36.9zm68.17 5.84a19.48 19.48 0 1 1-19.47 19.49 19.48 19.48 0 0 1 19.46-19.49zm-42.85 0A19.48 19.48 0 1 1 110 62.24a19.48 19.48 0 0 1 19.44-19.5zm-12.67 62.68a9.56 9.56 0 0 1-4.79-1.08v-3.88h.63l1.49 2.63a7.32 7.32 0 0 0 2.58.39c1.8 0 2.3-.86 2.3-1.74 0-1.32-.81-1.76-2.76-2.76-.31-.16-1.16-.61-1.43-.78a5.22 5.22 0 0 1-2.79-4.61c0-3 2.14-4.89 5.63-4.89a10.94 10.94 0 0 1 4 .61v3.86H121l-1.36-2.25a5.72 5.72 0 0 0-2-.28c-1.32 0-2.13.52-2.13 1.57 0 1.29.9 1.72 2.15 2.48.34.21 1.6.79 2 1 1.57.94 2.94 1.7 2.94 4.33 0 3.27-1.91 5.4-5.83 5.4zm19-.32h-12.12v-.6l1.69-1.13V90.76l-1.69-1.14V89h12v4.31H135l-1.63-2.56h-3.8V96h1.73l1.2-2h.63v5.73h-.63l-1.2-2h-1.73v5.72h3.72l1.77-3.13h.63zM149.45 94h-.67l-1.51-2.93a4.76 4.76 0 0 0-1.93-.33c-2.36 0-3.59 2-3.59 6.29s1.24 6.29 3.59 6.29a3.52 3.52 0 0 0 1.93-.36l1.51-2.9h.67v4.41a11 11 0 0 1-4.75.92c-4.19 0-7.54-3-7.54-8.36s3.36-8.36 7.54-8.36a9.84 9.84 0 0 1 4.75.92zm17.63-4.42l-1.69 1.14v12.61l1.69 1.13v.6h-5.53v-1.65h-.34a4.9 4.9 0 0 1-4 2c-3.46 0-4.76-2.07-4.76-4.92v-9.73l-1.69-1.14V89h7.44v.59l-1.48 1.14v9.54c0 1.43.57 2.42 2 2.42a3 3 0 0 0 2.48-1.2V90.76l-1.48-1.14V89h7.44zm17.18 15.49h-5.9l-1.5-5.77c-.24-.9-.59-1.16-1.42-1.16h-.83v5.2l1.78 1.13v.6h-7.74v-.6l1.69-1.13V90.76l-1.69-1.14V89h8.28c3.52 0 5.33 1.45 5.33 4.28 0 2-1.35 3.38-3.9 3.8v.3a3.8 3.8 0 0 1 3.09 2.49l1 3.47 1.79 1.13zm8.27-15.49l-1.7 1.14v12.61l1.7 1.13v.6h-7.66v-.6l1.7-1.13V90.76l-1.7-1.14V89h7.66zm11.76 14.89v.6h-7.66v-.6l1.7-1.13V90.77h-2l-1.83 3.39h-.66V89h13.23v5.14h-.65l-1.83-3.39h-2v12.59zm16.78.6h-7.54v-.6l1.46-1.13-.58-2h-4.54l-.5 1.85 1.4 1.32v.6h-5.22v-.6l1.67-1.32 4.31-13.81 3-.55 5 14.55 1.57 1.13zm5.31.32a9.56 9.56 0 0 1-4.79-1.08v-3.88h.63l1.49 2.63a7.32 7.32 0 0 0 2.58.39c1.8 0 2.3-.86 2.3-1.74 0-1.32-.81-1.76-2.76-2.76-.31-.16-1.16-.61-1.43-.78a5.22 5.22 0 0 1-2.75-4.62c0-3 2.14-4.89 5.63-4.89a10.94 10.94 0 0 1 4 .61v3.86h-.65l-1.36-2.25a5.72 5.72 0 0 0-2-.28c-1.32 0-2.13.52-2.13 1.57 0 1.29.9 1.72 2.15 2.48.34.21 1.6.79 2 1 1.57.94 2.94 1.7 2.94 4.33-.01 3.31-1.92 5.44-5.85 5.44zM215.14 81.7a19.48 19.48 0 1 1 19.48-19.46 19.47 19.47 0 0 1-19.48 19.46z" transform="translate(-104.12 -36.75)"/></svg>