<svg id="Layer_1" data-name="Layer 1" xmlns="http://www.w3.org/2000/svg" viewBox="0 0 212.1 35.2"><defs><style>.cls-1{fill:#1e1e1c}</style></defs><title>logo14</title><path class="cls-1" d="M248.19 439.37a3.83 3.83 0 0 1-1.74 1.91 9.86 9.86 0 0 1-3.24 1.08v.25a9.74 9.74 0 0 1 3.4.66 3.44 3.44 0 0 1 1.58 2.08 19.73 19.73 0 0 1 .42 4.57v1.16a9.18 9.18 0 0 1-.33 2.74 4.23 4.23 0 0 1-1.16 2.16 6.27 6.27 0 0 1-2.66 1.58 17.48 17.48 0 0 1-4.57.58h-8.72v-29.65h8.63a19.58 19.58 0 0 1 5.56.58 4.24 4.24 0 0 1 2.66 2 6.8 6.8 0 0 1 .75 3.49v2a8.92 8.92 0 0 1-.58 2.82m-7.19-6.24a2.13 2.13 0 0 0-1.49-.58h-1.41v7.89h1.16a2.47 2.47 0 0 0 1.74-.58 1.89 1.89 0 0 0 .75-1.49v-3.9a1.71 1.71 0 0 0-.75-1.33m.17 12.37a1.87 1.87 0 0 0-1.33-.66h-1.74v9h1.49a2.08 2.08 0 0 0 1.49-.66 2 2 0 0 0 .66-1.58v-4.81a1.65 1.65 0 0 0-.58-1.33m18.32 10.07a3.58 3.58 0 0 1-1.49 2.32 5.51 5.51 0 0 1-3.07.83 5 5 0 0 1-2.82-.91 3.35 3.35 0 0 1-1.49-2.16 23.46 23.46 0 0 1-.25-3.9 10.4 10.4 0 0 1 .33-3.15 4.76 4.76 0 0 1 1.25-2.16 19.91 19.91 0 0 1 2.74-1.66c1.33-.75 2.32-1.33 2.91-1.66a10.57 10.57 0 0 0 1.58-1.08 1.74 1.74 0 0 0 .5-.66 2.67 2.67 0 0 0 .17-1.33c0-1.25-.42-1.83-1.33-1.83a1.3 1.3 0 0 0-1.08.66 2.8 2.8 0 0 0-.42 1.41v2.66h-6.56v-3a5.35 5.35 0 0 1 2.08-4.4c1.33-1.08 3.49-1.66 6.31-1.66a10.16 10.16 0 0 1 3.4.5 5.35 5.35 0 0 1 2.32 1.33 4.22 4.22 0 0 1 1.33 1.91 5.43 5.43 0 0 1 .42 2.41v16.35a6 6 0 0 0 .08 1.08 4.24 4.24 0 0 1 .08.75h-6.57l-.17-2.57h-.25zm-1.91-7.55a2.17 2.17 0 0 0-.75 1.49V452a2.35 2.35 0 0 0 .33 1.08c.17.33.5.5 1.08.5a1.23 1.23 0 0 0 1.08-.5 1.16 1.16 0 0 0 .33-.75v-6.06c-1.25 1-1.91 1.58-2.08 1.74" transform="translate(-231.17 -428.49)"/><path class="cls-1" d="M36.69 0h6.56v29.64h-6.56z"/><path class="cls-1" d="M285.8 438.78h-1.91v19.43h-6.56v-19.43H276v-4.32h1.33a9.51 9.51 0 0 1 .5-3.4 3.26 3.26 0 0 1 1.49-1.91 5.15 5.15 0 0 1 2.57-.66H286v4.15c-1.33 0-2 .33-2 .91v.91h1.91v4.32zm16.93 12.46a9.48 9.48 0 0 1-.75 4 6.59 6.59 0 0 1-2.57 2.66 9.47 9.47 0 0 1-4.65.91 10.51 10.51 0 0 1-4.65-.91 5.92 5.92 0 0 1-2.57-2.57 8.68 8.68 0 0 1-.83-4.07v-9.8a8.68 8.68 0 0 1 .83-4.07 4.87 4.87 0 0 1 2.57-2.57 9.47 9.47 0 0 1 4.65-.91c2.82 0 4.81.66 6.06 1.91s1.91 3.15 1.91 5.73v9.71zm-7-12.7a1.34 1.34 0 0 0-1.08-.5 1.43 1.43 0 0 0-1.08.42 2.11 2.11 0 0 0-.42 1.33v12.78a1.45 1.45 0 0 0 .42 1.16 1.18 1.18 0 0 0 1 .5q1.49 0 1.49-1.74V439.7a1.9 1.9 0 0 0-.33-1.16m24.52 19.67h-6.39v-2.74a7.77 7.77 0 0 1-2.08 2.32 5.3 5.3 0 0 1-3.24.91 5 5 0 0 1-2.24-.58 4.79 4.79 0 0 1-1.49-1.66 5.11 5.11 0 0 1-.5-2.57v-19.51h6.56v17.43a2 2 0 0 0 .33 1 1.09 1.09 0 0 0 1 .5 2.08 2.08 0 0 0 1.08-.33 1.32 1.32 0 0 0 .42-.83v-17.68h6.56v23.74zm17.51-10.96h-6.56v-6.48a2 2 0 0 0-.33-1 1.21 1.21 0 0 0-1.83 0 1.18 1.18 0 0 0-.5 1v17.52H322v-23.66h6.39v2.91a5.4 5.4 0 0 1 5.15-3.49 3.91 3.91 0 0 1 3.07 1.33 5 5 0 0 1 1.25 3.32v8.55zm28.4-7.88a4.25 4.25 0 0 1-1.74 1.91 9.34 9.34 0 0 1-3.15 1.08v.25a10.19 10.19 0 0 1 3.4.66 3.77 3.77 0 0 1 1.58 2.08 19.73 19.73 0 0 1 .42 4.57v1.16a9.18 9.18 0 0 1-.33 2.74 5 5 0 0 1-1.16 2.16 6.27 6.27 0 0 1-2.66 1.58 17 17 0 0 1-4.57.58h-8.72v-29.65h8.63a19.58 19.58 0 0 1 5.56.58 4 4 0 0 1 2.66 2 6.8 6.8 0 0 1 .75 3.49v2a11.77 11.77 0 0 1-.66 2.82m-7.22-6.23a2.13 2.13 0 0 0-1.49-.58H356v7.89h1.16a2.34 2.34 0 0 0 1.74-.58 2.17 2.17 0 0 0 .75-1.49v-3.9a1.71 1.71 0 0 0-.75-1.33m.17 12.37a1.87 1.87 0 0 0-1.33-.66H356v9h1.49a2.08 2.08 0 0 0 1.49-.66 2.27 2.27 0 0 0 .66-1.58v-4.81a1.65 1.65 0 0 0-.58-1.33m25.03 1.51h-9.38v6a1.53 1.53 0 0 0 .42 1 1.37 1.37 0 0 0 1 .42 1.58 1.58 0 0 0 1.08-.42 1.67 1.67 0 0 0 .33-1.08V449h6.56v3.32a7.71 7.71 0 0 1-.42 2.41 6.08 6.08 0 0 1-1.41 2.16 8.9 8.9 0 0 1-2.49 1.41 12.15 12.15 0 0 1-3.65.5q-8 0-8-7.47v-10a9.75 9.75 0 0 1 .75-4 5 5 0 0 1 2.49-2.57 9.13 9.13 0 0 1 4.57-.91c2.82 0 4.9.58 6.14 1.74a5.67 5.67 0 0 1 1.91 4.57V447zm-6.56-4.07v-3.4a1.6 1.6 0 0 0-.33-1 1.24 1.24 0 0 0-1-.42c-1 0-1.41.66-1.41 2.08V443h2.74zm17.35 12.62a3.42 3.42 0 0 1-1.58 2.32 5.42 5.42 0 0 1-3 .83 5 5 0 0 1-2.82-.91 3.51 3.51 0 0 1-1.58-2.16 23.46 23.46 0 0 1-.25-3.9 14 14 0 0 1 .33-3.15 5.47 5.47 0 0 1 1.16-2.16 19.91 19.91 0 0 1 2.74-1.66c1.33-.75 2.32-1.33 2.91-1.66a6.91 6.91 0 0 0 1.51-1.1c.25-.25.5-.42.58-.66A4.26 4.26 0 0 0 395 440c0-1.25-.42-1.83-1.33-1.83a1.3 1.3 0 0 0-1.08.66 2.17 2.17 0 0 0-.42 1.41v2.66h-6.56v-3a5.35 5.35 0 0 1 2.08-4.4c1.33-1.08 3.49-1.66 6.31-1.66a10.16 10.16 0 0 1 3.4.5 6.21 6.21 0 0 1 2.41 1.33 6.08 6.08 0 0 1 1.33 1.91 6.94 6.94 0 0 1 .42 2.41v16.35c0 .25.08.58.08 1.08a4.24 4.24 0 0 1 .08.75h-6.56l-.17-2.57h-.17zM393 448a2.08 2.08 0 0 0-.66 1.49V452a2.35 2.35 0 0 0 .33 1.08c.17.33.5.5 1.08.5a1.23 1.23 0 0 0 1.08-.5 1.16 1.16 0 0 0 .33-.75v-6.06A25.9 25.9 0 0 0 393 448m28.19 10.21A4.38 4.38 0 0 1 418 457a4.44 4.44 0 0 1-1.25-3.32v-14.9h-5.23V453c0 .66.58 1.08 1.66 1.08h1.33v4.15h-5a4.38 4.38 0 0 1-3.24-1.25 4.44 4.44 0 0 1-1.25-3.32v-14.88h-2.24v-4.32H405v-4.4h6.56v4.4h5.23v-4.4h6.56v4.4h2.91v4.32h-2.91V453c0 .66.5 1.08 1.66 1.08h1.25v4.15zm11.96-23.49a1.23 1.23 0 0 0 .08.5c.08.25.08.5.17.66a3.65 3.65 0 0 0 .17.83c.17.91.25 1.74.42 2.49s.25 1.49.33 2.08.17 1.25.25 1.91a67 67 0 0 1 .83 8.22h.17a57.21 57.21 0 0 1 .75-8.38 17.14 17.14 0 0 0 .25-2.16c.17-.75.17-1.49.33-2.24s.33-1.49.42-2.16.25-1.41.42-2h5.56c-.83 3.9-2.24 10.38-4.07 19.43-.5 2.66-1 4.57-1.33 5.81a7 7 0 0 1-1.33 2.74 4.65 4.65 0 0 1-1.25.83 4.08 4.08 0 0 1-1.66.42h-6.39v-4.23H431a.72.72 0 0 0 .5-.25.86.86 0 0 0 .33-.66c0-.5-.58-2.91-1.58-7.31-.66-2.66-1.74-8.22-3.65-16.69h6.56c-.08 0 0 .08 0 .17" transform="translate(-231.17 -428.49)"/></svg>