<svg id="Layer_1" data-name="Layer 1" xmlns="http://www.w3.org/2000/svg" viewBox="0 0 204.31 64.72"><defs><style>.cls-1{fill:#1d1d1b}</style></defs><title>logo6</title><path class="cls-1" d="M302.8 411.52l-6.85.4-2.18 10.92c-2.68-.1-3.47-.2-6.55-.2-9.73 0-18.17 4-20.45 13.4-2 8.44 2.88 15 13.6 15 10.92 0 15.68-5.56 17.37-13.5zm-10.22 15.88l-2.28 11.12c-1 4.47-3.77 7.54-9.43 7.54-6.45 0-8.24-4-6.75-9.53 2.08-7.94 8.64-10.22 18.46-9.13m-64.53.5c-10.13-.89-18.76-.1-19 3.28-.2 5.06 16.68.6 16.38 9.93-.5 13.7-23.92 10.52-29.78 8.74l1.09-4.07c10 1.59 20.55 1.69 20.85-3.77.3-5.76-16.68-.6-16.28-9.93.3-6.95 10.92-10.72 28.19-8.24zm21.35-4.97c-10 0-18.17 5.66-20.15 14.2s3.38 14.2 13.5 14.2 18.17-5.66 20.15-14.2-3.38-14.2-13.5-14.2m5.86 14.2a11.82 11.82 0 0 1-11.52 9.23c-5.76 0-8.34-3.28-6.75-9.23 1.49-5.66 6.15-9.53 11.61-9.53s8.14 3.87 6.65 9.53m110.39 14.09h-8.74a154.58 154.58 0 0 1-22.93-28h6.45c7 9.53 25.21 28 25.21 28" transform="translate(-195.69 -387.39)"/><path class="cls-1" d="M179.09 8.24L183.06 0l1.19 8.34 8.24-2.78-5.76 7.15 6.15 4.76-8.24.6-.49 8.73-4.57-6.45-6.75 6.15 2.48-8.63-7.94-1.09 7.74-4.37-3.17-7.45 7.15 3.28z"/><path class="cls-1" d="M385.89 422.83c-10.22 0-18.46 5.76-20.45 14.39s3.47 14.39 13.7 14.39 18.46-5.76 20.45-14.39-3.47-14.39-13.7-14.39m6 14.39a12 12 0 0 1-11.71 9.43c-5.86 0-8.44-3.28-6.85-9.43 1.49-5.76 6.25-9.63 11.81-9.63s8.24 3.87 6.75 9.63m-64.57 11.62c16.48-8.93 30.87-22.83 41-34.74-7.25 22.44-24.92 34.55-41 34.74" transform="translate(-195.69 -387.39)"/><path class="cls-1" d="M332.49 430.08c0-4.17-3.38-7.15-11-7.15-12.41 0-20.45 7.84-20.45 17.67 0 6.25 5.36 11.52 15.09 11.52a20.4 20.4 0 0 0 11.22-3.28c-8.54.89-19.06 0-19.06-8.93a4.07 4.07 0 0 1 .1-1.09c11.61 2.38 24.12-.5 24.12-8.74m-11.71-3c3.18 0 4.86 1.09 4.86 3.28 0 5.76-11.32 5.36-16.38 4.37a12.33 12.33 0 0 1 11.52-7.64" transform="translate(-195.69 -387.39)"/></svg>