<svg id="Layer_1" data-name="Layer 1" xmlns="http://www.w3.org/2000/svg" viewBox="0 0 206.12 28.94"><defs><style>.cls-1{fill:#1d1d1b}</style></defs><title>logo3</title><path class="cls-1" d="M245 417.49c0 .82-.27 1.1-3.5 1.44-1.92.27-6.45 1.17-6.45 5.14 0 3.29 2.67 5.07 5.76 5.07a6.32 6.32 0 0 0 4.25-1.78l.07 1a.39.39 0 0 0 .34.41h3.36a.4.4 0 0 0 .41-.41v-11.42c0-3-1.58-5.07-6.79-5.07a13.93 13.93 0 0 0-5.76 1.17.94.94 0 0 0-.55.89v1.65a.7.7 0 0 0 .62.75c.41 0 .75-.41 1-.55a8 8 0 0 1 4.53-1.58c2.4 0 2.67 1.51 2.67 3.29m0 7.75c0 .48-1.23 1.78-2.95 1.78a2.55 2.55 0 0 1-2.67-2.81c0-2 1.58-3.84 5.62-3.84zm47.22.41a2 2 0 0 0 .69 1.71 9.28 9.28 0 0 0 5.9 1.92c4.87 0 8.78-3.77 8.78-9.46 0-4.39-2.4-7.75-6.17-7.75a7.36 7.36 0 0 0-4.8 1.85v-7.27a.4.4 0 0 0-.41-.41h-3.57a.38.38 0 0 0-.34.41v19zm4.39.27V416a4.66 4.66 0 0 1 2.81-1.17c3.36 0 3.7 4.32 3.7 5.9 0 4.11-1.65 6.58-4 6.58a3.7 3.7 0 0 1-2-.41 1 1 0 0 1-.48-1m58.32-13.62h-1.71a.45.45 0 0 0-.48.41l-3.84 10.56-4-10.56a.6.6 0 0 0-.62-.41h-4a.32.32 0 0 0-.34.34c0 .14.07.21.21.62l6.72 15.5c-.07 2.74-2.67 3.63-5.55 2.81a3.48 3.48 0 0 0-1.17-.21.53.53 0 0 0-.48.55V434a.81.81 0 0 0 .75.75 4.54 4.54 0 0 0 1.58.21 7.26 7.26 0 0 0 6.45-4.39l6.79-17.42a1.74 1.74 0 0 0 .14-.48c-.07-.27-.21-.41-.34-.41M218.27 428c6.17 2.88 15 1.23 15-6.17 0-6.79-11.66-6.38-11.66-10.56 0-1.71 1.65-2.81 3.7-2.81a7.57 7.57 0 0 1 4.73 1.71 2 2 0 0 0 1 .48c.41 0 .55-.27.55-.62v-2.13a.61.61 0 0 0-.41-.69 17.47 17.47 0 0 0-5.9-1c-4.94 0-7.54 3-7.54 6.45 0 7.47 11.52 5.9 11.52 11 0 3.09-4.46 5.21-9.53 1.65-.48-.34-.69-.55-1-.55-.62 0-.75.34-.75.69v1.85c-.14.27-.07.48.27.69m34.3.41a.39.39 0 0 0 .34.41h3.57a.4.4 0 0 0 .41-.41v-15.64a.4.4 0 0 0-.41-.41h-3.57a.38.38 0 0 0-.34.41zm2.13-22.4c-1.65 0-2.4 1-2.4 2.06a2.18 2.18 0 0 0 2.4 2.19 2.13 2.13 0 0 0 2.32-2.15 2.1 2.1 0 0 0-2.33-2.06m65.49 17.42c0 2.4-.75 3.7-3 3.7a2.72 2.72 0 0 1-3-2.81v-11.59a.4.4 0 0 0-.41-.41h-3.57a.38.38 0 0 0-.34.41v10.77c0 4.11 3.7 5.69 7.34 5.69s7.41-1.58 7.41-6.1v-10.36a.4.4 0 0 0-.41-.41h-3.57a.38.38 0 0 0-.34.41v10.7zm-59.66 4.94a.39.39 0 0 0 .34.41h3.57a.46.46 0 0 0 .48-.41v-12.62a7.78 7.78 0 0 1 3.43-1.17c2.47 0 2.61 1.51 2.61 2.74v11a.39.39 0 0 0 .34.41h3.57a.4.4 0 0 0 .41-.41V417c0-3-1.58-5.07-5.14-5.07a11 11 0 0 0-5.35 1.65v-.82c0-.27-.21-.41-.48-.41h-3.36a.46.46 0 0 0-.48.41v15.64zm28.32-15.4c-4.8-2-11.18-.89-11.18 4.25 0 5.83 9.33 4.66 9.33 7.82 0 2.54-4.39 2.81-7.54.34a.88.88 0 0 0-.69-.27c-.34 0-.62.14-.62.69v1.44a1 1 0 0 0 .55 1c4.11 1.85 11.59 1.85 11.59-4.87 0-5.83-9.39-4.46-9.39-7.41 0-2.4 4.59-2.19 7.27-.34a1.45 1.45 0 0 0 .69.27c.34 0 .62-.14.62-.69V414a1.16 1.16 0 0 0-.62-1m49.17-.79a5.11 5.11 0 0 0-1.65-.21c-2.06 0-3.7 1.71-4.46 2.74l-.07-2a.4.4 0 0 0-.41-.41H328a.38.38 0 0 0-.34.41v15.66a.39.39 0 0 0 .34.41h3.57a.4.4 0 0 0 .41-.41v-9.94c0-3.15 3-3.29 5-2.88a4.49 4.49 0 0 0 1.23.27.53.53 0 0 0 .48-.55V413c.07-.34-.21-.69-.69-.75m48-5.59a.29.29 0 0 0-.27-.27h-3.84a.29.29 0 0 0-.27.27v22a.29.29 0 0 0 .27.27h3.84a.29.29 0 0 0 .27-.27zm7 13.78c0-4.8 1.58-6.45 4-6.45a5 5 0 0 1 3.63 1.51 1.16 1.16 0 0 0 .69.48c.27 0 .34-.14.34-.41v-2.13a.46.46 0 0 0-.27-.48 14.92 14.92 0 0 0-4.94-.82c-5.35 0-8.16 3.84-8.16 8.57s2.88 8.57 8.3 8.57a13.4 13.4 0 0 0 4.94-.89.46.46 0 0 0 .27-.48v-2.13c0-.27-.07-.41-.34-.41a1.42 1.42 0 0 0-.69.41 4.38 4.38 0 0 1-3.29 1.51c-2.33.07-4.46-1.78-4.46-6.86m-188.54 2.21c0 3.22-1.58 4.39-3.5 4.39s-3.63-1.51-4.18-2.06a.93.93 0 0 0-.69-.34.59.59 0 0 0-.48.62v2a.87.87 0 0 0 .48.69 11 11 0 0 0 5 1.3c5.76 0 7.89-3.63 7.89-6.72v-15.86a.46.46 0 0 0-.41-.48h-3.77a.38.38 0 0 0-.34.41v16zm167.79-10.7c4.39 0 6.72 3.63 6.72 8.5 0 5.83-3.7 8.57-7.06 8.57a7.71 7.71 0 0 1-3.84-1.1H368v6.86a.18.18 0 0 1-.21.21h-3.89a.22.22 0 0 1-.21-.21v-22.21a.29.29 0 0 1 .27-.27h3.7c.14 0 .21.14.21.27v1.17h.07a7.2 7.2 0 0 1 4.32-1.78m-4.32 5.28v8.37a3.65 3.65 0 0 0 3 1.37c3.29-.21 3.43-4.53 3.43-6.1 0-3.7-1.23-6.51-3.63-6.51a2.83 2.83 0 0 0-2.81 2.88" transform="translate(-195.64 -406.04)"/></svg>