<svg id="Layer_1" data-name="Layer 1" xmlns="http://www.w3.org/2000/svg" viewBox="0 0 209.49 37.48"><defs><style>.cls-1{fill:#1d1d1b}</style></defs><title>logo10</title><path class="cls-1" d="M0 13.64h6.11v6.02H0zm18.57 0h6.11v6.02h-6.11zm18.41 0h6.11v6.02h-6.11zm18.32 0h6.11v6.02H55.3z"/><path class="cls-1" d="M167.76 301.31h-24.1l-.33 10.46 1.59.25c.25-3.1 1.09-5.35 2.51-6.86a7.73 7.73 0 0 1 5.86-2.43v21.92c0 1.92-.25 3.18-.84 3.76a4.1 4.1 0 0 1-2.43.92c-.33 0-.92.08-1.76.08v1.67h14.89v-1.67a9.19 9.19 0 0 1-1.76-.08 3.45 3.45 0 0 1-2.43-.92c-.59-.59-.84-1.84-.84-3.76v-21.92a7.9 7.9 0 0 1 5.86 2.43c1.34 1.51 2.18 3.76 2.51 6.86l1.59-.25zm57.64 10.54a16.39 16.39 0 0 0-2-5.69 6 6 0 0 0-5.1-2.93 4.29 4.29 0 0 0-3.18 1.17 4.86 4.86 0 0 0-1.59 3.68 4.53 4.53 0 0 0 1.76 3.76 13 13 0 0 0 4 1.84 25.46 25.46 0 0 1 5.86 2.59 7.63 7.63 0 0 1 3.18 6.44 8.83 8.83 0 0 1-2.59 6.53 8.09 8.09 0 0 1-5.86 2.43 8.23 8.23 0 0 1-3.51-.67 14.06 14.06 0 0 1-2.18-1.25 2.38 2.38 0 0 0-1-.33 1.32 1.32 0 0 0-1.09.59 6 6 0 0 0-.59.92h-1.34v-10.38h1.34a17.31 17.31 0 0 0 2.09 6 6.85 6.85 0 0 0 5.94 3.51 5.39 5.39 0 0 0 3.6-1.25 5.67 5.67 0 0 0 1.84-4.35 5.39 5.39 0 0 0-2.76-4.94c-.67-.33-2.26-.92-4.94-1.84a13 13 0 0 1-4.43-2.34 7.09 7.09 0 0 1-2.43-5.69 7.85 7.85 0 0 1 2.59-6.19 7.37 7.37 0 0 1 5.1-1.84 8.25 8.25 0 0 1 3.18.59 12.76 12.76 0 0 1 2.09 1.09 1.87 1.87 0 0 0 .84.25c.5 0 .92-.42 1.34-1.34h1.17v9.45h-1.33zm4.01-.58h9v1.34h-.75c-1.17 0-1.76.33-1.76.92a4.2 4.2 0 0 0 .25 1.17l4.35 11.21 3.76-10.37a5.37 5.37 0 0 0 .42-1.67c0-.84-.67-1.25-1.92-1.25h-1v-1.34H249v1.34h-.5a1.51 1.51 0 0 0-1.25.59 6.85 6.85 0 0 0-.75 1.42l-7.19 19.07a10.84 10.84 0 0 1-2.26 3.85 4.35 4.35 0 0 1-3.18 1.25 4.1 4.1 0 0 1-2.68-.84 3.4 3.4 0 0 1-1.34-2.76 2.63 2.63 0 0 1 .59-1.76 2.16 2.16 0 0 1 1.76-.75 2.06 2.06 0 0 1 1.84.84 2 2 0 0 1 .33 1.25 2.06 2.06 0 0 1-.75 1.59 2.19 2.19 0 0 1-1.09.5 1.77 1.77 0 0 0 1.34.5 2.82 2.82 0 0 0 2.18-1 12.39 12.39 0 0 0 1.92-3.76l.42-1.34-5.94-15.81a5.86 5.86 0 0 0-1.17-2.26 2.5 2.5 0 0 0-1.67-.5h-.33v-1.42zm32.71 0v6.27h-1.34c-.67-3.6-2.43-5.44-5.1-5.44a3.23 3.23 0 0 0-2.34.84 2.74 2.74 0 0 0-.92 2.18 2.79 2.79 0 0 0 1.25 2.34 10.23 10.23 0 0 0 2.34.92 18.75 18.75 0 0 1 4.85 2.09 5.53 5.53 0 0 1 2.34 4.69 5.93 5.93 0 0 1-2.09 4.77 6.75 6.75 0 0 1-4.52 1.59 6.42 6.42 0 0 1-2.84-.59c-.33-.17-1-.5-2-1.09a2.13 2.13 0 0 0-.59-.17c-.25 0-.59.42-.84 1.34h-1.25v-7.28h1.25a14 14 0 0 0 1.59 3.93 5.51 5.51 0 0 0 1.92 1.76 5.69 5.69 0 0 0 2.59.67A3.13 3.13 0 0 0 259 329a3.64 3.64 0 0 0 .92-2.43 3.26 3.26 0 0 0-1.76-3 37 37 0 0 0-3.85-1.51 10.28 10.28 0 0 1-3.18-1.59 5.49 5.49 0 0 1-.17-8.2 6.1 6.1 0 0 1 4.1-1.42 8 8 0 0 1 4.1 1.17 1.34 1.34 0 0 0 .67.25c.25 0 .5-.33.67-.92h1.59zm8.62 1.5v11.88a11 11 0 0 0 .33 3.35 2.06 2.06 0 0 0 2.09 1.67 2.24 2.24 0 0 0 2.09-1.42 8.41 8.41 0 0 0 .59-3.43v-.59h1.51v.77a7.61 7.61 0 0 1-1.25 4.69 4.54 4.54 0 0 1-3.85 1.67 4.4 4.4 0 0 1-3.76-1.51 4.06 4.06 0 0 1-1.09-2.59 26.92 26.92 0 0 1-.08-2.76v-11.73h-3.18v-1.25c2-.5 3.43-1.25 4.1-2.34a10.87 10.87 0 0 0 1.42-5.35h1.25v7.45h5.86v1.51zm19.75 6.7a12.19 12.19 0 0 0-.59-4.27q-1-3-3.26-3c-1.67 0-2.84 1.25-3.6 3.68a14.65 14.65 0 0 0-.42 3.6h7.86zm4 1.51h-11.87a15.82 15.82 0 0 0 .92 6.11 4.14 4.14 0 0 0 4.1 2.76 4.76 4.76 0 0 0 3.76-1.76 12.41 12.41 0 0 0 1.67-2.68l1.25.67c-1.84 3.6-4.27 5.44-7.45 5.44a7.44 7.44 0 0 1-5.61-2.26q-2.76-2.89-2.76-8.28a11.21 11.21 0 0 1 2.76-7.95 6.59 6.59 0 0 1 5.19-2.34c3 0 5.19 1.51 6.78 4.43a14.79 14.79 0 0 1 1.27 5.88m25.18 10v-12c0-2.51-.17-4.1-.59-4.77a2.38 2.38 0 0 0-2.26-1.42 3.27 3.27 0 0 0-2.93 2 8.35 8.35 0 0 0-.84 2.43 30.15 30.15 0 0 0-.17 3.68v5.35c0 1.59.17 2.51.59 2.93a2.1 2.1 0 0 0 1.67.5h.67v1.3h-6.53v-11.37c0-1.92 0-3.26-.08-3.85-.33-2.09-1.17-3.1-2.76-3.1a3.23 3.23 0 0 0-2.93 2.09 8.9 8.9 0 0 0-.75 2.09 21 21 0 0 0-.25 3.93v5.35c0 1.59.17 2.59.5 2.93a2.45 2.45 0 0 0 1.76.5h.67v1.34H296v-1.34h.75a2.35 2.35 0 0 0 1.67-.5 5.26 5.26 0 0 0 .59-2.93V316c0-1.51-.17-2.51-.59-2.93a2.35 2.35 0 0 0-1.67-.5h-.5v-1.34l6.11-.25v3.51a5.32 5.32 0 0 1 1.17-1.84 5.09 5.09 0 0 1 3.93-1.76c2.34 0 4 1.34 5.1 3.93 1.25-2.59 3.1-3.93 5.44-3.93a5 5 0 0 1 4.43 2.26 5.68 5.68 0 0 1 .92 2.68 24.09 24.09 0 0 1 .17 2.68v7.78c0 1.59.17 2.51.59 2.93a2.1 2.1 0 0 0 1.67.5h.5V331h-6.61zm21.25-19.73v6.27h-1.34c-.67-3.6-2.43-5.44-5.1-5.44a3.23 3.23 0 0 0-2.34.84 2.74 2.74 0 0 0-.92 2.18 2.79 2.79 0 0 0 1.25 2.34 10.23 10.23 0 0 0 2.34.92 18.75 18.75 0 0 1 4.85 2.09 5.53 5.53 0 0 1 2.34 4.69 5.93 5.93 0 0 1-2.09 4.77 6.68 6.68 0 0 1-4.43 1.59 6.79 6.79 0 0 1-2.93-.59c-.33-.17-1-.5-2-1.09a1.55 1.55 0 0 0-.59-.17c-.25 0-.59.42-.84 1.34h-1.25v-7.28h1.25a11.71 11.71 0 0 0 1.67 3.93 5.51 5.51 0 0 0 1.92 1.76 6 6 0 0 0 2.59.67 3.13 3.13 0 0 0 2.59-1.09 3.54 3.54 0 0 0-.84-5.44 37 37 0 0 0-3.85-1.51 10.28 10.28 0 0 1-3.18-1.59 5.49 5.49 0 0 1-.17-8.2 6.1 6.1 0 0 1 4.1-1.42 8 8 0 0 1 4.1 1.17 1.33 1.33 0 0 0 .67.25c.25 0 .5-.33.67-.92h1.51z" transform="translate(-143.33 -301.31)"/><path class="cls-1" d="M203.38 13.64h6.11v6.02h-6.11z"/></svg>