<svg id="Layer_1" data-name="Layer 1" xmlns="http://www.w3.org/2000/svg" viewBox="0 0 148.87 63.8"><defs><style>.cls-1{fill:#1d1d1b}</style></defs><title>logo16</title><path class="cls-1" d="M105.97 63.62l-.27-.72-.36-2.25-.27-3.34-.18-57.22-.27-.09-.36.09-6.13 1.98.18.54.27.9.27 1.36.18.72.09.54v52.53l-.09.36v1.36l-.45 2.07-.36 1.35h7.75v-.18zm-54.79-6.94L66.77 19.1l1.09-1.71.27-.54 1.44-2.07.27-.36h-8.38v.99l-.27 2.52-.72 2.53-.73 2.16-1.08 2.61-2.61 6.58-1.98 5.23-2.62 6.58-1.98 5.13-.99 2.98h-.27L44.43 41l-7.21-19.82-.81-2.35-.36-2.7v-1.71h-8.66l.27.27.27.36 1.45 2.52 1.26 2.98 1.44 3.78-.09.27-10.63 27.49h-.09l-2.17-5.5-.99-2.71-3.33-8.92-.99-2.79-3.34-8.74-.9-2.7-.63-2.17-.36-2.43-.18-1.44-.09-.27H0l1.35 1.8.09.36 1.71 3.33L19.82 63.8h1.45l7.03-18.65.9-2.17.63-1.98.81-1.89.63-1.8.72-1.8.72-1.99.72-1.8.54-1.35h.09l.27.54 2.89 7.48 1.71 4.59.9 2.17.63 1.89.9 2.34 1.71 4.6.73 1.8 1.62 4.6.99 2.34.36 1.08h1.53l2.88-7.12zm25.33 6.94l-.18-.72-.36-2.25-.36-3.43V27.39l-.55-.18-.27.18-6.03 1.81-.09.09.36.99.36.99.27 1.44v.72l.18 25.23-.18.36-.09 1.36-.45 2.07-.36 1.35h7.75v-.18zm14.77-.09l-.63-2.25-.27-2.62V6.4l-.27-.09-.27.09-.36.18-1.71.45-2.88.81-1.45.54.54 1.71.37 1.44v.36l.27 3.97-.18 41.36-.18 3.52-.45 2.16-.28.72.19.18h7.56v-.27zm29.2-.45l-.36-1.89-.27-2.53-.18-31.27-.45-.18-.27.18-.45.09-5.77 1.72.18.36.36.99.27 1.17.27 1.71.18 1.17v22.71l-.18.27v2.16l-.54 2.62-.27 1.26v.18h7.75l-.27-.72zm17.39.45h.54l1.44-.36 1.63-.45 2.16-.99 1.44-.99.45-.09.99-1.17.99-1.18.64-1.35.63-1.71v-.45l.09-.27v-3.43l-.09-.45-.54-2.07-.36-.81-.19-.36-.63-.9-.27-.27-.9-1.08-1.53-1.17-1.44-.91-2.61-1.53-.55-.27-.81-.45-1.26-.63-.45-.27-1.26-.9-.45-.27-.36-.36-.27-.18-.63-.63-.18-.27-.36-.27-.63-1.45v-.45l.27-1.35.36-.81.09-.27.45-.36.99-.81.72-.27 1.26-.45h.63l.27-.18h2.26l2.25.54 1.8.63 1.71.9 1.09.81v-5.41l-1.63-.63-1.98-.54-1.8-.27-4.42-.09-.27.09-.72.18-1.8.36-1.44.54-.54.36-1.44.82-.28.27-.36.27-1.44 1.35-.09.36-.45.54-.27.36-.36.81-.27.81-.27 1.17v.36l-.09 2.53.09.18.18.54.45 1.35.81 1.17 1.62 1.71.27.09.46.54.45.28 2.34 1.44.36.27 1.8.99 1.89.99 1.54.99 1.35 1.08 1.26 1.26.27.27.45 1.08.36 1.45-.09.63-.27 1.35-.54.99-.81 1.17-.36.18-.27.36-.45.27-.99.45-1.63.45h-.45l-2.16.19-.9-.19-.72-.09-1.26-.36-1.54-.54-1.8-1.08-.45-.27-1.26-1.26-.27-.18v6.67l.36.18 1.71.54 1.35.27 1.45.36h.45l3.6.27 1.89-.27z"/></svg>