<svg id="Layer_1" data-name="Layer 1" xmlns="http://www.w3.org/2000/svg" viewBox="0 0 76.61 97.1"><defs><style>.cls-1{fill:#1d1d1b}</style></defs><title>logo17</title><path class="cls-1" d="M0 0h7.56v97.1H0z"/><path class="cls-1" d="M150.89 394h-.83v17.4h.83c6.35 0 8.77-3.48 8.77-8.7.01-5.7-2.94-8.7-8.77-8.7z" transform="translate(-127.9 -354.23)"/><path class="cls-1" d="M139.78 354.23v97.1h64.73v-97.1zm12.48 61.71H145v-26.4h7.34c7.56 0 12.7 5.67 12.7 13.23-.04 7.42-5.3 13.16-12.78 13.16zM180.77 394h-5.29v21.93h-5.14V394H165v-4.46h15.81zm19.81-2.87l-10.74 20.34h10.74v4.46h-18.91L193.32 394h-9.91v-4.46h17.17z" transform="translate(-127.9 -354.23)"/></svg>