<svg id="Layer_1" data-name="Layer 1" xmlns="http://www.w3.org/2000/svg" viewBox="0 0 80.4 114.4"><defs><style>.cls-1{fill:none}.cls-2{fill:#1d1d1b}</style></defs><title>logo21</title><path class="cls-1" d="M0 0h80.4v114.4H0z"/><path class="cls-1" d="M163.22 124.8c-12.9-3.5-23.6-9.3-30.4-17-6.5-7.4-9.8-16.6-9.8-27V10.4h80.4v70.4c0 10.4-3.3 19.6-9.8 27-6.8 7.7-17.5 13.5-30.4 17" transform="translate(-123.02 -10.4)"/><path class="cls-1" d="M199.92 80.8c0 19.8-12.8 33.8-36.8 40.4-24-6.6-36.7-20.6-36.7-40.4V33.2h73.4v47.6z" transform="translate(-123.02 -10.4)"/><path class="cls-2" d="M125.32 32.2v48.6c0 9.9 3.1 18.5 9.2 25.5 6.4 7.3 16.1 12.7 28.7 16.1 12.6-3.4 22.3-8.8 28.7-16.1 6.1-7 9.2-15.6 9.2-25.5V32.2zm73.9 48.6c0 19.4-12.5 33.1-36 39.6-23.5-6.5-35.9-20.2-35.9-39.6V34.1h72v46.7zm-36.7-60.9a1.77 1.77 0 0 0-1.8 1.7h3.6a1.71 1.71 0 0 0-1.8-1.7z" transform="translate(-123.02 -10.4)"/><path class="cls-2" d="M58.4 7.5l-1.5 4.2h3l-1.4-4.2h-.1z"/><path class="cls-2" d="M125.32 12.6v16.6h75.9V12.6zm22 5h-2.7v8.8H142v-8.8h-2.9v-2.3h9.1zm9.9 8.8h-2.4v-4.3a3.09 3.09 0 0 0-.2-1.1 1 1 0 0 0-1.1-.7 3.12 3.12 0 0 0-2 .9v5.2h-2.4v-11h2.4v3.8a4.45 4.45 0 0 1 2.7-1.1 2.79 2.79 0 0 1 2.8 1.8 6.53 6.53 0 0 1 .2 1.7zm9.2-3.2h-5.8c.2 1 .9 1.7 2.4 1.7a9.52 9.52 0 0 0 2.9-.5l-.6 1.9a6.73 6.73 0 0 1-2.5.4 4 4 0 0 1-4.3-4.3 3.91 3.91 0 0 1 4.1-4.2c2.6 0 4.2 2.1 3.8 5zm5.4-.8v4h-2.6V15.3h8.6l-.9 2.3h-5.1V20H176l-.9 2.4zm12.7 4l-.7-2.2h-4.6l-.8 2.2h-2.6L180 15.3h3l4.2 11.1zM162.12 93c0-.1.1-.3 0-.3s-.1-.1-.2 0-.3.3-.5.7c0 .1 0 .1-.1.2a4.53 4.53 0 0 0-.1.8l.6-.6.1-.1a1.45 1.45 0 0 1 .2-.7" transform="translate(-123.02 -10.4)"/><path class="cls-2" d="M160.22 90.8a1.3 1.3 0 0 0-.5 1.6 1.81 1.81 0 0 0 1.7 1.1c0-.1 0-.1.1-.2a1.28 1.28 0 0 1 .5-.7 2.39 2.39 0 0 0-.2-.9 2.84 2.84 0 0 0-.6-.9 1.69 1.69 0 0 1-1 0m2.9-1.4a1.86 1.86 0 0 1-.2-1v-.1a1.58 1.58 0 0 0-2.1-.1 1.65 1.65 0 0 0-.4 2.1 2.35 2.35 0 0 1 .8.2 7 7 0 0 1 .9-.6 2.35 2.35 0 0 1 1-.5" transform="translate(-123.02 -10.4)"/><path class="cls-2" d="M160.32 90.2a1.75 1.75 0 0 0-1 .1s.1.3.9.5c.5.1.7.1.9 0s.2-.1.1-.2a.1.1 0 0 0-.1-.1c-.1-.2-.5-.2-.8-.3m4.4 2.2a6.15 6.15 0 0 0-1.3.1 10.87 10.87 0 0 0-1.4.5 2.18 2.18 0 0 1-.3.5l-.1.1a2.24 2.24 0 0 0 1.9.8c1.2-.2 1.6-1 1.6-1.2l-.1-.1a2.12 2.12 0 0 0-.3-.7m1.5-2.3c-.1.1-.2.1-.3.2a3.09 3.09 0 0 1-.8.2c-.1.2-.1.5-.2.8a2.77 2.77 0 0 0 .1.9 3.8 3.8 0 0 1 .5.6.1.1 0 0 0 .1.1c.1.1.1.1.1.2a1.33 1.33 0 0 0 1.4-1.3c.2-1.4-.7-1.7-.9-1.7m-.22-.3a1.78 1.78 0 0 0-.9-2 1.55 1.55 0 0 0-1.8.3v1.2a3.78 3.78 0 0 0 .8.5 2.3 2.3 0 0 0 .9.3 1.42 1.42 0 0 1 .6-.2.76.76 0 0 1 .4-.1" transform="translate(-123.02 -10.4)"/><path class="cls-2" d="M163.42 88.3v-.2a.74.74 0 0 0-.3-.5s-.2.1-.2.7v.1a2.15 2.15 0 0 0 .2 1 .1.1 0 0 0 .1.1c.1 0 .1-.1.1-.2a1.1 1.1 0 0 0 .1-1m2.8 1.8c.3-.2.6-.3.6-.4a2.64 2.64 0 0 0-.7.1c-.1 0-.2.1-.3.1s-.5.1-.6.2-.3.2-.2.3.1.1.2.1a3.09 3.09 0 0 0 .8-.2c-.1-.1.1-.1.2-.2m-.7 2.6a3.8 3.8 0 0 0-.5-.6c-.1 0-.1-.1-.2-.1h-.2v.2c0 .1 0 .1.1.2s.3.4.5.7l.1.1.1.1a.93.93 0 0 0 .6.3 1 1 0 0 0-.2-.5c-.1-.2-.2-.2-.3-.4M164 90.8a.78.78 0 0 1-.7.9.89.89 0 0 1-1.1-.5.78.78 0 0 1 .7-.9.89.89 0 0 1 1.1.5m24.82 2.2c0-.1.1-.3 0-.3s-.1-.1-.2 0-.3.3-.5.7c0 .1 0 .1-.1.2a4.53 4.53 0 0 0-.1.8l.6-.6.1-.1a1.44 1.44 0 0 1 .2-.7" transform="translate(-123.02 -10.4)"/><path class="cls-2" d="M186.92 90.8a1.3 1.3 0 0 0-.5 1.6 1.81 1.81 0 0 0 1.7 1.1c0-.1 0-.1.1-.2a1.28 1.28 0 0 1 .5-.7 2.39 2.39 0 0 0-.2-.9 2.84 2.84 0 0 0-.6-.9 1.69 1.69 0 0 1-1 0m2.9-1.4a1.86 1.86 0 0 1-.2-1v-.1a1.58 1.58 0 0 0-2.1-.1 1.65 1.65 0 0 0-.4 2.1 2.35 2.35 0 0 1 .8.2 7 7 0 0 1 .9-.6 2.35 2.35 0 0 1 1-.5" transform="translate(-123.02 -10.4)"/><path class="cls-2" d="M187 90.2a1.75 1.75 0 0 0-1 .1s.1.3.9.5c.5.1.7.1.9 0s.2-.1.1-.2a.1.1 0 0 0-.1-.1c-.1-.2-.6-.2-.8-.3m4.42 2.2a6.15 6.15 0 0 0-1.3.1 10.87 10.87 0 0 0-1.4.5 2.18 2.18 0 0 1-.3.5l-.1.1a2.24 2.24 0 0 0 1.9.8c1.2-.2 1.6-1 1.6-1.2l-.1-.1c-.1-.2-.2-.5-.3-.7m1.5-2.3c-.1.1-.2.1-.3.2a3.09 3.09 0 0 1-.8.2c-.1.2-.1.5-.2.8a2.77 2.77 0 0 0 .1.9 3.8 3.8 0 0 1 .5.6.1.1 0 0 0 .1.1c.1.1.1.1.1.2a1.33 1.33 0 0 0 1.4-1.3c.1-1.4-.8-1.7-.9-1.7m-.2-.3a1.78 1.78 0 0 0-.9-2 1.55 1.55 0 0 0-1.8.3v1.2a3.78 3.78 0 0 0 .8.5 2.3 2.3 0 0 0 .9.3 1.42 1.42 0 0 1 .6-.2.76.76 0 0 1 .4-.1" transform="translate(-123.02 -10.4)"/><path class="cls-2" d="M190.12 88.3v-.2a.74.74 0 0 0-.3-.5s-.2.1-.2.7v.1a2.15 2.15 0 0 0 .2 1 .1.1 0 0 0 .1.1c.1 0 .1-.1.1-.2a1.55 1.55 0 0 0 .1-1m2.8 1.8c.3-.2.6-.3.6-.4a2.64 2.64 0 0 0-.7.1c-.1 0-.2.1-.3.1s-.5.1-.6.2-.3.2-.2.3.1.1.2.1a3.09 3.09 0 0 0 .8-.2c-.1-.1 0-.1.2-.2m-.7 2.6a3.8 3.8 0 0 0-.5-.6c-.1 0-.1-.1-.2-.1h-.2v.2c0 .1 0 .1.1.2s.3.4.5.7l.1.1.1.1a.93.93 0 0 0 .6.3 1 1 0 0 0-.2-.5 1 1 0 0 1-.3-.4m-1.5-1.9a.78.78 0 0 1-.7.9.89.89 0 0 1-1.1-.5.78.78 0 0 1 .7-.9.89.89 0 0 1 1.1.5m-55.5 2.2c0-.1.1-.3 0-.3s-.1-.1-.2 0-.3.3-.5.7c0 .1 0 .1-.1.2a4.53 4.53 0 0 0-.1.8l.6-.6.1-.1a1.44 1.44 0 0 1 .2-.7" transform="translate(-123.02 -10.4)"/><path class="cls-2" d="M133.32 90.8a1.3 1.3 0 0 0-.5 1.6 1.81 1.81 0 0 0 1.7 1.1c0-.1 0-.1.1-.2a1.28 1.28 0 0 1 .5-.7 2.39 2.39 0 0 0-.2-.9 2.84 2.84 0 0 0-.6-.9 1.67 1.67 0 0 1-1 0m2.9-1.4a1.86 1.86 0 0 1-.2-1v-.1a1.58 1.58 0 0 0-2.1-.1 1.65 1.65 0 0 0-.4 2.1 2.35 2.35 0 0 1 .8.2 7 7 0 0 1 .9-.6 2.35 2.35 0 0 1 1-.5" transform="translate(-123.02 -10.4)"/><path class="cls-2" d="M133.42 90.2a1.75 1.75 0 0 0-1 .1s.1.3.9.5c.5.1.7.1.9 0s.2-.1.1-.2a.1.1 0 0 0-.1-.1c-.1-.2-.5-.2-.8-.3m4.4 2.2a6.15 6.15 0 0 0-1.3.1 10.87 10.87 0 0 0-1.4.5 2.18 2.18 0 0 1-.3.5l-.1.1a2.24 2.24 0 0 0 1.9.8c1.2-.2 1.6-1 1.6-1.2l-.1-.1a2.12 2.12 0 0 0-.3-.7m1.5-2.3c-.1.1-.2.1-.3.2a3.09 3.09 0 0 1-.8.2c-.1.2-.1.5-.2.8a2.77 2.77 0 0 0 .1.9 3.8 3.8 0 0 1 .5.6.1.1 0 0 0 .1.1c.1.1.1.1.1.2a1.33 1.33 0 0 0 1.4-1.3c.2-1.4-.7-1.7-.9-1.7m-.2-.3a1.78 1.78 0 0 0-.9-2 1.55 1.55 0 0 0-1.8.3v1.2a3.78 3.78 0 0 0 .8.5 2.3 2.3 0 0 0 .9.3 1.42 1.42 0 0 1 .6-.2.76.76 0 0 1 .4-.1" transform="translate(-123.02 -10.4)"/><path class="cls-2" d="M136.52 88.3v-.2a.74.74 0 0 0-.3-.5s-.2.1-.2.7v.1a2.15 2.15 0 0 0 .2 1 .1.1 0 0 0 .1.1c.1 0 .1-.1.1-.2a1.1 1.1 0 0 0 .1-1m2.8 1.8c.3-.2.6-.3.6-.4a2.64 2.64 0 0 0-.7.1c-.1 0-.2.1-.3.1s-.5.1-.6.2-.3.2-.2.3.1.1.2.1a3.09 3.09 0 0 0 .8-.2c0-.1.1-.1.2-.2m-.7 2.6a3.8 3.8 0 0 0-.5-.6c-.1 0-.1-.1-.2-.1h-.2v.2c0 .1 0 .1.1.2s.3.4.5.7l.1.1.1.1a.93.93 0 0 0 .6.3 1 1 0 0 0-.2-.5c-.1-.2-.2-.2-.3-.4.1.1.1 0 0 0m-1.5-1.9a.78.78 0 0 1-.7.9.89.89 0 0 1-1.1-.5.78.78 0 0 1 .7-.9.89.89 0 0 1 1.1.5m25-22.7c0-.1.1-.3 0-.3s-.1-.1-.2 0-.3.3-.5.7c0 .1 0 .1-.1.2a4.53 4.53 0 0 0-.1.8l.6-.6.1-.1a1.45 1.45 0 0 1 .2-.7" transform="translate(-123.02 -10.4)"/><path class="cls-2" d="M160.22 65.9a1.3 1.3 0 0 0-.5 1.6 1.81 1.81 0 0 0 1.7 1.1c0-.1 0-.1.1-.2a1.28 1.28 0 0 1 .5-.7 2.39 2.39 0 0 0-.2-.9 2.84 2.84 0 0 0-.6-.9 1.69 1.69 0 0 1-1 0m2.9-1.4a1.86 1.86 0 0 1-.2-1v-.1a1.58 1.58 0 0 0-2.1-.1 1.65 1.65 0 0 0-.4 2.1 2.35 2.35 0 0 1 .8.2 7 7 0 0 1 .9-.6 4.67 4.67 0 0 1 1-.5" transform="translate(-123.02 -10.4)"/><path class="cls-2" d="M160.32 65.4a1.75 1.75 0 0 0-1 .1s.1.3.9.5c.5.1.7.1.9 0s.2-.1.1-.2a.1.1 0 0 0-.1-.1c-.1-.2-.5-.3-.8-.3m4.4 2.2a6.15 6.15 0 0 0-1.3.1 10.87 10.87 0 0 0-1.4.5 2.18 2.18 0 0 1-.3.5l-.1.1a2.24 2.24 0 0 0 1.9.8c1.2-.2 1.6-1 1.6-1.2l-.1-.1a1.49 1.49 0 0 0-.3-.7m1.5-2.4c-.1.1-.2.1-.3.2a3.09 3.09 0 0 1-.8.2c-.1.2-.1.5-.2.8a2.77 2.77 0 0 0 .1.9 3.8 3.8 0 0 1 .5.6.1.1 0 0 0 .1.1c.1.1.1.1.1.2a1.33 1.33 0 0 0 1.4-1.3 1.4 1.4 0 0 0-.9-1.7m-.22-.3a1.78 1.78 0 0 0-.9-2 1.55 1.55 0 0 0-1.8.3v1.2a3.78 3.78 0 0 0 .8.5 2.3 2.3 0 0 0 .9.3 1.42 1.42 0 0 1 .6-.2c.2 0 .3-.1.4-.1" transform="translate(-123.02 -10.4)"/><path class="cls-2" d="M163.42 63.4v-.2a.74.74 0 0 0-.3-.5s-.2.1-.2.7v.1a2.15 2.15 0 0 0 .2 1 .1.1 0 0 0 .1.1c.1 0 .1-.1.1-.2a1.1 1.1 0 0 0 .1-1m2.8 1.8c.3-.2.6-.3.6-.4a2.64 2.64 0 0 0-.7.1c-.1 0-.2.1-.3.1s-.5.1-.6.2-.3.2-.2.3.1.1.2.1a3.09 3.09 0 0 0 .8-.2c-.1-.1.1-.1.2-.2m-.7 2.6a3.8 3.8 0 0 0-.5-.6c-.1 0-.1-.1-.2-.1h-.2v.2c0 .1 0 .1.1.2s.3.4.5.7l.1.1.1.1a.93.93 0 0 0 .6.3 1 1 0 0 0-.2-.5 1.38 1.38 0 0 1-.3-.4c.1.1 0 .1 0 0M164 65.9a.78.78 0 0 1-.7.9.89.89 0 0 1-1.1-.5.78.78 0 0 1 .7-.9.89.89 0 0 1 1.1.5m-29.08 2.2c0-.1.1-.3 0-.3s-.1-.1-.2 0-.3.3-.5.7c0 .1 0 .1-.1.2a4.53 4.53 0 0 0-.1.8l.6-.6.1-.1a1.45 1.45 0 0 1 .2-.7m-2-2.2a1.3 1.3 0 0 0-.5 1.6 1.81 1.81 0 0 0 1.7 1.1c0-.1 0-.1.1-.2a1.28 1.28 0 0 1 .5-.7 2.39 2.39 0 0 0-.2-.9 2.84 2.84 0 0 0-.6-.9 1.62 1.62 0 0 1-1 0m3-1.4a1.86 1.86 0 0 1-.2-1v-.1a1.58 1.58 0 0 0-2.1-.1 1.65 1.65 0 0 0-.4 2.1 2.35 2.35 0 0 1 .8.2 7 7 0 0 1 .9-.6 4.67 4.67 0 0 1 1-.5" transform="translate(-123.02 -10.4)"/><path class="cls-2" d="M133.12 65.4a1.75 1.75 0 0 0-1 .1s.1.3.9.5c.5.1.7.1.9 0s.2-.1.1-.2a.1.1 0 0 0-.1-.1 1.33 1.33 0 0 0-.8-.3m4.4 2.2a6.15 6.15 0 0 0-1.3.1 10.87 10.87 0 0 0-1.4.5 2.18 2.18 0 0 1-.3.5l-.1.1a2.24 2.24 0 0 0 1.9.8c1.2-.2 1.6-1 1.6-1.2l-.1-.1a4.86 4.86 0 0 0-.3-.7m1.48-2.4c-.1.1-.2.1-.3.2a3.09 3.09 0 0 1-.8.2c-.1.2-.1.5-.2.8a2.77 2.77 0 0 0 .1.9 3.8 3.8 0 0 1 .5.6.1.1 0 0 0 .1.1c.1.1.1.1.1.2a1.33 1.33 0 0 0 1.4-1.3 1.61 1.61 0 0 0-.9-1.7m-.18-.3a1.78 1.78 0 0 0-.9-2 1.55 1.55 0 0 0-1.8.3v1.2a3.78 3.78 0 0 0 .8.5 2.3 2.3 0 0 0 .9.3 1.42 1.42 0 0 1 .6-.2c.2 0 .3-.1.4-.1" transform="translate(-123.02 -10.4)"/><path class="cls-2" d="M136.22 63.4v-.2a.74.74 0 0 0-.3-.5s-.2.1-.2.7v.1a2.15 2.15 0 0 0 .2 1 .1.1 0 0 0 .1.1c.1 0 .1-.1.1-.2a1.55 1.55 0 0 0 .1-1m2.78 1.8c.3-.2.6-.3.6-.4a2.64 2.64 0 0 0-.7.1c-.1 0-.2.1-.3.1s-.5.1-.6.2-.3.2-.2.3.1.1.2.1a3.09 3.09 0 0 0 .8-.2c-.1-.1 0-.1.2-.2m-.68 2.6a3.8 3.8 0 0 0-.5-.6c-.1 0-.1-.1-.2-.1h-.2v.2c0 .1 0 .1.1.2s.3.4.5.7l.1.1.1.1a.93.93 0 0 0 .6.3 1 1 0 0 0-.2-.5c-.2-.1-.2-.2-.3-.4m-1.5-1.9a.78.78 0 0 1-.7.9.89.89 0 0 1-1.1-.5.78.78 0 0 1 .7-.9.89.89 0 0 1 1.1.5m52.6 2.2c0-.1.1-.3 0-.3s-.1-.1-.2 0-.3.3-.5.7c0 .1 0 .1-.1.2a4.53 4.53 0 0 0-.1.8l.6-.6.1-.1a1.45 1.45 0 0 1 .2-.7" transform="translate(-123.02 -10.4)"/><path class="cls-2" d="M187.52 65.9a1.3 1.3 0 0 0-.5 1.6 1.81 1.81 0 0 0 1.7 1.1c0-.1 0-.1.1-.2a1.28 1.28 0 0 1 .5-.7 2.39 2.39 0 0 0-.2-.9 2.84 2.84 0 0 0-.6-.9 1.69 1.69 0 0 1-1 0m2.9-1.4a1.86 1.86 0 0 1-.2-1v-.1a1.58 1.58 0 0 0-2.1-.1 1.65 1.65 0 0 0-.4 2.1 2.35 2.35 0 0 1 .8.2 7 7 0 0 1 .9-.6 4.67 4.67 0 0 1 1-.5" transform="translate(-123.02 -10.4)"/><path class="cls-2" d="M187.62 65.4a1.75 1.75 0 0 0-1 .1s.1.3.9.5c.5.1.7.1.9 0s.2-.1.1-.2a.1.1 0 0 0-.1-.1c-.1-.2-.6-.3-.8-.3m4.38 2.2a6.15 6.15 0 0 0-1.3.1 10.87 10.87 0 0 0-1.4.5 2.18 2.18 0 0 1-.3.5l-.1.1a2.24 2.24 0 0 0 1.9.8c1.2-.2 1.6-1 1.6-1.2l-.1-.1a1.49 1.49 0 0 0-.3-.7m1.52-2.4c-.1.1-.2.1-.3.2a3.09 3.09 0 0 1-.8.2c-.1.2-.1.5-.2.8a2.77 2.77 0 0 0 .1.9 3.8 3.8 0 0 1 .5.6.1.1 0 0 0 .1.1c.1.1.1.1.1.2a1.33 1.33 0 0 0 1.4-1.3 1.5 1.5 0 0 0-.9-1.7m-.2-.3a1.78 1.78 0 0 0-.9-2 1.55 1.55 0 0 0-1.8.3v1.2a3.78 3.78 0 0 0 .8.5 2.3 2.3 0 0 0 .9.3 1.42 1.42 0 0 1 .6-.2c.2 0 .3-.1.4-.1" transform="translate(-123.02 -10.4)"/><path class="cls-2" d="M190.72 63.4v-.2a.74.74 0 0 0-.3-.5s-.2.1-.2.7v.1a2.15 2.15 0 0 0 .2 1 .1.1 0 0 0 .1.1c.1 0 .1-.1.1-.2a1.1 1.1 0 0 0 .1-1m2.8 1.8c.3-.2.6-.3.6-.4a2.64 2.64 0 0 0-.7.1c-.1 0-.2.1-.3.1s-.5.1-.6.2-.3.2-.2.3.1.1.2.1a3.09 3.09 0 0 0 .8-.2c-.1-.1 0-.1.2-.2m-.7 2.6a3.8 3.8 0 0 0-.5-.6c-.1 0-.1-.1-.2-.1h-.2v.2c0 .1 0 .1.1.2s.3.4.5.7l.1.1.1.1a.93.93 0 0 0 .6.3 1 1 0 0 0-.2-.5 1.38 1.38 0 0 1-.3-.4m-1.5-1.9a.78.78 0 0 1-.7.9.89.89 0 0 1-1.1-.5.78.78 0 0 1 .7-.9.89.89 0 0 1 1.1.5m-29.2-22.6c0-.1.1-.3 0-.3s-.1-.1-.2 0-.3.3-.5.7c0 .1 0 .1-.1.2a4.53 4.53 0 0 0-.1.8l.6-.6.1-.1a1 1 0 0 1 .2-.7" transform="translate(-123.02 -10.4)"/><path class="cls-2" d="M160.22 41a1.3 1.3 0 0 0-.5 1.6 1.81 1.81 0 0 0 1.7 1.1c0-.1 0-.1.1-.2a1.28 1.28 0 0 1 .5-.7 2.39 2.39 0 0 0-.2-.9 2.84 2.84 0 0 0-.6-.9 1.16 1.16 0 0 1-1 0m2.9-1.4a1.86 1.86 0 0 1-.2-1v-.1a1.58 1.58 0 0 0-2.1-.1 1.65 1.65 0 0 0-.4 2.1 2.35 2.35 0 0 1 .8.2 7 7 0 0 1 .9-.6 4.67 4.67 0 0 1 1-.5" transform="translate(-123.02 -10.4)"/><path class="cls-2" d="M160.32 40.5a1.75 1.75 0 0 0-1 .1s.1.3.9.5c.5.1.7.1.9 0s.2-.1.1-.2a.1.1 0 0 0-.1-.1c-.1-.2-.5-.3-.8-.3m4.4 2.2a6.15 6.15 0 0 0-1.3.1 10.87 10.87 0 0 0-1.4.5 2.18 2.18 0 0 1-.3.5l-.1.1a2.24 2.24 0 0 0 1.9.8c1.2-.2 1.6-1 1.6-1.2l-.1-.1a1.49 1.49 0 0 0-.3-.7m1.5-2.4c-.1.1-.2.1-.3.2a3.09 3.09 0 0 1-.8.2c-.1.2-.1.5-.2.8a2.77 2.77 0 0 0 .1.9 3.8 3.8 0 0 1 .5.6.1.1 0 0 0 .1.1c.1.1.1.1.1.2a1.33 1.33 0 0 0 1.4-1.3 1.4 1.4 0 0 0-.9-1.7M166 40a1.78 1.78 0 0 0-.9-2 1.55 1.55 0 0 0-1.8.3v1.2a3.78 3.78 0 0 0 .8.5 2.3 2.3 0 0 0 .9.3 1.42 1.42 0 0 1 .6-.2c.2 0 .3 0 .4-.1" transform="translate(-123.02 -10.4)"/><path class="cls-2" d="M163.42 38.6v-.2a.74.74 0 0 0-.3-.5s-.2.1-.2.7v.1a2.15 2.15 0 0 0 .2 1 .1.1 0 0 0 .1.1c.1 0 .1-.1.1-.2a1.15 1.15 0 0 0 .1-1m2.8 1.7c.3-.2.6-.3.6-.4a2.64 2.64 0 0 0-.7.1c-.1 0-.2.1-.3.1s-.5.1-.6.2-.3.2-.2.3.1.1.2.1a3.09 3.09 0 0 0 .8-.2c-.1 0 .1-.1.2-.2m-.7 2.7a3.8 3.8 0 0 0-.5-.6c-.1 0-.1-.1-.2-.1h-.2v.2c0 .1 0 .1.1.2s.3.4.5.7l.1.1.1.1a.93.93 0 0 0 .6.3 1 1 0 0 0-.2-.5 1.38 1.38 0 0 0-.3-.4M164 41a.78.78 0 0 1-.7.9.89.89 0 0 1-1.1-.5.78.78 0 0 1 .7-.9.89.89 0 0 1 1.1.5m-29.08 2.3c0-.1.1-.3 0-.3s-.1-.1-.2 0-.3.3-.5.7c0 .1 0 .1-.1.2a4.53 4.53 0 0 0-.1.8l.6-.6.1-.1a1 1 0 0 1 .2-.7m-2-2.3a1.3 1.3 0 0 0-.5 1.6 1.81 1.81 0 0 0 1.7 1.1c0-.1 0-.1.1-.2a1.28 1.28 0 0 1 .5-.7 2.39 2.39 0 0 0-.2-.9 2.84 2.84 0 0 0-.6-.9 1.12 1.12 0 0 1-1 0m3-1.4a1.86 1.86 0 0 1-.2-1v-.1a1.58 1.58 0 0 0-2.1-.1 1.65 1.65 0 0 0-.4 2.1 2.35 2.35 0 0 1 .8.2 7 7 0 0 1 .9-.6 4.66 4.66 0 0 1 1-.5" transform="translate(-123.02 -10.4)"/><path class="cls-2" d="M133.12 40.5a1.75 1.75 0 0 0-1 .1s.1.3.9.5c.5.1.7.1.9 0s.2-.1.1-.2a.1.1 0 0 0-.1-.1 1.33 1.33 0 0 0-.8-.3m4.4 2.2a6.15 6.15 0 0 0-1.3.1 10.87 10.87 0 0 0-1.4.5 2.18 2.18 0 0 1-.3.5l-.1.1a2.24 2.24 0 0 0 1.9.8c1.2-.2 1.6-1 1.6-1.2l-.1-.1a4.87 4.87 0 0 0-.3-.7m1.48-2.4c-.1.1-.2.1-.3.2a3.09 3.09 0 0 1-.8.2c-.1.2-.1.5-.2.8a2.77 2.77 0 0 0 .1.9 3.8 3.8 0 0 1 .5.6.1.1 0 0 0 .1.1c.1.1.1.1.1.2a1.33 1.33 0 0 0 1.4-1.3 1.61 1.61 0 0 0-.9-1.7m-.18-.3a1.78 1.78 0 0 0-.9-2 1.55 1.55 0 0 0-1.8.3v1.2a3.78 3.78 0 0 0 .8.5 2.3 2.3 0 0 0 .9.3 1.42 1.42 0 0 1 .6-.2c.2 0 .3 0 .4-.1" transform="translate(-123.02 -10.4)"/><path class="cls-2" d="M136.22 38.6v-.2a.74.74 0 0 0-.3-.5s-.2.1-.2.7v.1a2.15 2.15 0 0 0 .2 1 .1.1 0 0 0 .1.1c.1 0 .1-.1.1-.2a1.64 1.64 0 0 0 .1-1m2.78 1.7c.3-.2.6-.3.6-.4a2.64 2.64 0 0 0-.7.1c-.1 0-.2.1-.3.1s-.5.1-.6.2-.3.2-.2.3.1.1.2.1a3.09 3.09 0 0 0 .8-.2c-.1 0 0-.1.2-.2m-.68 2.7a3.8 3.8 0 0 0-.5-.6c-.1 0-.1-.1-.2-.1h-.2v.2c0 .1 0 .1.1.2s.3.4.5.7l.1.1.1.1a.93.93 0 0 0 .6.3 1 1 0 0 0-.2-.5 4 4 0 0 1-.3-.4m-1.5-2a.78.78 0 0 1-.7.9.89.89 0 0 1-1.1-.5.78.78 0 0 1 .7-.9.89.89 0 0 1 1.1.5m52.6 2.3c0-.1.1-.3 0-.3s-.1-.1-.2 0-.3.3-.5.7c0 .1 0 .1-.1.2a4.53 4.53 0 0 0-.1.8l.6-.6.1-.1a1 1 0 0 1 .2-.7" transform="translate(-123.02 -10.4)"/><path class="cls-2" d="M187.52 41a1.3 1.3 0 0 0-.5 1.6 1.81 1.81 0 0 0 1.7 1.1c0-.1 0-.1.1-.2a1.28 1.28 0 0 1 .5-.7 2.39 2.39 0 0 0-.2-.9 2.84 2.84 0 0 0-.6-.9 1.16 1.16 0 0 1-1 0m2.9-1.4a1.86 1.86 0 0 1-.2-1v-.1a1.58 1.58 0 0 0-2.1-.1 1.65 1.65 0 0 0-.4 2.1 2.35 2.35 0 0 1 .8.2 7 7 0 0 1 .9-.6 4.66 4.66 0 0 1 1-.5" transform="translate(-123.02 -10.4)"/><path class="cls-2" d="M187.62 40.5a1.75 1.75 0 0 0-1 .1s.1.3.9.5c.5.1.7.1.9 0s.2-.1.1-.2a.1.1 0 0 0-.1-.1c-.1-.2-.6-.3-.8-.3m4.38 2.2a6.15 6.15 0 0 0-1.3.1 10.87 10.87 0 0 0-1.4.5 2.18 2.18 0 0 1-.3.5l-.1.1a2.24 2.24 0 0 0 1.9.8c1.2-.2 1.6-1 1.6-1.2l-.1-.1a1.49 1.49 0 0 0-.3-.7m1.52-2.4c-.1.1-.2.1-.3.2a3.09 3.09 0 0 1-.8.2c-.1.2-.1.5-.2.8a2.77 2.77 0 0 0 .1.9 3.8 3.8 0 0 1 .5.6.1.1 0 0 0 .1.1c.1.1.1.1.1.2a1.33 1.33 0 0 0 1.4-1.3 1.5 1.5 0 0 0-.9-1.7m-.2-.3a1.78 1.78 0 0 0-.9-2 1.55 1.55 0 0 0-1.8.3v1.2a3.78 3.78 0 0 0 .8.5 2.3 2.3 0 0 0 .9.3 1.42 1.42 0 0 1 .6-.2c.2 0 .3 0 .4-.1" transform="translate(-123.02 -10.4)"/><path class="cls-2" d="M190.72 38.6v-.2a.74.74 0 0 0-.3-.5s-.2.1-.2.7v.1a2.15 2.15 0 0 0 .2 1 .1.1 0 0 0 .1.1c.1 0 .1-.1.1-.2a1.15 1.15 0 0 0 .1-1m2.8 1.7c.3-.2.6-.3.6-.4a2.64 2.64 0 0 0-.7.1c-.1 0-.2.1-.3.1s-.5.1-.6.2-.3.2-.2.3.1.1.2.1a3.09 3.09 0 0 0 .8-.2c-.1 0 0-.1.2-.2m-.7 2.7a3.8 3.8 0 0 0-.5-.6c-.1 0-.1-.1-.2-.1h-.2v.2c0 .1 0 .1.1.2s.3.4.5.7l.1.1.1.1a.93.93 0 0 0 .6.3 1 1 0 0 0-.2-.5 1.38 1.38 0 0 0-.3-.4m-1.5-2a.78.78 0 0 1-.7.9.89.89 0 0 1-1.1-.5.78.78 0 0 1 .7-.9.89.89 0 0 1 1.1.5m-29.2 73.2c0-.1.1-.3 0-.3s-.1-.1-.2 0-.3.3-.5.7c0 .1 0 .1-.1.2a4.53 4.53 0 0 0-.1.8l.6-.6.1-.1a1.45 1.45 0 0 1 .2-.7" transform="translate(-123.02 -10.4)"/><path class="cls-2" d="M160.22 111.9a1.3 1.3 0 0 0-.5 1.6 1.81 1.81 0 0 0 1.7 1.1c0-.1 0-.1.1-.2a1.28 1.28 0 0 1 .5-.7 2.39 2.39 0 0 0-.2-.9 2.84 2.84 0 0 0-.6-.9 1.16 1.16 0 0 1-1 0m2.9-1.4a1.86 1.86 0 0 1-.2-1v-.1a1.58 1.58 0 0 0-2.1-.1 1.65 1.65 0 0 0-.4 2.1 2.35 2.35 0 0 1 .8.2 7 7 0 0 1 .9-.6 4.67 4.67 0 0 1 1-.5" transform="translate(-123.02 -10.4)"/><path class="cls-2" d="M160.32 111.4a1.75 1.75 0 0 0-1 .1s.1.3.9.5c.5.1.7.1.9 0s.2-.1.1-.2a.1.1 0 0 0-.1-.1c-.1-.2-.5-.3-.8-.3m4.4 2.2a6.15 6.15 0 0 0-1.3.1 10.87 10.87 0 0 0-1.4.5 2.18 2.18 0 0 1-.3.5l-.1.1a2.24 2.24 0 0 0 1.9.8c1.2-.2 1.6-1 1.6-1.2l-.1-.1a1.49 1.49 0 0 0-.3-.7m1.5-2.3c-.1.1-.2.1-.3.2a3.09 3.09 0 0 1-.8.2c-.1.2-.1.5-.2.8a2.77 2.77 0 0 0 .1.9 3.8 3.8 0 0 1 .5.6.1.1 0 0 0 .1.1c.1.1.1.1.1.2a1.33 1.33 0 0 0 1.4-1.3c.2-1.4-.7-1.7-.9-1.7m-.22-.4a1.78 1.78 0 0 0-.9-2 1.55 1.55 0 0 0-1.8.3v1.2a3.78 3.78 0 0 0 .8.5 2.3 2.3 0 0 0 .9.3 1.42 1.42 0 0 1 .6-.2c.2 0 .3 0 .4-.1" transform="translate(-123.02 -10.4)"/><path class="cls-2" d="M163.42 109.5v-.2a.74.74 0 0 0-.3-.5s-.2.1-.2.7v.1a2.15 2.15 0 0 0 .2 1 .1.1 0 0 0 .1.1c.1 0 .1-.1.1-.2a1.15 1.15 0 0 0 .1-1m2.8 1.8c.3-.2.6-.3.6-.4a2.64 2.64 0 0 0-.7.1c-.1 0-.2.1-.3.1s-.5.1-.6.2-.3.2-.2.3.1.1.2.1a3.09 3.09 0 0 0 .8-.2c-.1-.1.1-.2.2-.2m-.7 2.6a3.8 3.8 0 0 0-.5-.6c-.1 0-.1-.1-.2-.1h-.2v.2c0 .1 0 .1.1.2s.3.4.5.7l.1.1.1.1a.93.93 0 0 0 .6.3 1 1 0 0 0-.2-.5 1.38 1.38 0 0 0-.3-.4m-1.52-2a.78.78 0 0 1-.7.9.89.89 0 0 1-1.1-.5.78.78 0 0 1 .7-.9 1 1 0 0 1 1.1.5" transform="translate(-123.02 -10.4)"/><path class="cls-2" d="M186.32 96.2s1.1-1.5-2.7-3c-2.8-1.1-6.5-.9-9-1.2-2-.3-2.2-.7-2.1-1.2.2-1.1 2.1-.4 3.3.2a4.63 4.63 0 0 0 5.2-.6 4 4 0 0 1 1.4-.7 1.91 1.91 0 0 0-1.8-.1 2 2 0 0 1-1.3.5c-1.2.1-1.4-.3-1.4-.3s.6.4 2.1-.4c1.9-1 .8-3.1.8-3.1a1.41 1.41 0 0 1-.7 1.3 2.07 2.07 0 0 1-2.1.1 1.62 1.62 0 0 0 1.1 0c.8-.3 1.1-.8.8-1.3a2.25 2.25 0 0 0-.5-.5s.9 1.2-2.7 1a2.55 2.55 0 0 0-2.5 1.7 3.08 3.08 0 0 0-1.4 0 2.15 2.15 0 0 0-.2-1.1 3.87 3.87 0 0 1-1.3 2 2.24 2.24 0 0 0-.2 2.8c.9 1.1 2.6 1.2 3.6 1.3 1.6.1 4.1.3 6.4.6 3.1.4 2.5 1.9 2.2 2.4s-1.1.5-3.3-.3-4.4-2.1-8.8-1.9c-6.2.2-10.6 4.8-12.8 4.5a5.53 5.53 0 0 1 .1.9 3.48 3.48 0 0 1-1.6 2.4s-.1-.3-.2-.3 0 .3-.5.7a2.55 2.55 0 0 0-.9 1.5s-.3-.5-.4-.1a.93.93 0 0 1-.7.7s0-.3-.1-.3-.3 1.2-2.4 1h-.2c-1.6.3-1.9-1.3-2.4-1.8s-.8.3-.8.3a1.31 1.31 0 0 1-.3-.9c0-.6.2-.8-.1-1.3a2.4 2.4 0 0 1-.7-2.2c-.4 0-1.1-.3-1.4-2.5 0-.2.3 0 .3 0-.1-.3-.4-.5-.4-.9-.1-.6-.2-1.7.2-2.1.5-.6 1.8-.8 1.2-2 0 .1-.1.2-.2.3a.37.37 0 0 1-.3.1.43.43 0 0 1-.4-.4.76.76 0 0 1 .2-.4c-.2 0-.4.1-.6.1 0-.3.5-1.6-.7-1.9a.75.75 0 0 1-.1.5.22.22 0 0 1-.2.2c-.2.1-.4 0-.5-.3a.6.6 0 0 1 .1-.4c0-.1 0-.1.1-.2-1.1.1-.9 1.6-.9 1.8 0-.3-.7-1.2-1.3-.8l-.1.1c.1.1.2.1.2.2a.37.37 0 0 1 .1.3c-.1.2-.3.4-.5.3s-.2-.1-.3-.3c-.2.3-.2.8.4 1.3.9.7 1.2 3.5 1.1 3.8-.2.5-.7-.2-.7-.2a1.88 1.88 0 0 0 .4 1.3c.8 1.2 1.1 1.7.5 1.5l-.4-.2a1.68 1.68 0 0 0 .8 1.2c.3.2.3.4 0 .3a.7.7 0 0 1-.4-.2 4.43 4.43 0 0 0 .6 1 5.53 5.53 0 0 0 1.2 1.2 5.09 5.09 0 0 1-1.7-.7c-1.5-.9-.9-1.5-1.3-2.6s-.7-1.2-1.2-1.2c0 .1.1.1.1.2a.37.37 0 0 1-.1.3c-.1.2-.4.2-.6.1s-.1-.2-.2-.4c-.4.2-.4.7-.4.9-.3-.3-.8-.8-1.2-.8a1.34 1.34 0 0 0-.8.2.1.1 0 0 1 .1.1c.1.1.2.2.2.3a.43.43 0 0 1-.4.4.76.76 0 0 1-.4-.2h-.1c-.3.5-.2 1.4 1.4 1.9 0 0-.8.1-1 .7a.75.75 0 0 1 .5.1c.1 0 .2.1.2.3s-.1.4-.3.5a.6.6 0 0 1-.4-.1h-.1c.2.8.8.9 1.4.9a9.34 9.34 0 0 1 4.2 1.1 1.08 1.08 0 0 0-.8.4c-.3.4-.2.6-.2.6a1.55 1.55 0 0 1 .8-.3c.6-.1.7.1.7.1a1 1 0 0 0-.6 1.3 3.07 3.07 0 0 1 .9-.6 1 1 0 0 1 1.2.2c.3.4-1 .8-1 .8a6.25 6.25 0 0 0 2.8.3s-1.3.2-1.3 1.1a2.76 2.76 0 0 1 2.5 0 11.81 11.81 0 0 0 9.4-.2c5-2 5.1-6.3 12-8.6a10 10 0 0 0 3.7 2.5 25.67 25.67 0 0 0 4.5 1.1c1 .2 2.7.6 1.7 2.5a4.11 4.11 0 0 1-1.4 1.5c-.1 0-.6-.2-1.3-.4-.4-.2-.8-.1-.9.2a.37.37 0 0 1 .3.1.22.22 0 0 1 .2.2.37.37 0 0 1-.2.5.76.76 0 0 1-.4-.1.75.75 0 0 0 .5.6.81.81 0 0 0-.5.7c.1 0 .2-.1.3-.1a.37.37 0 0 1 .3.1c.1.1.2.4 0 .5s-.2.1-.4.1c.3.4 1.2.1 1.2.1a.81.81 0 0 0 .1.8.76.76 0 0 1 .2-.4.37.37 0 0 1 .3-.1.43.43 0 0 1 .4.4c0 .1-.1.2-.2.3v.1h.2a2 2 0 0 0 1.3-1.4c.3-1.1.7-1.3.7-1.3s.9-.8.6.7a1.1 1.1 0 0 0 .8-1.2s.7.3.9.2 0-.9.4-1.4.6.1.5.5a1.11 1.11 0 0 0 .6-.9c0-.5-.2-1 .3-1.4.3-.3.4.1.3.5 0 0 .4 0 .5-.7 0-.4-.1-.6.1-.6s.3.4.3.4a1.13 1.13 0 0 0-.4-1.4c-1.3-.8-4.6-.3-6.6-3.4-.7-1.1-.2-1.7-.2-1.7s3.5 1.7 5.4 1.4c2.3-.3 2.3-1.6 2.3-1.6s.4.1.1.8a1 1 0 0 0 .6-.7 1.91 1.91 0 0 0-.4-1.8c.1.1.1.7.1.7" transform="translate(-123.02 -10.4)"/><path class="cls-2" d="M137.82 102.3a.55.55 0 0 0 .3-.5.22.22 0 0 0-.2-.2.75.75 0 0 0-.5-.1h-.1a1.17 1.17 0 0 0-1 .9 1.13 1.13 0 0 1 1.1-.2h.1c.1.1.2.2.3.1m-.4-3.2a.43.43 0 0 0 .4-.4c0-.1-.1-.2-.2-.3l-.1-.1c-.1-.1-.3-.1-.5-.2a1.28 1.28 0 0 0-1.2.6 1.05 1.05 0 0 1 1.1.1h.1a.37.37 0 0 0 .4.3m2.7-.6a.47.47 0 0 0 .6-.1.37.37 0 0 0 .1-.3c0-.1 0-.1-.1-.2s-.1-.2-.2-.3a1.5 1.5 0 0 0-1.3-.4 1.12 1.12 0 0 1 .7.9c.1.2.1.3.2.4m6-6.4a.43.43 0 0 0 .4.4.37.37 0 0 0 .3-.1c.1-.1.2-.2.2-.3s.1-.1.1-.2a1 1 0 0 0-.5-1.2 1.25 1.25 0 0 1-.2 1.1.27.27 0 0 0-.3.3m-1.8-1.7a.55.55 0 0 0 .5.3c.1 0 .2-.1.3-.2s.1-.4.1-.5v-.1a1.17 1.17 0 0 0-.9-1 1.38 1.38 0 0 1 .2 1c0 .1 0 .1-.1.2s-.2.1-.1.3m-2.4 1.3c.2.1.4-.1.5-.3a.37.37 0 0 0-.1-.3c-.1-.1-.1-.2-.2-.2s-.2-.1-.3-.2a1.07 1.07 0 0 0-1.3.3 1.12 1.12 0 0 1 1 .4 1.38 1.38 0 0 1 .4.3M176 107.4a.37.37 0 0 0 .2-.5.22.22 0 0 0-.2-.2c-.1 0-.2-.1-.3-.1h-.2a1.23 1.23 0 0 0-.9.8 1 1 0 0 1 1-.2c.1.2.2.3.4.2m.12 1.3a.5.5 0 0 0-.6 0 .35.35 0 0 0-.2.1 1.16 1.16 0 0 0-.4 1.1 1.07 1.07 0 0 1 .8-.6c.2 0 .3 0 .4-.1s.2-.4 0-.5m1.8 1.4a.43.43 0 0 0-.4-.4c-.1 0-.2.1-.3.1a.52.52 0 0 0-.2.4v.1a1.17 1.17 0 0 0 .5 1.1 1 1 0 0 1 .1-.9v-.1q.3-.15.3-.3m-1.7-6.8c-4-.8-4.8-1.3-6.5-2.8-.2.1-.8 1.2.9 2.8a4.35 4.35 0 0 0 1.3.8 13 13 0 0 0-2.7-.1c-.7-.2-1.2-1.1-2.2-1.5a1.1 1.1 0 0 0-.8 0c.1 0 .2.1.3.2a.37.37 0 0 1 .1.3.43.43 0 0 1-.4.4c-.1 0-.2-.1-.3-.2l-.1-.1a.86.86 0 0 0 .3.9 1 1 0 0 0-1 .7.6.6 0 0 1 .4-.1.37.37 0 0 1 .3.1.45.45 0 0 1 0 .5c-.1.1-.2.1-.4.1h-.2v.1c.3.9 1.7.2 1.7.2s-.7.5-.3 1.1a.22.22 0 0 1 .2-.2.37.37 0 0 1 .3-.1.43.43 0 0 1 .4.4c0 .1-.1.2-.2.3l-.1.1c.9.4 1.7-1.1 1.7-1.1a1.36 1.36 0 0 0 .8 1.3.7.7 0 0 1 .3-.7 2.34 2.34 0 0 1 1.3-.2c-.1.5.1.8.4.9.1-1.1 2.1-1.1 2.1-1.1.1.4.6.6.6.6a1.24 1.24 0 0 1 .4-.9c.5-.3 1.2-.4 2-.8.9-.7.7-1.7-.6-1.9" transform="translate(-123.02 -10.4)"/><path class="cls-2" d="M167.52 106.8a.43.43 0 0 0-.4-.4c-.1 0-.2.1-.3.1s-.1.2-.2.2a.35.35 0 0 1-.1.2 1.17 1.17 0 0 0 .5 1.1 1 1 0 0 1 .1-.9l.1-.1c.2 0 .3-.1.3-.2m-1.6-1.5a.28.28 0 0 0 0-.5.37.37 0 0 0-.3-.1.6.6 0 0 0-.4.1.1.1 0 0 0-.1.1 1 1 0 0 0-.5 1.1 1 1 0 0 1 .7-.5h.2c.2-.1.3-.1.4-.2m.4-1.9a.43.43 0 0 0 .4-.4.37.37 0 0 0-.1-.3c-.1-.1-.2-.1-.3-.2s-.1-.1-.2-.1a.94.94 0 0 0-1.1.5.87.87 0 0 1 .9.2.1.1 0 0 1 .1.1c.1.1.2.2.3.2m-7.4-7.9c.2-1.4-.8-1.3-.8-1.3a1.45 1.45 0 0 0 .5-.8 4.26 4.26 0 0 0-.3-2.1s-.5 1-1.2.3a1.61 1.61 0 0 0 .3-1.3c-.1.3-2.1 1.8-2.7-1-1.1.3-1 1.4-1.7 1.3-.4 0-.7-.3-.5-1.1a1.4 1.4 0 0 0-1.2 1.1c-.2 1.3-.8-.4-1.7-.4a2.9 2.9 0 0 0-.6 2.2c-.8 0-1.1.7-1.2 1.6-.2 2.8-1 1.9-1 1.9.3 1.7 1.2.8 1.2.8-.2 1.2-1.3.6-1.3.6.3 1.8 1.1 1.2 1.1 1.2a2 2 0 0 0 .4 2.2 1.18 1.18 0 0 1 .3 1.2 6 6 0 0 0-.1.8s.5-.5.8-.1c.5.5.8 2.2 2 2 0 0-.1-.7.1-.7s.3.6.3.6c.3 0 1.2.2 1.7-.5.3-.4.4-.9.7-.9s.3.5.3.5c.2-.1.3-.2.3-.8s.4 0 .4 0a1.64 1.64 0 0 1 .8-1.2c.6-.4.4-1.3.7-1.6s.4.8.4.8a2.44 2.44 0 0 0 .8-2.5c-.2-.7-.4-1.3-.2-1.4s.2.6.6.9.9-.1.9-.1c-.3-.3-.2-1.5-.1-2.2m-8.5-1l.8.2c-.1 0-.1.1-.1.2a.45.45 0 1 0 .8.4c0-.1.1-.2 0-.3a.86.86 0 0 1 .5.8 2.47 2.47 0 0 1-.4 1.1s-.3-.1-.1-.5.1-.5.1-.5a1.59 1.59 0 0 1-.9-.1 1.6 1.6 0 0 1-.7-1.3m3.3 5.4c-.6.5-.5 1.2-.6 1.7a1.07 1.07 0 0 1-1.3.8 1.27 1.27 0 0 1-1.1-1c0-.6 1-1.5.3-2.3s-.5-1-.5-1a1.11 1.11 0 0 0 .5.4c.1.1 1.2.6 1.4-.3.1-.2-.1-.3-.2-.4s-.2-.1-.3-.2a.28.28 0 0 1 0-.4 1.45 1.45 0 0 0 .8.5 1.6 1.6 0 0 0 1-.2s.1.4-.3.4c-.2 0-.6 0-.6.3-.1 1 1.3.8 1.7.7a1.75 1.75 0 0 1 .5-.1c-.3.6-.8.6-1.3 1.1m2.5-4.4c-.1.1-.4.9-1.1.9a1.67 1.67 0 0 1-.9-.3s-.1 0-.1.5a.5.5 0 0 1-.3.5 2.33 2.33 0 0 1 .1-1.1.87.87 0 0 1 .8-.6.37.37 0 0 0-.1.3c0 .3.2.4.5.4s.5-.2.4-.5c0-.1 0-.1-.1-.2l.8.1z" transform="translate(-123.02 -10.4)"/><path class="cls-2" d="M151.62 102c1.2.3 1.2-.9 1.2-1.2a1.45 1.45 0 0 1 1.1-1.5c-.4.1-1.2.1-1.5-.4a1.45 1.45 0 0 1-1.3 0 .91.91 0 0 1 .3.5 1.73 1.73 0 0 1-.1 1c0 .3-.7 1.3.3 1.6m31.6-21.1c-9.6-.3-12.1-3.1-12.1-3.1s-1.1 1.8 3.3 3.8l-2.3-.3c-1 0-2 .1-2 .1a8.06 8.06 0 0 0-1.9-1.3 1.17 1.17 0 0 0-1 0c.1 0 .2.1.3.2a.37.37 0 0 1 .1.3.43.43 0 0 1-.4.4.76.76 0 0 1-.4-.2l-.1-.1a.83.83 0 0 0 .4 1c-1.1.2-1.4.5-1.5 1.1.1-.1.2-.1.4-.1a.37.37 0 0 1 .3.1.38.38 0 0 1 0 .6c-.1.1-.2.1-.4.1h-.1c.2.4.7.6 1.4.4a1.09 1.09 0 0 0 .4-.2 1.74 1.74 0 0 0-.4 1.4c.1-.1.1-.2.2-.2a.37.37 0 0 1 .3-.1.35.35 0 0 1 .3.5q0 .15-.3.3l-.1.1c.1 0 .2.1.3.1.6.2 1.1-.3 1.6-.9a1.61 1.61 0 0 1 1.7-.7.83.83 0 0 0 0 1.2s.5-1.1 1.2-.8a.85.85 0 0 0 .5 1s.4-1.1.9-1.1c.7 0 .3 1 .3 1s.4 0 1-.6c.4-.4.7-.8 1.5-.7a1.45 1.45 0 0 0 .8 1.2c0-2.5 3.6-2.9 4.2-3 1.7-.1 1.6-1.5 1.6-1.5" transform="translate(-123.02 -10.4)"/><path class="cls-2" d="M167.22 81.1a.43.43 0 0 0 .4-.4c0-.1-.1-.2-.1-.3s-.2-.1-.3-.2a.35.35 0 0 1-.2-.1 1.25 1.25 0 0 0-1.2.5 1.21 1.21 0 0 1 1 .1l.1.1a.27.27 0 0 0 .3.3m-.9 2.4a.38.38 0 0 0 0-.6.37.37 0 0 0-.3-.1.76.76 0 0 0-.4.1c-.1 0-.1.1-.2.1a1.16 1.16 0 0 0-.5 1.2 1.07 1.07 0 0 1 .8-.6h.1a.75.75 0 0 0 .5-.1m1.8 1.9a.55.55 0 0 0-.3-.5.37.37 0 0 0-.3.1c-.1.1-.2.1-.2.2a.31.31 0 0 0-.1.2 1.23 1.23 0 0 0 .3 1.3 1.31 1.31 0 0 1 .3-1l.1-.1a.22.22 0 0 0 .2-.2m-18.4-7.8c1.3.5 1.5-.9 1.5-1.2a1.75 1.75 0 0 1 1.4-1.6 1.83 1.83 0 0 1-1.7-.6 2 2 0 0 1-1.5-.1 1.1 1.1 0 0 1 .3.6 2 2 0 0 1-.2 1.1c-.1.3-1 1.4.2 1.8" transform="translate(-123.02 -10.4)"/><path class="cls-2" d="M158.62 69a5.68 5.68 0 0 0-.1-2.8s-.8 1.3-1.5.6 0-1.6 0-1.6c-.8-.3-1.4.8-2.4.3-.7-.4.1-1.6.1-1.6a4.74 4.74 0 0 0-1.6.3c-.7.3-1 .6-1.4.6-.6 0-.4-1.1-.4-1.1a1.42 1.42 0 0 0-1.2.8 2.75 2.75 0 0 1-.9 1c-.2-.3-.7-.3-1-.4a1.36 1.36 0 0 1-.6-.3 4.22 4.22 0 0 0-.4 2.5c-.5.1-.7.7-.8 1-.6 2.3-1.6 1.2-1.6 1.3.2 2 1.3 1.9 1.2 2.4s-1.2-.2-1.2-.2c0 1.4.7 1.5.9 2.3s-.2 1.2.1 2.3.1 1.6.1 1.6a2 2 0 0 0 1.3-.5 2.65 2.65 0 0 0 .5 2.2s.4-.9.6-.3a4.49 4.49 0 0 0 1.3 2.2s.7 0 2-1.4c.9-.9.5.3.5.3s.6.1 1.9-2.3c.4-.8 1.1-1.2 1.4 0a4.6 4.6 0 0 0 1-4c0-.5.3-.6.3-.4.1 1.5 1.7 1 1.7 1s-.6-.6 0-2.9a3.33 3.33 0 0 0-.3-2.2 6.81 6.81 0 0 0 .5-.7m-9.7-.1v-.1h.1l.8.4c-.1 0-.1.1-.2.2a.51.51 0 1 0 .9.5.37.37 0 0 0 .1-.3 1 1 0 0 1 .5 1 3.63 3.63 0 0 1-.5 1.2.45.45 0 0 1-.1-.6c.2-.6.1-.6.1-.6a1.8 1.8 0 0 1-1.1-.2 2.06 2.06 0 0 1-.6-1.5m3.3 6.5c-.7.5-.6 1.3-.8 1.9a1.23 1.23 0 0 1-1.6.8 1.28 1.28 0 0 1-1.1-1.2c0-.7 1.3-1.6.6-2.6-.6-.8-.5-1.1-.5-1.1l.5.5c.1.1 1.3.8 1.6-.2.1-.2-.1-.4-.2-.5s-.2-.1-.3-.2 0-.5 0-.5a1.39 1.39 0 0 0 .9.6 2.26 2.26 0 0 0 1.1-.1s.1.4-.4.5c-.3 0-.7 0-.7.3-.2 1.1 1.4 1 1.8.9a1.45 1.45 0 0 0 .6-.1c-.3.5-.9.5-1.5 1m3.3-4.7a1.79 1.79 0 0 1-1.3 1h-.1a1.91 1.91 0 0 1-1-.4s-.1 0-.2.6-.4.5-.4.5a4.76 4.76 0 0 1 .2-1.3.87.87 0 0 1 .9-.6.37.37 0 0 0-.1.3.5.5 0 1 0 1 0c0-.1 0-.2-.1-.2l1.1.1z" transform="translate(-123.02 -10.4)"/><path class="cls-2" d="M194.62 79.9s.1-1.4-.9-1.7c-1.3-.5-3 .1-6.3-.2-8.1-.8-7.1-3.7-7.1-3.7s5.1 2.3 7.3 1.2a1.72 1.72 0 0 0 1.1-1.6c.3.4 0 1.2 0 1.2s2.1-1.5-.4-3.9a7.73 7.73 0 0 0-3.8-1.7c-3.6-.5-4.9-.3-7.5-.6-2.1-.3-2.6-1-2.5-1.6.3-1.7 4.2.7 6.4-.2a7.93 7.93 0 0 1 1.6-.8 2.89 2.89 0 0 1 1 0s-.5-.9-2.2-.6c-1.4.3-1.5-.2-1.5-.2a2.53 2.53 0 0 0 1.5-.4c.5-.3.7-1 1.3-1.2a2 2 0 0 1 1.4 0 2 2 0 0 0-2.7-.7c-1.2.8-1.7.2-1.7.2a1.78 1.78 0 0 0 1.5-1 2.4 2.4 0 0 1 1-1.1 1.66 1.66 0 0 0-1.7.3c-.5.5-1.2.6-2.5.6-1.6 0-2.2 1.9-2.2 1.9a3 3 0 0 0-1.2.3 3.22 3.22 0 0 0-1 .8l.2-.6a2.6 2.6 0 0 0-1.2 2.4c-.1 3.1 3.3 3.3 4.4 3.4 1.6.1 4.7.2 7.1.5 3.2.4 3.3 1.9 2.9 2.6s-1.8.4-4-.4-4.1-2.1-8.6-1.9c-7.1.2-14.7 5.3-16.9 4a4.54 4.54 0 0 1-2 4c-.1-1.3-.5-1.1-.9-.3-1.2 2.2-2.4 2.4-2.4 2.4s.2-.7-.6 0a3.43 3.43 0 0 1-1.7.8 4 4 0 0 1-1.4-2.1c0-.2-.2.4-.2.4a2.88 2.88 0 0 1-1.2-2 2.23 2.23 0 0 1-1.5.1s.6-.6-.1-2.3c-1.3 0-6.5-.9-7.1-3.6-.2-1-.5-1.5-1.2-1.5.1.1.1.1.1.2s.1.2 0 .4a.6.6 0 0 1-.6.3 1.38 1.38 0 0 1-.3-.4.1.1 0 0 0-.1-.1 1.28 1.28 0 0 0-.3 1.2c-.6-.5-1.8-1.3-2.5-.8.1.1.3.1.3.2s.2.2.2.3a.47.47 0 0 1-.5.5.52.52 0 0 1-.4-.2c-.1-.1-.1-.1-.2-.1-.6 1 1.4 2.1 1.4 2.1-.8 0-1.9.6-1.8 1.2a.5.5 0 0 1 .6 0 .38.38 0 0 1 0 .6c-.1.1-.3.1-.4.2h-.1c.2.4.6.7 1.5.4a7.48 7.48 0 0 1 4-.2s-.1.8-1.1.6c-.1 0 .4.6 1.4.6a4.07 4.07 0 0 0 2-.5s.1.3-.3.5a.81.81 0 0 0-.3 1.2 1 1 0 0 1 1.2-.6.92.92 0 0 0 .1 1.1s.1-.5.9-.8a2.26 2.26 0 0 1 1.1.1 1.28 1.28 0 0 0 .1 1.5s.2-1.1 1-.8a.42.42 0 0 1 .2.6 1.46 1.46 0 0 1-.5.3c1.2.6 1.5-.4 2.5.5a8.06 8.06 0 0 1-4.1.6c-2.9-.3-3.5-.8-4.2-1.5a2.38 2.38 0 0 0-2.1-.9c.1 0 .1.1.2.1s.2.2.2.3a.47.47 0 0 1-.5.5.52.52 0 0 1-.4-.2l-.1-.1c-.3.5.2.8.4 1a4.33 4.33 0 0 1-.5-.1 1.09 1.09 0 0 0-1.3.6h.5c.1 0 .2.1.3.2a.48.48 0 0 1-.2.6c-.2.1-.3 0-.5 0h-.2c.2.8 1.1.9 1.8.9-.3.2-.7.5-.6 1 .1-.1.2-.2.3-.2h.3a.48.48 0 0 1 .2.6.52.52 0 0 1-.4.2.1.1 0 0 0-.1.1c.6.6 2-.2 2.3-.4a2.74 2.74 0 0 1 2.6-.2c1 .5-.4.9-.4.9.3.3.9.1 1.2 0s.6-.4.8-.2 0 .4-.2.6a.62.62 0 0 1-.4.2 2.61 2.61 0 0 0 2.5-.7.69.69 0 0 1 0 .5 1.38 1.38 0 0 1-.7.7c1.4.4 2.1-1.2 2.1-1.2s.7.5-.2 1.2c1.2 0 1.3-.9 1.9-.5.3.2.2.7-.3.8 1.3.5 1.2-.7 2.8-.5a14.9 14.9 0 0 0 8.8-.8c6.1-2.3 6.7-7.7 13.4-8.5 0 0 .6 1.2 5.1 2.4 4.8 1.3 12.3.3 12 2.6-.2 1.2-3.5-.5-3.9.7v.1h.4c.1 0 .2.1.3.2a.47.47 0 0 1-.1.6.3.3 0 0 1-.4 0h-.1a.67.67 0 0 0 .7.4 1.11 1.11 0 0 0-.7.9v.1a.31.31 0 0 1 .2-.1h.3a.37.37 0 0 1 .2.5.52.52 0 0 1-.4.2 1 1 0 0 0 .9.2 1 1 0 0 0 .6-.3 1.5 1.5 0 0 0-.2 1c0 .1.1.2.2.3 0-.1.1-.3.1-.4s.2-.2.3-.2a.55.55 0 0 1 .5.3.76.76 0 0 1-.2.4v.1c.8 0 1.6-1.1 1.8-2.1.2-1.3.6-1.1.6-1.1a.68.68 0 0 0 .7.7c0-.9.6-1.1.9-.9s.1.8.1.8.4.2.9-.7c.3-.5.3-1.1.6-1.1.5 0 .3.6.3.6 1.1-.6.4-2.3.8-2.5s.2.5.2.5a1 1 0 0 0 .5-1.1c-.7-.9-.1 0-.1 0" transform="translate(-123.02 -10.4)"/><path class="cls-2" d="M133 76.4a.45.45 0 0 0 0-.6.5.5 0 0 0-.6 0 .35.35 0 0 0-.2.1 1.2 1.2 0 0 0-.4 1.4 1.12 1.12 0 0 1 .9-.7h.1c-.1 0 .1 0 .2-.2m.32-3.5a.47.47 0 0 0 .5-.5c0-.1-.1-.3-.2-.3s-.2-.2-.3-.2-.2-.1-.3-.1a1.55 1.55 0 0 0-1.4.6 1.43 1.43 0 0 1 1.1.1c.1 0 .1.1.2.1.2.2.3.3.4.3m3.2-1a.45.45 0 0 0 .6-.3v-.4c0-.1-.1-.1-.1-.2l-.3-.3a1.11 1.11 0 0 0-1.4.1 1.12 1.12 0 0 1 .9.5l.1.1c0 .3.1.5.2.5m-1 12.8c.1-.2 0-.4-.2-.6a.19.19 0 0 0-.3 0c-.1 0-.2.1-.3.2a.1.1 0 0 0-.1.1 1.23 1.23 0 0 0-.1 1.3 1.32 1.32 0 0 1 .6-.8.1.1 0 0 0 .1-.1.37.37 0 0 0 .3-.1m.1-4.3a.47.47 0 0 0 .5-.5c0-.1-.1-.3-.2-.3a.35.35 0 0 0-.2-.1c-.1-.1-.3-.1-.5-.2a1.55 1.55 0 0 0-1.4.6 1.47 1.47 0 0 1 1.2.2l.1.1c.2.1.3.2.5.2m-1.5 2a.48.48 0 0 0 .2-.6c-.1-.1-.2-.2-.3-.2a.45.45 0 0 0-.5 0h-.2a1.33 1.33 0 0 0-1 1.2 1.24 1.24 0 0 1 1.1-.4h.2a.45.45 0 0 0 .5 0m50.88.9c.2-.1.2-.4.1-.6s-.2-.2-.3-.2h-.4c-.1 0-.1 0-.2.1a1.32 1.32 0 0 0-.8 1.1 1 1 0 0 1 1-.4h.1c.2 0 .3.1.5 0m.22 1.9a.37.37 0 0 0-.2-.5.19.19 0 0 0-.3 0 .35.35 0 0 0-.2.1c-.1.1-.2.1-.2.2a1.23 1.23 0 0 0-.1 1.3 1.41 1.41 0 0 1 .6-.9c.2 0 .4-.1.4-.2m2 1.3a.35.35 0 0 0-.5-.3c-.1 0-.2.1-.3.2s-.1.2-.1.4v.2a1.06 1.06 0 0 0 .7 1.1 1.2 1.2 0 0 1 0-1.1v-.1c.1-.2.2-.3.2-.4m-54.1-38.4c.2.1.5-.1.6-.3a.6.6 0 0 0-.1-.4l-.1-.1c-.1-.1-.3-.2-.4-.3a1.45 1.45 0 0 0-1.5.3 1.4 1.4 0 0 1 1.2.5.27.27 0 0 0 .3.3m49.5 9.1c-8.4-.3-11.2-3.3-11.2-3.3s-1.4 2.2 2.1 3.6a8 8 0 0 0-1.5-.3c-1-.1-1.4-.1-1.4-.1a3.14 3.14 0 0 0-2-1.3 1.7 1.7 0 0 0-1 0l.1.1a.37.37 0 0 1 .1.3.43.43 0 0 1-.4.4c-.1 0-.2-.1-.4-.2s-.1-.1-.2-.1a.9.9 0 0 0-.1 1c-1.2.2-1.6.5-1.7 1a.64.64 0 0 1 .6 0c.1 0 .2.1.3.2a.37.37 0 0 1-.2.5c-.1.1-.3 0-.4 0H165c.1.6.9 1.1 2.1.6.3-.1-.7.4-.3 1.4 0-.1.1-.1.1-.2s.2-.2.3-.2a.55.55 0 0 1 .5.3.6.6 0 0 1-.1.4.37.37 0 0 0-.1.3c1 .4 2.1-.8 2.2-1.4a2.23 2.23 0 0 0 .5 1.1 2.83 2.83 0 0 1 .3-.6c.4-.5.4.1.4.1 0 .9.6 1 .6 1s-.1-1 .7-1.2c.3 1.1 1.5-.6 1.4-.1-.3 1.1.2 1.4.2 1.4s.1-1.3 2.7-1.5a1.53 1.53 0 0 0 .7 1.2c.2-2.5 3.8-2.6 4.4-2.7a1.17 1.17 0 0 0 1-1.7" transform="translate(-123.02 -10.4)"/><path class="cls-2" d="M167.32 56.5a.43.43 0 0 0 .3-.7l-.1-.1a.76.76 0 0 0-.5-.2 1.23 1.23 0 0 0-1.3.4.87.87 0 0 1 .9.2c.1 0 .1.1.2.1s.3.2.5.3m-2.1 2.4c.2 0 .3.1.4 0s.3-.4.2-.5-.2-.2-.3-.2h-.6a1.08 1.08 0 0 0-.8 1.1 1.08 1.08 0 0 1 .8-.4h.3m2.3 1.9a.35.35 0 0 0-.5-.3c-.1 0-.2.1-.3.2s-.1.1-.1.2-.1.2-.1.4a1.2 1.2 0 0 0 .7 1.1 1.31 1.31 0 0 1-.1-.8c0-.1.1-.2.1-.3a.54.54 0 0 0 .3-.5M158 46.7c.3-1.4-.8-1.4-.8-1.4a1.39 1.39 0 0 0 .6-.9 4.31 4.31 0 0 0-.3-2.4 1 1 0 0 1-1.5.5 1.85 1.85 0 0 0 .1-1.9 1.56 1.56 0 0 1-.6.8c-.6.3-1.2.3-1.5-.2a1 1 0 0 1 .4-1.2 3.64 3.64 0 0 0-1.5 0 7.58 7.58 0 0 0-1.7.9 1.34 1.34 0 0 1-.4-1.4 1.35 1.35 0 0 0-1.4 1.1 1 1 0 0 1-.6.6 1.32 1.32 0 0 0-.9-1.1 3.51 3.51 0 0 0-1.4 3 1.67 1.67 0 0 0-.8 1.1c-.7 4-1.7 2.1-1.7 2.1.2 2 1.6 1.7 1.6 1.7-.2 1.4-1.7.6-1.7.6.5 2 1.7 1.2 1.7 1.2-.9 1.5-.2 2.6.3 3.8a4.7 4.7 0 0 1 .5 1.9 3 3 0 0 1 .9-.3c.4 0 .3.5.3 1.1a1.36 1.36 0 0 0 .4 1.1.62.62 0 0 1 .2-.4c.2-.3.4-.3.4-.3a1.94 1.94 0 0 0 .6 1.6s1-1.4 1.5-1.3.6.9.6.9c2.8-1.8 3.2-5.7 3.7-4.3.1.3.2.7.2.7s1.7-1 1.5-4.8a2.58 2.58 0 0 0 .8.5.89.89 0 0 0 .8 0s-.8-1-.3-3.3m-9.5-1.6V45h.1l.9.4c-.1 0-.1.1-.2.2a.51.51 0 1 0 .9.5.37.37 0 0 0 .1-.3 1 1 0 0 1 .5 1 3.63 3.63 0 0 1-.5 1.2.45.45 0 0 1-.1-.6c.2-.6.1-.6.1-.6a1.8 1.8 0 0 1-1.1-.2 1.89 1.89 0 0 1-.7-1.5m3.4 6.4c-.7.5-.6 1.3-.8 1.9a1.23 1.23 0 0 1-1.6.8 1.2 1.2 0 0 1-1.1-1.2c0-.7 1.3-1.6.5-2.6-.6-.8-.5-1.1-.5-1.1l.5.5c.1.1 1.3.7 1.6-.2.1-.2-.1-.4-.2-.5s-.2-.1-.3-.2 0-.5 0-.5a1.39 1.39 0 0 0 .9.6 2.26 2.26 0 0 0 1.1-.1s.1.4-.4.5c-.3 0-.7 0-.7.3-.2 1.1 1.4 1 1.9.9a1.45 1.45 0 0 0 .6-.1c-.3.5-.9.6-1.5 1m3.2-4.7a1.79 1.79 0 0 1-1.3 1h-.1a1.91 1.91 0 0 1-1-.4s-.1 0-.2.6-.4.5-.4.5a4.76 4.76 0 0 1 .2-1.3.87.87 0 0 1 .9-.6.37.37 0 0 0-.1.3.5.5 0 1 0 1 0c0-.1 0-.2-.1-.2l1.1.1z" transform="translate(-123.02 -10.4)"/><path class="cls-2" d="M149.42 53.8c1.3.4 1.5-1 1.5-1.2a1.75 1.75 0 0 1 1.4-1.6 1.63 1.63 0 0 1-1.7-.6 1.62 1.62 0 0 1-1.5-.1 1.1 1.1 0 0 1 .3.6 1.39 1.39 0 0 1-.2 1.1c-.1.3-1 1.4.2 1.8m-16.5-2a.45.45 0 0 0 0-.6.37.37 0 0 0-.3-.1c-.2 0-.3.1-.5.2a.1.1 0 0 0-.1.1 1.2 1.2 0 0 0-.4 1.4 1.34 1.34 0 0 1 .8-.7h.2c.1-.2.2-.2.3-.3m3.6-4.7a.4.4 0 0 0 .6-.2c.1-.1.1-.2 0-.4v-.1a1.38 1.38 0 0 0-.3-.4 1.27 1.27 0 0 0-1.4-.2 1.33 1.33 0 0 1 .9.7v.1c0 .2 0 .4.2.5m-1 8.4a.4.4 0 0 0 .6-.2c.1-.1.1-.2 0-.4s-.1-.2-.2-.3-.1-.2-.2-.2a1.27 1.27 0 0 0-1.4-.2 1.15 1.15 0 0 1 .9.8v.1a1.38 1.38 0 0 0 .3.4m-1.9 2.2c.2-.1.4-.4.3-.6s-.1-.2-.3-.3a1.27 1.27 0 0 0-.6-.1h-.1a1.26 1.26 0 0 0-1.1 1.1 1.21 1.21 0 0 1 1-.3c.1 0 .2 0 .2.1.3.1.5.2.6.1m1.9 2c-.1-.1-.2-.1-.4-.1s-.3.1-.5.2a.1.1 0 0 0-.1.1 1.58 1.58 0 0 0-.4 1.5 1.4 1.4 0 0 1 1-.9.52.52 0 0 0 .4-.2c.2-.1.2-.4 0-.6" transform="translate(-123.02 -10.4)"/><path class="cls-2" d="M193.22 54.3a4.51 4.51 0 0 0-2.6 0 13.83 13.83 0 0 1-2.9.1c-6.8-.7-7.3-3.2-7.1-3a20.23 20.23 0 0 0 3.7 1.2c6 1.2 6.1-2.1 6.1-2.1a.74.74 0 0 1 .3.5 1.86 1.86 0 0 1-.2 1 2 2 0 0 0 .8-1.4 1.82 1.82 0 0 0-.8-1.7 1 1 0 0 1 .5.2 2.79 2.79 0 0 1 .5.9 2 2 0 0 0-.8-2c-3.2-2.7-10.3-2.2-13-2.6-2.4-.3-3-1.3-2.8-2.3.3-1.6 2.5-1.7 2.5-1.7-.1 1.8 2.1 3 4.2 2.5a6.81 6.81 0 0 0 2.7-1.3 4.58 4.58 0 0 1 1.1-.7 3.18 3.18 0 0 0-2.2.4 8.33 8.33 0 0 1-1.5.4c-1.3.1-1.5-.8-1.5-.8a3.69 3.69 0 0 0 2.3.2 3.2 3.2 0 0 0 2.5-4.3 2.77 2.77 0 0 1-1.5 1.8 1.94 1.94 0 0 1-2-.3s1.8.2 2.2-1.2a1.1 1.1 0 0 0-.5-1.2s.2 1.8-4.1 1.5c-1.9-.1-1.8 1.5-1.8 1.5a5.42 5.42 0 0 0-1.1.2 5.52 5.52 0 0 0-1.2.5 1.88 1.88 0 0 1 .9-.8 2.9 2.9 0 0 0-1.8.8 2 2 0 0 1 .1-.5 4.7 4.7 0 0 0-1.3 2.8 3.52 3.52 0 0 0 .8 2.6c1 1.2 3 1.4 4.2 1.4 1.7.1 4.6.3 7.2.6 3.5.5 3.7 1.6 3.2 2.4s-2 .8-4.4 0-7.2-2.6-10.7-2.6c-9.1 0-13.2 3.9-16 3.2a5.42 5.42 0 0 1-2.4 4.9c-.4-1.9-.1 1.6-3.8 3.4 0 0 0-.9-.4-.9s-1.2 1.3-1.2 1.3a2.43 2.43 0 0 1-1-1.4l-.2.4a2.18 2.18 0 0 1-.8-1.1c-.1-.7.1-1.2-.2-1.2a3.83 3.83 0 0 0-1.1.5 5.73 5.73 0 0 0-.4-2.4 10.5 10.5 0 0 1-.8-2.3c-2.9-.6-6.5-1.7-6.6-2.9s.1-2.1-1.1-2.5v.5a.48.48 0 0 1-.6.2.52.52 0 0 1-.2-.4v-.1c-.7.4-.4 1.6-.4 1.6-.5-.5-1.7-1.5-2.3-.9l.1.1c.1.1.1.2.1.4a.49.49 0 0 1-.6.3c-.2 0-.3-.2-.4-.3-.7 1 .8 2.2.8 2.2-.2.1-1.4.3-1.4 1.2.2-.1.3-.2.5-.2a.37.37 0 0 1 .3.1.38.38 0 0 1 0 .6c-.1.1-.3.1-.4.2h-.2a1.18 1.18 0 0 0 1.5.4 3.62 3.62 0 0 1 3.2-.2c.6.1 1.1 0 1.1.3s-.3.5-1.1.4c0 0 .2.6 1.2.7 1.4.2 1.9-.2 2.1.1.4.5-1 .6-1 .6a2.66 2.66 0 0 0 2.6.2c.1.5-1 .6-1 .6a1.28 1.28 0 0 0 1.3.3l.6-.2a1.1 1.1 0 0 0 .5 1.3s.4-1.4 1-1.1a.53.53 0 0 1 .2.7.78.78 0 0 1-.5.2c.2.4.9.4.9.4s-.9.6-3.5.5c-3.4-.3-3.2-.7-4-1.7s-1-.9-1.4-.8a.37.37 0 0 1 .1.3v.4a.48.48 0 0 1-.6.2c-.1-.1-.2-.2-.2-.3a.8.8 0 0 0-.1 1.1c-.2 0-1.8-.3-2.1.5a1.27 1.27 0 0 1 .6.1q.15 0 .3.3a.45.45 0 0 1-.3.6c-.2.1-.3 0-.5-.1s-.2 0-.2-.1v.1c0 1.1 1.6 1.1 2.4 1.2-.3.2-.7.5-.6 1a.76.76 0 0 1 .5-.2.6.6 0 0 1 .4.1.47.47 0 0 1 .1.6.76.76 0 0 1-.4.2c1.1.7 1.8-.3 2.2-.5 1.1-.6 2.8-.6 3.2-.1.3.3-.4.7-.4.7a2 2 0 0 0 1.4-.4.77.77 0 0 0-.2.5.84.84 0 0 0 .3.8c.6-1.3 1.1-1.2 1.4-.9s-.3.7-.3.7c.8.4 1.7-.4 1.7-.4a1.25 1.25 0 0 0 .3 1c.5-.9 1.6-.8 2.3-.7 0 0-1 .7-.6 1.6a2.64 2.64 0 0 1 2.5-.7c2.3.3 6.6 1.6 14-5.3 5-4.6 8.3-4 8.3-4 4.4 3.6 13 3.7 15.1 3.8 1.1.1 1.1.7.6 1.3a1 1 0 0 1-.7.4s-2.1-.9-2.9.3h.4c.1 0 .2.1.3.2a.37.37 0 0 1-.2.5c-.1.1-.3 0-.4 0h-.2a.89.89 0 0 0 .6.6c.1 0 .1 0 .1.1a1.41 1.41 0 0 0-.4 1 .5.5 0 0 1 .6 0 .35.35 0 0 1 .1.5.52.52 0 0 1-.4.2h-.1a.87.87 0 0 0 1.2.3 2.16 2.16 0 0 0 .6-.3.58.58 0 0 0 0 .7.1.1 0 0 0 .1.1c0-.2.1-.3.2-.5a.37.37 0 0 1 .3-.1.43.43 0 0 1 .4.4c0 .1-.1.2-.2.4l-.1.1h.5c.7-.1 1.2-.7 1.3-2.1a3 3 0 0 1 .3-.9 1.26 1.26 0 0 1 .7-.4 1 1 0 0 1-.2 1c1.3.2 1.5-1.8 1.5-1.8a1.69 1.69 0 0 0 .4.7 1.08 1.08 0 0 0 .7.3c-.2-1.4.3-1.9.6-2 .5-.1.5.5.5.5a1 1 0 0 0 .4-1 2.49 2.49 0 0 0-.3-.7.52.52 0 0 1 .7.4s.5-.8 0-1.2a.14.14 0 0 1 .2 0c.1 0 .2.2.2.2a1.56 1.56 0 0 0-1-1.5" transform="translate(-123.02 -10.4)"/><path class="cls-2" d="M183.92 59.5a.37.37 0 0 0 .2-.5c-.1-.1-.2-.2-.3-.2h-.6c-.6.2-.7.8-.8 1a1.16 1.16 0 0 1 .9-.4h.2a.76.76 0 0 0 .4.1m.4 2c.1-.2.1-.4-.1-.5a.37.37 0 0 0-.3-.1c-.1 0-.2.1-.3.1s-.1.1-.2.1a1.11 1.11 0 0 0-.2 1.3 1 1 0 0 1 .6-.7h.1c.2 0 .3 0 .4-.2m2.3.9a.43.43 0 0 0-.4-.4.37.37 0 0 0-.3.1.76.76 0 0 0-.2.5v.1a1.08 1.08 0 0 0 .5 1.2.87.87 0 0 1 .2-.9l.1-.1c0-.2.1-.3.1-.5" transform="translate(-123.02 -10.4)"/></svg>