<svg id="Layer_1" data-name="Layer 1" xmlns="http://www.w3.org/2000/svg" viewBox="0 0 174.6 45.79"><defs><style>.cls-1{fill:#1d1d1b}</style></defs><title>logo7</title><path class="cls-1" d="M214.82 434.06h-3.49v-36.44h3.85v12.2h.07c1.5-2.42 3.28-3.49 5.63-3.49 6.85 0 8.49 6.92 8.49 12.48 0 7.7-1 16-8.34 16-2.35 0-4.56-.78-6.21-3.92h-.07v3.21zm5.49-2.5c4 0 5.14-4.21 5.14-11.48 0-3.57-.21-10.48-5.14-10.48-5.71 0-5.35 7.7-5.35 11.7s-.14 10.27 5.35 10.27" transform="translate(-211.04 -397.54)"/><path class="cls-1" d="M246.92 434.06a3.76 3.76 0 0 0-.86.21c-3.28.14-4.49-.14-4.85-3.85h-.07a6.91 6.91 0 0 1-6 4.35c-5.42 0-6.92-3-6.92-7.92 0-1 .14-4.92 3.92-6.56 2.21-1 7.63-3 8.13-3.42.86-.64.71-1.71.71-3.14 0-3.07-1.14-4.21-4.28-4.21-3.49 0-4 1.64-3.92 4.78h-3.42c-.21-5.56 2.57-8 8-8 8 0 7.35 6.7 7.35 7.35v15.48c0 .71-.07 1.64.71 2.07a6.33 6.33 0 0 0 1.64.07v2.78zm-6.35-14.55c-1.93 1.14-4.07 1.93-6.06 2.92-1.78.86-2.35 2.78-2.35 4.64 0 2.71.71 4.49 3.78 4.49 1.43 0 4.64-1.14 4.64-5.49z" transform="translate(-211.04 -397.54)"/><path class="cls-1" d="M32.74 9.49h3.99l5.99 9.7 5.99-9.7h4l-7.78 13.12 8.06 13.91H49l-6.28-10.77-6.49 10.77h-3.99l8.27-13.91-7.77-13.12z"/><path class="cls-1" d="M267 407h4.49v3.28H267v18.4c0 .93-.36 2.07 1.78 2.07h2.57v3.28h-4.14c-2.28.07-4-.36-4-4.42v-19.3h-3.71V407h3.71v-7.35H267z" transform="translate(-211.04 -397.54)"/><path class="cls-1" d="M286.29 425.08c.21 5.28-2.5 9.7-8.2 9.7-5.14 0-8.77-3.42-8.77-14.26 0-5.71 1.5-14.19 8.63-14.19 8.77 0 8.27 8.27 8.49 14.62h-13.13c.07 3.64-.57 10.63 4.85 10.63 3.71 0 4.71-3.42 4.49-6.49zm-3.85-7.35c-.14-3.14.07-8.2-4.42-8.2s-4.56 5-4.71 8.2zm8.2-6.28h.07c1.64-3.57 3.92-5.06 7.92-4.71v3.78c-5-.86-7.85 2.21-7.85 7.13v16.4h-3.85V407h3.71v4.42z" transform="translate(-211.04 -397.54)"/><path class="cls-1" d="M309 414.31c.14-3.21-1-4.71-4.28-4.71-2.71 0-4.28 1.28-4.28 4.07 0 3.49 2.85 3.92 5.49 5.06 3.92 1.78 7.77 2.71 7.77 7.77s-3.57 8.34-9.13 8.34c-2.35.07-5.28-.78-6.7-2.85-1.64-2.14-1.5-3.92-1.5-5.78h3.64c-.14 3.28 1 5.35 4.56 5.35 3.14 0 5.14-1.28 5.14-4.56 0-3.85-3.92-4.21-6.63-5.35-4.21-1.57-6.63-3-6.63-7.7s3.28-7.63 7.92-7.63c5.35 0 8.49 2.42 8.34 8H309z" transform="translate(-211.04 -397.54)"/><path class="cls-1" d="M319 407h4.49v3.28H319v18.4c0 .93-.36 2.07 1.78 2.07h2.57v3.28h-4.21c-2.28.07-4-.36-4-4.42v-19.3h-3.71V407h3.71v-7.35H319V407z" transform="translate(-211.04 -397.54)"/><path class="cls-1" d="M331.15 434.78c-5.85 0-9.7-3.49-9.7-15.19 0-8.2 3-13.34 9.7-13.34s9.7 5.14 9.7 13.34c0 11.77-3.78 15.19-9.7 15.19m0-25.18c-3.92 0-5.71 3.14-5.71 11.27 0 6.35 1.21 10.7 5.71 10.7s5.71-4.35 5.71-10.7c0-8.2-1.71-11.27-5.71-11.27m13.7 1.85h.07c1.64-3.57 3.92-5.06 7.92-4.71v3.78c-5-.86-7.85 2.21-7.85 7.13v16.4h-3.85V407h3.71v4.42z" transform="translate(-211.04 -397.54)"/><path class="cls-1" d="M367.31 425.08c.21 5.28-2.5 9.7-8.13 9.7-5.14 0-8.77-3.42-8.77-14.26 0-5.71 1.5-14.19 8.63-14.19 8.77 0 8.27 8.27 8.49 14.62H354.4c.07 3.64-.57 10.63 4.85 10.63 3.71 0 4.71-3.42 4.49-6.49zm-3.78-7.35c-.14-3.14.07-8.2-4.42-8.2s-4.56 5-4.71 8.2z" transform="translate(-211.04 -397.54)"/><path class="cls-1" d="M365.25 407h4l6.06 23.47h.07l6.27-23.47h4l-8 25.82a49.43 49.43 0 0 1-2.5 6.92 6.48 6.48 0 0 1-6.21 3.57 9.41 9.41 0 0 1-2.78-.43v-3.42a6.59 6.59 0 0 0 2.85.57c3.57 0 3.71-2.64 4.78-5.35zm-150.71 27H211v-36.46h3.85v12.2h.15c1.5-2.42 3.28-3.49 5.63-3.49 6.85 0 8.49 6.92 8.49 12.48 0 7.7-1 16-8.34 16-2.35 0-4.56-.78-6.21-3.92h-.07V434zm5.49-2.5c4 0 5.14-4.21 5.14-11.48 0-3.57-.21-10.48-5.14-10.48-5.71 0-5.35 7.7-5.35 11.7s-.14 10.27 5.35 10.27" transform="translate(-211.04 -397.54)"/><path class="cls-1" d="M246.56 434a3.76 3.76 0 0 0-.86.21c-3.28.14-4.49-.14-4.85-3.85h-.07a6.91 6.91 0 0 1-6 4.35c-5.42 0-6.92-3-6.92-7.92 0-1 .14-4.92 3.92-6.56 2.21-1 7.63-3 8.13-3.42.86-.64.71-1.71.71-3.14 0-3.07-1.14-4.21-4.28-4.21-3.49 0-4 1.64-3.92 4.78H229c-.21-5.56 2.57-8 8-8 8 0 7.35 6.7 7.35 7.35v15.48c0 .71-.07 1.64.71 2.07a6.33 6.33 0 0 0 1.64.07V434zm-6.28-14.55c-1.93 1.14-4.07 1.93-6.06 2.92-1.78.86-2.35 2.78-2.35 4.64 0 2.71.71 4.49 3.78 4.49 1.43 0 4.64-1.14 4.64-5.49z" transform="translate(-211.04 -397.54)"/><path class="cls-1" d="M32.45 9.41h4l5.99 9.7 5.99-9.7h3.99l-7.77 13.13 8.06 13.91h-4l-6.27-10.77-6.49 10.77h-4l8.28-13.91-7.78-13.13z"/><path class="cls-1" d="M266.75 407h4.49v3.28h-4.49v18.4c0 .93-.36 2.07 1.78 2.07h2.57V434h-4.21c-2.28.07-4-.36-4-4.42v-19.34h-3.71V407h3.71v-7.35h3.78V407z" transform="translate(-211.04 -397.54)"/><path class="cls-1" d="M285.93 425c.21 5.28-2.5 9.7-8.2 9.7-5.14 0-8.77-3.42-8.77-14.26 0-5.71 1.5-14.19 8.63-14.19 8.77 0 8.27 8.27 8.49 14.62H273c.07 3.64-.57 10.63 4.85 10.63 3.71 0 4.71-3.42 4.49-6.49zm-3.78-7.35c-.14-3.14.07-8.2-4.42-8.2s-4.56 5-4.71 8.2zm8.21-6.27h.07c1.64-3.57 3.92-5.06 7.92-4.71v3.78c-5-.86-7.85 2.21-7.85 7.13V434h-3.85v-27h3.71v4.42z" transform="translate(-211.04 -397.54)"/><path class="cls-1" d="M308.76 414.23c.14-3.21-1-4.71-4.28-4.71-2.71 0-4.28 1.28-4.28 4.07 0 3.49 2.85 3.92 5.49 5.06 3.92 1.78 7.77 2.71 7.77 7.77s-3.57 8.34-9.13 8.34c-2.35.07-5.28-.78-6.7-2.85-1.64-2.14-1.5-3.92-1.5-5.78h3.64c-.14 3.28 1 5.35 4.56 5.35 3.14 0 5.14-1.28 5.14-4.56 0-3.85-3.92-4.21-6.63-5.35-4.21-1.57-6.63-3-6.63-7.7s3.28-7.63 7.92-7.63c5.35 0 8.49 2.42 8.34 8h-3.71z" transform="translate(-211.04 -397.54)"/><path class="cls-1" d="M318.74 407h4.49v3.28h-4.49v18.4c0 .93-.36 2.07 1.78 2.07h2.57V434h-4.21c-2.28.07-4-.36-4-4.42v-19.34h-3.71V407h3.71v-7.35h3.78V407z" transform="translate(-211.04 -397.54)"/><path class="cls-1" d="M330.87 434.7c-5.85 0-9.7-3.49-9.7-15.19 0-8.2 3-13.34 9.7-13.34s9.7 5.14 9.7 13.34c-.07 11.77-3.78 15.19-9.7 15.19m0-25.18c-3.92 0-5.71 3.14-5.71 11.27 0 6.35 1.21 10.7 5.71 10.7s5.71-4.35 5.71-10.7c0-8.2-1.71-11.27-5.71-11.27m13.69 1.86h.07c1.64-3.57 3.92-5.06 7.92-4.71v3.78c-5-.86-7.85 2.21-7.85 7.13V434h-3.85v-27h3.71v4.42z" transform="translate(-211.04 -397.54)"/><path class="cls-1" d="M367 425c.21 5.28-2.5 9.7-8.13 9.7-5.14 0-8.77-3.42-8.77-14.26 0-5.71 1.5-14.19 8.63-14.19 8.77 0 8.27 8.27 8.49 14.62h-13.1c.07 3.64-.57 10.63 4.85 10.63 3.71 0 4.71-3.42 4.49-6.49zm-3.85-7.35c-.14-3.14.07-8.2-4.42-8.2s-4.56 5-4.71 8.2z" transform="translate(-211.04 -397.54)"/><path class="cls-1" d="M365 407h4l6 23.42h.07l6.29-23.42h4l-8.06 25.82a49.43 49.43 0 0 1-2.5 6.92 6.48 6.48 0 0 1-6.21 3.57 9.41 9.41 0 0 1-2.78-.43v-3.42a6.59 6.59 0 0 0 2.85.57c3.57 0 3.71-2.64 4.78-5.35z" transform="translate(-211.04 -397.54)"/></svg>