<svg id="Layer_1" data-name="Layer 1" xmlns="http://www.w3.org/2000/svg" viewBox="0 0 219.66 31.62"><defs><style>.cls-1{fill:#1e1e1c}</style></defs><title>logo19</title><path class="cls-1" d="M230.58 23.07c.5 0 1 0 1-.66 0-.5-.41-.58-.91-.58h-.83v1.24zm-.74 2.23h-.58v-4h1.49c.91 0 1.41.33 1.41 1.16s-.41 1-1.08 1.08l1.16 1.74h-.66l-1.08-1.74h-.66v1.76zm.74.91a2.9 2.9 0 1 0-2.81-3v.08a2.81 2.81 0 0 0 2.73 2.89h.08M227 23.32a3.52 3.52 0 0 1 3.56-3.47 3.44 3.44 0 0 1 3.47 3.41v.07a3.52 3.52 0 1 1-7 0" transform="translate(-14.4 -13.89)"/><path class="cls-1" d="M31.52 6.29v21.1h11.83l-1.57 4.13H26.31V6.29h5.21z"/><path class="cls-1" d="M145.45 31.59c3.31-1.32 7.2-4.05 7.2-8.85 0-5.79-5-8.77-12.33-8.77h-9.43v31.52h5.54v-13h3.31l8.69 13h6.37zm-6.21-3.14h-2.81V17.69h3.39c4.63 0 7 1.49 7 5.29.08 4.22-3 5.46-7.61 5.46M67.6 20.17l.91 2-9.85 23.32h4.8l2.07-5.13h11.09l2.23 5.13h5.71L73.39 20.17zm-.41 16.22L71 27l4 9.35zM31 28.53c2.81-.91 5.38-3 5.38-6.95 0-7.69-9.18-7.69-12.16-7.69H14.4v31.52h9.51c5.38 0 14.31-1.41 14.31-9.1 0-4.3-2.48-6.95-7.2-7.78M23.5 17.69c4.14 0 7 .5 7 4.3 0 5-5.13 4.72-7.69 4.72H20v-9zm.17 23.58h-3.56V30.85h3.31c5 0 9 .74 9 5.21s-3.31 5.21-8.77 5.21m83.41-21.18h5.21v25.32h-5.21zm16.13 0l-10.67 12.16 10.68 13.16h6.12L118.4 31.92l10-11.75h-5.2zm-39.71 11.5c0 8.27 5 13.9 12 13.9A13.72 13.72 0 0 0 104 43l-1.24-2.56a12 12 0 0 1-6 1.49c-4.47 0-7.69-3.31-7.69-10.18 0-5.54 2.07-8.85 6-8.85a4.38 4.38 0 0 1 4.55 3l4.55-1.24c-.5-1.74-2.73-5.21-9.35-5.21-6.12-.08-11.42 4.05-11.42 12.16m119.88-11.52h5.21v25.32h-5.21zm16.13 0l-10.67 12.16 10.67 13.15h6.12l-10.91-13.48 10-11.75h-5.21zm-39.87 11.5c0 8.27 5 13.9 12 13.9a13.72 13.72 0 0 0 8.52-2.49l-1.24-2.56a12 12 0 0 1-6 1.49c-4.47 0-7.69-3.31-7.69-10.18 0-5.54 2.07-8.85 6-8.85a4.38 4.38 0 0 1 4.55 3l4.55-1.24c-.5-1.74-2.73-5.21-9.35-5.21-6.21-.08-11.42 4.05-11.42 12.16m-13.82-12.26c-6.87 0-11.83 4.14-11.83 13.07s4.8 13 11.83 13 11.83-4.14 11.83-13-5-13.07-11.83-13.07m0 22.59c-5.29 0-6.45-4.3-6.45-9.51s1.16-9.68 6.45-9.68 6.45 4.55 6.45 9.68-1.16 9.51-6.45 9.51" transform="translate(-14.4 -13.89)"/></svg>