<svg id="Layer_1" data-name="Layer 1" xmlns="http://www.w3.org/2000/svg" viewBox="0 0 94.31 94.32"><defs><style>.cls-1{fill:#1d1d1b}</style></defs><title>logo9</title><path class="cls-1" d="M245 335.43h-5.41l36-46.57h-89v82.26l.16-.17c.13-.09 6.06-7.45 11.51-14.72 4.89-6.32 9.5-12.48 9.9-13.07a40.8 40.8 0 0 0 2.38-4.48h7.26a33.09 33.09 0 0 0 .43 3.49c.19.62 4.61 15.11 4.7 15.27l2.44-3.14-4.17-12.83a23 23 0 0 0-1.3-2.79h8.47a7.52 7.52 0 0 0 .28 2.3c.34 1.06 2.16 7.6 2.16 7.6s5.76-7.23 6.12-7.76a4.81 4.81 0 0 0 .71-2.15h7.05a22.6 22.6 0 0 0-3.55 3.81c-.76 1-8.21 10.43-8.21 10.43s.64 2.21 1 3.31c.09.32.15.54.15.56s.16-.19.45-.56c1.91-2.42 10.67-13.89 11.21-14.88a23.82 23.82 0 0 0 1.41-2.68H254a18.14 18.14 0 0 0 .37 2.62l4.31 14.93c1.63 4.61 5 16.57 6.38 17.52h-8.89a14.12 14.12 0 0 0-.43-3.14c-.4-1.36-3.58-11.71-3.58-11.71H238l-2.23 3.12s2.66 8.35 2.83 8.76c.28.74 1.56 2.95 1.56 2.95h-8.51s-.23-1.26-.31-1.8-.82-2.78-.82-2.78a24.4 24.4 0 0 0-2.45 3.09c-.53 1-.77 1.49-.77 1.49h-6.67s-.23-1.26-.31-1.8-.87-3-.87-3a33.51 33.51 0 0 0-2.41 3.24c-.52 1-.74 1.53-.74 1.53h-6.6s1.86-1.77 2.5-2.54c1.1-1.27 5.2-6.63 5.2-6.63l-1.64-5.68h-14s-8 10.51-8.31 10.83a30 30 0 0 0-2.7 4h-4.17v9.43h94.31v-94.23z" transform="translate(-186.58 -288.86)"/><path class="cls-1" d="M212 345.38c-1 2.17-7 9.42-7 9.42h9.41s-1.82-5.63-2.13-6.89a9.46 9.46 0 0 1-.2-2.47zm15.06 13.71l-2.51 3.27 1.62 5 2.59-3.56c-.26-.28-1.7-4.71-1.7-4.71zm21.12-13.71c-1 2.17-7 9.42-7 9.42h9.43s-1.84-5.63-2.15-6.89a10.58 10.58 0 0 1-.18-2.47z" transform="translate(-186.58 -288.86)"/></svg>