<svg id="Layer_1" data-name="Layer 1" xmlns="http://www.w3.org/2000/svg" viewBox="0 0 235.33 57.16"><defs><style>.cls-1{fill:#1e1e1c}</style></defs><title>logo18</title><path class="cls-1" d="M49.74 415.67a25.1 25.1 0 0 0 4.5 8.52 12.07 12.07 0 0 1 5.84-4.4 53.83 53.83 0 0 1-1.34-11.39c-5 1.53-8.14 4.12-9 7.28m20.87-9.01V418a30.53 30.53 0 0 0-8.52 1.24 48.69 48.69 0 0 1-1.15-10.82v-.48a34.74 34.74 0 0 1 9.67-1.24m-14.93 19.03a9.19 9.19 0 0 1 5-4c1.53 5.17 3.35 7.85 5.84 10.15a21.62 21.62 0 0 1-10.82-6.13m14.91 6.2c-3.35-.67-6.32-4.79-8.14-10.82a28.72 28.72 0 0 1 8.14-1.13zm22.88-16.28a25.1 25.1 0 0 1-4.5 8.52 12.07 12.07 0 0 0-5.84-4.4 48.33 48.33 0 0 0 1.25-11.39c5 1.44 8.14 4.31 9.1 7.28m-20.88-9.01V418a36.49 36.49 0 0 1 8.62 1.24 49.32 49.32 0 0 0 1.15-10.82v-.57a44.76 44.76 0 0 0-9.77-1.15m14.94 19.03a9.19 9.19 0 0 0-5-4c-1.53 5.17-3.45 8-5.84 10.15a21.13 21.13 0 0 0 10.82-6.13m-14.92 6.2c3.35-.67 6.32-4.79 8.14-10.82a28.72 28.72 0 0 0-8.14-1.13zM56.82 407v-15.7l2-1.53v16.56a9.89 9.89 0 0 0-2 .67m6.04-1.67v-24.5l-2 1.53v23.46a7.66 7.66 0 0 1 2-.48m1.81-.34c.77-.1 1.34-.19 2-.29v-27l-2 1.53zm3.93-.43a15.54 15.54 0 0 1 2-.1v-29.68l-2 1.53zm3.93-29.78v29.68a44 44 0 0 1 9.86 1.24v-23.45zm21.73 38.11c-1.34-2.68-5-5.27-9.86-6.7v-16.57l9.86 7.47zm-45.26 0a7.48 7.48 0 0 1 2-2.68v-14.65l-2 1.53zm3.9-4.02a21.52 21.52 0 0 1 2-1.15V392.6l-2 1.53zm220.01-10.15a28.46 28.46 0 0 0-5.36-4.88 3.83 3.83 0 0 0-.86 2.68c0 1.82 1.63 3.16 3.73 3.16a3.35 3.35 0 0 0 2.49-1m5.74 3.83a6.91 6.91 0 0 1-3.35-1.72 9.12 9.12 0 0 1-5.94 1.82c-4.88 0-8.52-2.11-8.52-5.84a4.46 4.46 0 0 1 5.46-4.6c-2.2-.48-3.35-1.82-3.35-3.73 0-2.78 2.78-4.6 6.32-4.6 3 0 5.07 1.05 5.65 2.58l-2.2 2.58a2.32 2.32 0 0 0-2.3-2.3 1.69 1.69 0 0 0-1.9 1.46v.17c0 .86.67 1.53 1.53 2.3a52.19 52.19 0 0 1 4.69 4.31v-5.07h4.12v3.64c0 2-.38 3.64-1.15 4.31a6.81 6.81 0 0 0 3.35 1.82zM143 417.59c-.57-1.82-1.72-5.74-2.49-7.66-.77 2-2.2 5.74-2.87 7.66zm-6.8 3.73c-.29 1.05-.77 2.49-1.05 3.64h-5.85c1.44-4.12 5.55-14.55 7.28-18.19.67-.1 3.16-.29 4.21-.29a37.6 37.6 0 0 1 4.4.29l7.09 18.23h-6.89l-1.05-3.64zm87.4-26.42c-.57-1.82-1.72-5.74-2.49-7.66-.77 2-2.2 5.74-2.87 7.66zm-6.8 3.83c-.29 1.05-.77 2.49-1.05 3.64h-5.84c1.44-4.12 5.55-14.55 7.28-18.19.67-.1 3.16-.29 4.21-.29a37.6 37.6 0 0 1 4.4.29l7.08 18.19H226l-1.05-3.54zm37.63 8s4-.29 7-.29h.57c7.85 0 11.68 3.35 11.68 9.57 0 5.55-4.5 8.81-11.2 8.81h-7.95v-18.05zm8.33 14.17c3 0 4.5-1.72 4.5-5.07 0-3.73-1.53-5.65-4.79-5.65a7.54 7.54 0 0 0-1.53.1v10.63zm-60.41-18.67h5.94v-18.34h-7.19a.34.34 0 0 0-.1.19c-1.24 2.2-2.87 5.36-4.12 7.85a1.38 1.38 0 0 0-.19.29.42.42 0 0 1-.1-.29c-.86-1.91-2.58-5.65-3.64-7.66a.34.34 0 0 0-.1-.19 36.38 36.38 0 0 0-3.83-.29 33.88 33.88 0 0 0-3.83.29v18.19h5.55v-11.78l.19.38c1.44 2.87 3.16 6.51 4.31 9.29l.1.19h2.11a.42.42 0 0 0 .1-.29c.86-1.91 3.35-7 4.5-9.19l.19-.38zm-73.53-18.09a18.59 18.59 0 0 0-6.51 0v10.34c0 5.46 3.16 8 9.67 8 6.32 0 9.48-2.49 9.48-8.23v-10.36h-5.94v10.82c0 2.78-1.44 3.73-3.35 3.73s-3.35-1-3.35-3.73zm47.1 40.86h14.65v-4h-8.33v-3.35h7.56v-3.93h-7.56v-3.26h8.23v-3.64s-4.31-.29-7.28-.29-7.28.29-7.28.29zM167 406.77s-.38.48-.57.77A82 82 0 0 1 161 414a5.17 5.17 0 0 1-.77.77v-8a18.59 18.59 0 0 0-6.51 0V425h6.51v-8.62l6.32 8.62h7.85l-7.66-10.05a7.36 7.36 0 0 1 .57-.67c1.72-1.72 4.88-5.17 6-6.7a4 4 0 0 0 .57-.77zm77.55 0a18.59 18.59 0 0 0-6.51 0V425h13.88v-4.21h-7.47zm-24 18.19h14.65v-4h-8.33v-3.35h7.56v-3.93h-7.56v-3.26h8.23v-3.64s-4.31-.29-7.28-.29-7.28.29-7.28.29zm-58.88-22.69h6.51v-7.37h6.7v7.37h6.51v-18.38h-6.51V391h-6.7v-6.89a18.59 18.59 0 0 0-6.51 0v18.19zM210.1 425h6.51v-18.42h-6.51zm-16.75 0h6.51v-7.28h7.28v-3.93h-7.28v-3.35h7.75v-3.64s-3.45-.29-7.18-.29-7.08.29-7.08.29zm-76.21-10.63L120.2 425h5.17l6.32-18.38h-5.94l-3.06 10.53-2.78-10.24a8 8 0 0 0-2.3-.29 6.86 6.86 0 0 0-2.2.29l-3.06 10.24a.47.47 0 0 0-.1-.29c-.86-2.78-1.91-6.61-2.68-9.77a1 1 0 0 0-.1-.29 18.59 18.59 0 0 0-6.51 0 .3.3 0 0 0 .1.19c.77 3 3.83 12.92 5.36 17.71a.42.42 0 0 0 .1.29h5.17zm117.28-12.06H240v-12l7.28 12h7.18v-18.42h-5.65v10.91l-6.51-10.72a33.11 33.11 0 0 0-4.12-.29 24.4 24.4 0 0 0-3.83.29zm-90.86-1.44a15 15 0 0 0 7.37 1.72c4.69 0 8.14-2.11 8.14-5.65 0-6.41-8.62-4.79-8.62-7.75 0-1.15 1-1.72 3-1.72a6.7 6.7 0 0 1 4.69 1.63v-4.21a13.32 13.32 0 0 0-5.94-1.24c-4.5 0-7.85 2-7.85 5.65 0 6.13 8.62 4.5 8.62 7.66 0 1.44-1.44 2-3.73 1.72a10.53 10.53 0 0 1-4.79-2 6.25 6.25 0 0 1-.29 2.11 11.82 11.82 0 0 1-.57 2.11m-23.07-.29a12.92 12.92 0 0 1-7.56 2.11c-7.47 0-10.63-4.88-10.63-9.38 0-6.13 4.69-9.57 11.2-9.57a12.9 12.9 0 0 1 6.13 1.34v4.69a8.09 8.09 0 0 0-5.17-1.82c-3.54 0-5.55 1.72-5.55 5.36 0 3.16 2.11 5.27 5.55 5.27a6.7 6.7 0 0 0 4.88-1.63 11.56 11.56 0 0 0 1.15 3.64m159.66 24.44a4.12 4.12 0 1 1 4.12-4.12 4.09 4.09 0 0 1-4.06 4.12h-.06m0-7.47a3.45 3.45 0 1 0 3.45 3.45 3.45 3.45 0 0 0-3.45-3.45m-.1 3.16c.57 0 1-.19 1-.67a.68.68 0 0 0-.68-.68h-1.23v1.34h1zm-1.72-1.91h2c1.15 0 1.44.67 1.44 1.15a1.21 1.21 0 0 1-1.17 1.24h-.08c.38.1.67.48 1.05 1.05l.57.86h-.86l-.38-.67c-.57-1-.77-1.15-1.34-1.15h-.38v1.82h-.77v-4.31z" transform="translate(-48.97 -374.79)"/></svg>