<svg id="Layer_1" data-name="Layer 1" xmlns="http://www.w3.org/2000/svg" viewBox="0 0 213.59 38.87"><defs><style>.cls-1{fill:#1d1d1b}</style></defs><title>logo11</title><path class="cls-1" d="M251.42 432.13a18.4 18.4 0 0 1-3 .82 18.88 18.88 0 0 1-3.7.41c-4.11 0-7.31-1.31-7.81-4.52h17.39a16.73 16.73 0 0 0 .33-3.62c0-7.23-3.7-13.89-13-13.89-9 0-13.89 7-13.89 14.79 0 9 6.41 14.22 15.37 14.22a23.11 23.11 0 0 0 5.34-.49 26.61 26.61 0 0 0 4.36-1.31zm-9.86-14.3c3.45 0 4.52 3.12 4.52 4.77h-9.28a4.56 4.56 0 0 1 4.77-4.77m145.29 14.3a18.4 18.4 0 0 1-3 .82 18.88 18.88 0 0 1-3.7.41c-4.11 0-7.31-1.31-7.81-4.52h17.42a16.73 16.73 0 0 0 .33-3.62c0-7.23-3.7-13.89-13-13.89-9 0-13.89 7-13.89 14.79 0 9 6.41 14.22 15.37 14.22a23.11 23.11 0 0 0 5.34-.49 26.61 26.61 0 0 0 4.36-1.31zm-9.94-14.3c3.45 0 4.52 3.12 4.52 4.77h-9.29a4.56 4.56 0 0 1 4.77-4.77" transform="translate(-191.1 -401.47)"/><path class="cls-1" d="M67.88.66h9.45V38.3h-9.45z"/><path class="cls-1" d="M287.34 440.35c7.4 0 14.87-4.6 14.87-14.79 0-6.08-3.7-14.22-14.38-14.22-11 0-15 7.89-15 14.71-.08 8.55 5.92 14.3 14.55 14.3m.08-6.9c-3 0-5.1-3-5.1-7.56 0-3.7 1.31-7.56 5.1-7.56 3.62 0 4.93 4 4.93 7.56 0 4.6-1.89 7.56-4.93 7.56" transform="translate(-191.1 -401.47)"/><path class="cls-1" d="M115.13 10.52h9.45V38.3h-9.45zm0-9.86h9.45v7.23h-9.45z"/><path class="cls-1" d="M323.17 404.43V412h-3.62v6.9h3.62v11.34c0 6.25 2.88 10.11 9.53 10.11a33.29 33.29 0 0 0 3.94-.33 14.35 14.35 0 0 0 2.71-.58l-.08-7.31a24.22 24.22 0 0 1-3.21.49 3.73 3.73 0 0 1-2.71-.9 4.18 4.18 0 0 1-1-3v-9.86h6.08v-6.9h-6.08v-8.55m12.76 1.02V412h-3.62v6.9h3.62v11.34c0 6.25 2.88 10.11 9.53 10.11a33.29 33.29 0 0 0 3.94-.33 14.35 14.35 0 0 0 2.71-.58l-.08-7.31a24.22 24.22 0 0 1-3.21.49 3.73 3.73 0 0 1-2.71-.9 4.18 4.18 0 0 1-1-3v-9.86h6.08v-6.9h-6.08v-8.55m39.88 31.76a5.26 5.26 0 1 1 5.26 5.18 5.17 5.17 0 0 1-5.26-5.18m-189.26-2.88c-.41 0-1 .08-1.4.08h-3V409.2c1.07-.08 2.38-.16 3.21-.16 5.51 0 11.34 3.53 11.34 11.59 0 8.46-5.51 11.26-10.19 11.67m-13.72 7.48h10.68a21.53 21.53 0 0 0 2.3-.08c14.63-.74 20.71-9.29 20.71-19.07 0-12.24-8.46-19.15-23-19.15-3.7 0-7.07.16-10.77.41" transform="translate(-191.1 -401.47)"/></svg>