<svg id="Layer_1" data-name="Layer 1" xmlns="http://www.w3.org/2000/svg" viewBox="0 0 123.43 63.71"><defs><style>.cls-1{fill:#1d1d1b}</style></defs><title>logo8</title><path class="cls-1" d="M226.5 314.06c-.51-2.9-4.06-23-4.06-23h-18.55v48.78h12.47v-32.9c.94 5.29 6.16 32.9 6.16 32.9h8.19s5.15-27.69 6.16-32.9v32.9h12.32V291h-18.56s-3.55 20.15-4.13 23m79.43 26.22c-13.19 0-22.25-9.06-22.25-24.86 0-14.21 7.83-24.86 22.39-24.86 12 0 16.74 4.49 20.15 13.48l-12.1 4.78c-1.59-4.13-3.48-6.6-8.12-6.6-6.23 0-8.41 5.58-8.41 13.19 0 9.57 3.12 13.55 9.28 13.55 5.65 0 7.46-2.61 8-5.94h-8.77V313h21.16v5.87c.14 13.77-7.39 21.38-21.38 21.38" transform="translate(-203.89 -289.27)"/><path class="cls-1" d="M33.12 54.21h1.52v9.35h-1.52z"/><path class="cls-1" d="M247.37 352.83l-4.37-5.72a9.42 9.42 0 0 1-.94-1.38v7.1h-1.45v-9.35h1.52l4.2 5.58a15.4 15.4 0 0 1 1 1.38v-7h1.52v9.35m5.92.12h-1l-3.77-9.43h1.59l2.17 5.65c.22.51.36 1.09.58 1.59.14-.51.36-1 .58-1.59l2.39-5.65h1.52" transform="translate(-203.89 -289.27)"/><path class="cls-1" d="M56.1 63.56v-9.35h5.07l-.51 1.23h-3.04v2.69h3.04v1.23h-3.04v2.9h3.55v1.3"/><path class="cls-1" d="M269.26 353a5 5 0 0 1-2.75-.8l.65-1.09a3.46 3.46 0 0 0 2.1.72c.8 0 1.67-.36 1.67-1.16 0-1.45-2.25-1.74-3.41-3a2.49 2.49 0 0 1-.65-1.67c0-1.38 1.09-2.54 3-2.54a5.41 5.41 0 0 1 2.25.51v1.38a4.46 4.46 0 0 0-2.1-.65c-.8 0-1.45.36-1.45 1.09 0 1.88 4.06 1.81 4.06 4.64-.14 1.52-1.52 2.54-3.33 2.54" transform="translate(-203.89 -289.27)"/><path class="cls-1" d="M76.39 55.44h-2.54v8.12h-1.52v-8.12h-2.75v-1.23h7.24"/><path class="cls-1" d="M289.84 352.83v-7a5.52 5.52 0 0 1-.51.94l-2.1 3.33h-.8l-2.32-3.41a3.66 3.66 0 0 1-.51-.94 4.81 4.81 0 0 1 .07.94v6h-1.45v-9.35h1.45l2.68 4a4.75 4.75 0 0 1 .58.94c.14-.29.29-.58.51-.94l2.54-4h1.45v9.35" transform="translate(-203.89 -289.27)"/><path class="cls-1" d="M89.8 63.56v-9.35h5l-.44 1.23h-3.11v2.69h3.04v1.23h-3.04v2.9h3.55v1.3"/><path class="cls-1" d="M307.53 352.83l-4.42-5.73a9.42 9.42 0 0 1-.94-1.38v7.1h-1.45v-9.35h1.52l4.2 5.58a15.4 15.4 0 0 1 1 1.38v-7H309v9.35" transform="translate(-203.89 -289.27)"/><path class="cls-1" d="M113.06 55.44h-2.54v8.12H109v-8.12h-2.75v-1.23h7.25"/><path class="cls-1" d="M320.43 353a5 5 0 0 1-2.75-.8l.65-1.09a3.46 3.46 0 0 0 2.1.72c.8 0 1.67-.36 1.67-1.16 0-1.45-2.25-1.74-3.41-3A2.49 2.49 0 0 1 318 346c0-1.38 1.09-2.54 3-2.54a5.41 5.41 0 0 1 2.25.51v1.38a4.46 4.46 0 0 0-2.1-.65c-.8 0-1.45.36-1.45 1.09 0 1.88 4.13 1.81 4.13 4.64a3.17 3.17 0 0 1-3.41 2.54m-25.28-46.16c-.22 0-.36.29-.43.43s-.22.36-.36.51-.07.29-.14.36l-.14.07c-.22.29-.36.58-.51.8l-.58.8c-.14.14-.22.36-.36.51a3.15 3.15 0 0 0-.43.51c-.07.07 0 .22-.07.29s-.22.14-.29.22-.07.29-.14.36l-.14.07c-.51.65-1.09 1.3-1.59 1.88a8.79 8.79 0 0 0-.72 1h-.07c-.14 0-.43.43-.51.51a9.84 9.84 0 0 1-.87.87 1.27 1.27 0 0 1-.36.29 4.37 4.37 0 0 1-.58.58 1.52 1.52 0 0 1-.43.29c-.07.07-.07.14-.14.22a4.37 4.37 0 0 1-.58.58 1 1 0 0 1-.36.22.73.73 0 0 0-.07.22.44.44 0 0 1-.29.07c-.07.07-.07.14-.14.22a1.58 1.58 0 0 0-.36.29h-.14c-.07.07-.14.14-.14.22l-.14.07c-.07 0 0 .07-.07.07a1.58 1.58 0 0 0-.36.29h-.14c-.07.07-.14.14-.14.22a4.44 4.44 0 0 1-.43.29 4.88 4.88 0 0 1-.8.51c-.07 0-.14.14-.14.22s-.22 0-.36.14-.07.14-.14.22-.14.07-.29.07-.14.14-.14.22h-.22a.73.73 0 0 0-.07.22c-.14.14-.29.07-.43.14a.73.73 0 0 0-.07.22 1.17 1.17 0 0 1-.65.22 1.23 1.23 0 0 1-.58.43c-.14 0-.14-.14-.22-.14l-.36-.36c-.07-.07-.07-.22-.14-.29s-.29-.22-.36-.36a4.44 4.44 0 0 1-.29-.43c-.14-.14-.29-.22-.43-.36a2.25 2.25 0 0 0-.29-.43c-.14-.14-.29-.22-.36-.36a1.52 1.52 0 0 1-.29-.43c-.14-.14-.29-.22-.43-.36s-.07-.22-.14-.29l-.22-.22c-.14-.14-.29-.22-.43-.36s-.07-.22-.14-.29-.14-.07-.22-.22a1.52 1.52 0 0 1-.29-.43c-.07-.14-.29-.22-.36-.36a1.52 1.52 0 0 1-.29-.43c-.07-.14-.22-.07-.22-.29h.07l.07-.07.07-.07.07-.07.07-.07c.14-.14.29-.36.43-.51s.29-.36.36-.43 0 0 .07 0 0-.07.14-.22l.14-.14.22-.22c.07-.07.14-.22.22-.29a4.37 4.37 0 0 1 .58-.58l.51-.51h.07a.22.22 0 0 1 .07-.14c.07-.07.22-.29.29-.36h.07v-.07c0-.07.07-.14.14-.22a15.52 15.52 0 0 1 .94-1.38c.14-.14.58-.65.72-.8.29-.36.58-.51.8-.87l.07-.07.14-.29h.07c.07-.07 0-.14.07-.22l.29-.29c.07-.07.07-.22.14-.36s.22-.14.29-.29 0-.22.07-.36.14-.29.29-.51l.22-.14.14-.14a1.27 1.27 0 0 1 .29-.36.27.27 0 0 0 .07-.22l.07-.07v-.14c.14-.22.36-.36.51-.58v-.14a5.25 5.25 0 0 0 .8-1.81c.07-.43.43-1.09.43-1.23s.14-.8.14-.8.22-.72.22-.8-.14-.72-.14-.72a3.35 3.35 0 0 0-.14-1.67 8 8 0 0 0-.51-1.88 4.45 4.45 0 0 0-.58-1.88c.22-.36-.65-.58-.65-.94-.14-.14-.58-.51-.58-.72s-1-.43-1.09-1a10.15 10.15 0 0 0-1.16-.72 5 5 0 0 1-1-.58.48.48 0 0 1-.43-.07.92.92 0 0 1-.43-.07v-.07h-.22V290h-.22a.65.65 0 0 0-.36-.07.07.07 0 0 1-.07-.07c-.29-.07-.58-.07-.94-.14a5.68 5.68 0 0 0-1-.14c-.36-.07-.8 0-1.23-.07-.14 0-.14-.07-.29-.07a18.83 18.83 0 0 1-2 0c-.14 0-.29.07-.36 0s-.29-.14-.51-.14-.07.07-.14.07h-.29c-.43.07-.87.07-1.09.14-.51.07-.87.07-1.16.14s-.36-.14-.65-.07-.29 0-.43.22c-.07-.14-.07 0-.22 0-.43.07-.65.07-.94.14a.07.07 0 0 0-.07.07c-.07 0-.14-.07-.29-.07l-.07.07c-.29.07-.65 0-.94.07s-.29.14-.43.22H263c-.22.07-.29.22-.43.22a.07.07 0 0 0-.07.07c-.14 0-.14-.14-.29-.07l-.14.22c-.14.07-.29 0-.43 0a.07.07 0 0 1-.07.07c-.14 0-.14 0-.14.07s-.36.07-.43.14-.65.29-.87.43-.14.07-.29.14a.07.07 0 0 0-.07.07c-.43.22-.94.43-1.45.72-.29.22-.65.43-.8.58h-.22c-.14.07-.14.22-.29.29h-.22a.73.73 0 0 0-.07.22c-.07 0-.29.07-.29.14s0 .07-.07.07a1.58 1.58 0 0 0-.36.22c-.07.07-.14.22-.29.29a12.59 12.59 0 0 0-.94 1.09c-.07.14-.29.14-.22.29s-.14.22-.14.29-.58.58-.58.8-.36.36-.36.51-.14.22-.14.29-.22.22-.22.29 0 .29-.07.36h-.07v.22c-.07.14-.22.07-.14.22s0 .14 0 .22a1.34 1.34 0 0 0-.14.51.07.07 0 0 1-.07.07 2.94 2.94 0 0 0 0 .8c0 .07-.14.14-.14.22a9.24 9.24 0 0 0 .07 1.45c0 .14-.14-.29-.14-.14a8.65 8.65 0 0 0 .29 2.1 12.18 12.18 0 0 0 .51 1.74 2.89 2.89 0 0 1-.22-.29c.07.29.22.8.36.87v.22a4.36 4.36 0 0 0 .51 1s-.22 0-.22.07a1 1 0 0 0 .22.29l.14.29c.07.14 0 .14.07.22v.22c0 .07.14.14.22.22a4.44 4.44 0 0 1 .29.43 1 1 0 0 0 .14.51c0 .14.29.07.29.22s.29.14.22.43c.22-.07.22.22.29.29s.36.14.29.36.72.94.58 1.09-.29.22-.36.29-.29.43-.29.36-.07.29-.22.29-.43.43-.51.51-.14.22-.22.29h-.22c-.07 0-.07.22-.14.22a.07.07 0 0 0-.07.07c-.29.22-.43.58-.8.58-.07.29-.36.51-.58.72l-1 1c-.14.14-.22.29-.36.43a1.27 1.27 0 0 1-.36.29l-.65.65a12.62 12.62 0 0 0-1.3 1.59v18.65l.22.22c.22 0 .51.51.72.58s.22.29.36.29.22.22.29.29h.1v.07h.22v.07h.22v.07h.22v.07h.22c.07 0 .14.14.22.22h.07a.07.07 0 0 1 .07.07 2.6 2.6 0 0 1 .8.29h.22a7.49 7.49 0 0 0 .87.22c.07.07.14.07.07.22a.77.77 0 0 1 .58 0h.07a.07.07 0 0 1 .07.07c.14 0 .43-.07.58 0v.07c.07.07.29 0 .36.07h.22c.14 0 .22 0 .29.07h.22c.07 0 .14.14.22.14s.58 0 .72.07a.07.07 0 0 1 .07.07c.29.14.22-.07.43 0v.07c.14.14.07 0 .29.07s.14.07.29.07a2 2 0 0 1 .65 0c.22 0 .36.14.43 0s.14.07.07.07h.43c.14 0 .29-.14.36-.14s.14.07.36.07.14-.07.36-.14a10.31 10.31 0 0 0 1.81-.22c.43-.14 1.16-.22 1.45-.29a4.62 4.62 0 0 0 .65-.14c.29-.07.36-.07.43-.14a1.73 1.73 0 0 1 .65-.14c.14 0 .07.07 0 .22.36 0 .36-.36.58-.43s.43-.14.51-.14 0 .29.22.22a4.28 4.28 0 0 0 1-.43c0 .14.14.07.29.07a.07.07 0 0 0 .07-.07c.07 0 .14.07.22.07a.07.07 0 0 1 .07-.07h.22a5.68 5.68 0 0 0 1-.36c.22-.07.43-.22.65-.29s.36 0 .58 0a.07.07 0 0 1 .07-.07l.29-.14h.07a.07.07 0 0 0 .07-.07c.22-.07.51-.07.72-.14v-.07h.22c.22-.07.14-.14.36-.22a.07.07 0 0 0 .07-.07 3.6 3.6 0 0 1 .94-.22c.14-.07.36-.14.51-.22s.14-.14.14-.22a3 3 0 0 0 .43-.14.07.07 0 0 0 .07-.07 2.63 2.63 0 0 1 .51-.22c.07 0 0-.07.07-.07h.22a1.58 1.58 0 0 0 .36-.22h.22c.07 0 .14-.14.14-.22h.22a.07.07 0 0 0 .07-.07c.14-.07.36-.14.51-.22.36-.14.65-.36.94-.51.87-.51 1.45-1 2-1 .14 0 .14.07.29.14s.07.29.07.43c.22.07.36.29.51.43s.36.29.51.43.14.22.22.29a3.61 3.61 0 0 0 .8.72c.07.07.14.22.22.29l.07.07c.07.07.29.07.29.29s.29.29.36.36a2.71 2.71 0 0 0 .51.43c.22.14.43.51.58.29-.36-.29-.14-.29 0-.29s.22.14.36.14.14.29.36.14a.38.38 0 0 0-.14-.29c-.07-.07-.36-.29-.36-.36s-.29-.14-.14-.22a4.87 4.87 0 0 0 .87.43c.07.14.43.36.58.07-.14 0-.22 0-.22-.22-.14 0-.14-.07-.22-.22s-.22-.58-.51-.65c.07-.22-.58-.51-.51-.94-.58-.36-.87-1-1.3-1.45.22-.43-.43-.8-.58-1.23.22 0 .14.29.36.14s-.51-.36-.22-.58c.14 0 .22.22.29.29s.58.51.58.65.87.72.94.94.07.07.07.07c.43.58 1.16 1 1.52 1.45a2.07 2.07 0 0 0 .51.58c.14 0 .22.22.29.29a4.4 4.4 0 0 0 .72.51v.22a.73.73 0 0 0 .22.07.73.73 0 0 1 .07.22c0 .14.07.07.07.07s.22.43.43.58h.22a.73.73 0 0 1 .07.22 1.31 1.31 0 0 0 .72.14 1.47 1.47 0 0 0 1 .43c.22-.51-.29-.65-.36-1.16 0-.8-.36-1.09-.51-1.74-.14 0-.14-.22-.22-.29s-.14.07-.22 0v-.22s-.14.07-.22 0-.07-.22-.14-.29-.29-.22-.43-.36-.07-.22-.14-.29-.22-.22-.22-.29a.07.07 0 0 0-.07-.07c-.07-.07-.07-.22-.14-.29l-.22-.22c-.08-.08-.07-.22-.14-.29l-.22-.22c-.07-.07-.07-.22-.14-.29s-.29-.22-.36-.36a5.09 5.09 0 0 0-.43-.65l-.22-.22-.22-.22c-.07-.07-.07-.22-.14-.29l-.43-.43c0-.14-.07-.07-.07-.07a4.44 4.44 0 0 1-.29-.43c-.07-.07-.14-.07-.22-.14a10.61 10.61 0 0 1-.65-.94.07.07 0 0 0 .07-.07l.07-.07c.07-.07 0-.29.07-.36a1.64 1.64 0 0 1 .29-.07s-.07-.14 0-.22.29-.22.36-.29.36-.51.58-.58a2 2 0 0 1 .65-.87c.22-.22.36-.43.51-.58s.22-.14.29-.22V327c0-.07.14-.07.14-.22s.22-.36.07-.58c.29.07.14-.36.36-.43s.36.22.36 0a.72.72 0 0 1-.36-.29c0-.14.14-.14.14-.22s0-.29.07-.36.29 0 .29-.22.29-.22.07-.51c.14-.07.29-.14.22-.36-.43-.14-.22.51-.51.22 0-.22.22-.36.36-.58s.51-.65.51-.8l-.22-.07c-.07.14-.36.51-.43.65s-.14.29-.22.29-.07.07-.07.07-.14.51-.22.36-.14.07-.29 0a4.88 4.88 0 0 0 .51-.8c0-.07.43-.43.14-.43-.07.29-.51.51-.51.72s-.07.14-.14.22h-.07s.07.14 0 .22a3.15 3.15 0 0 0-.43.51c0 .07-.14.07-.14.07v.22c-.07.14-.22.22-.29.29s-.51.65-.65.36a1 1 0 0 0 .22-.87c.14.14.29-.07.43-.14.07-.36.43-.36.65-.94a.25.25 0 0 0 .14-.07.55.55 0 0 0 .29-.51c-.43-.14-.22.51-.51.22a2.41 2.41 0 0 1 .43-.72c.22-.29.8-1 .94-1.16s.43-.36.14-.51c0 .14-.14.07-.14.07s0 .07-.07.14-.14.14-.22.14-.07.22-.29.22a2.5 2.5 0 0 0-.65.87.6.6 0 0 1-.65.14.14.14 0 0 1 .14-.14 9.47 9.47 0 0 1 .8-.87c.22-.07.29-.22-.07-.29a.54.54 0 0 1 .29-.72c.22-.07.07.51.36.36a1.92 1.92 0 0 0 .36-.43c.07-.14.36-.22.22-.58-.43-.07-.07.58-.58.43.14-.43.51-.72.58-1 0-.07.14 0 .22 0s-.07-.22 0-.29.22 0 .14-.07a.56.56 0 0 0-.22-.51c0 .14-.22.07-.14.29-.14.07-.14.22-.14.43a1 1 0 0 1-.51.65c.07-.29-.07-.14 0-.51s.36-.36.43-.72c.14 0 .07-.14.07-.22s.36-.29.29-.58a.44.44 0 0 1 .29-.07c.07-.07 0-.22.07-.29s.43-.36.14-.51c-.07.14-.22.14-.36.29s0 .22-.07.29-.65.36-.72.43c-.22-.22.51-.65.65-.94s.51-.51.51-.65.43.07.22-.22c.22 0 .07-.29.36-.22-.07-.29.22-.65.29-.8a3.07 3.07 0 0 1 .36-.51c-.14 0-.14-.36-.14-.51s.14-.14.14-.29.36 0 .36-.22c-.29-.07.07-.22 0-.36.14-.07.22.14.29 0-.29-.07.07-.36.14-.36s0 .22-.07.29c.29 0 .29-.22.22-.51.14-.29.36.07.36-.29-.14 0-.22 0-.22-.22.14 0 .22-.07.07-.22.07-.07.22-.14.29-.22s0-.29.07-.36.14-.07.14-.07-.07-.14 0-.22.22-.07.29-.22v-.22l.14-.07a7.06 7.06 0 0 0 .36-.8h.34c.07-.14 0-.29.07-.36l.07-.07c.07-.22.07-.43.14-.58s.07-.29.14-.51l.14-.07v-.22l.14-.07v-.22l.14-.07c.15-.07.15-.22.22-.36m-14.28-1.59c0-.29.29-.29.29-.65l.22.07v.43l-.07.07v.07l-.07.07-.07.07-.14.22-.07.22-.29.36-.29.14a.57.57 0 0 1-.36.51c0 .07 0 .14-.07.14s-.14.07-.22.14-.07.14-.14.22a.07.07 0 0 0-.07.07c0 .07 0 .14-.07.14s-.22.29-.29.43-.22.22-.22.29l-.07.14c-.07 0 0 0-.07.07a1.58 1.58 0 0 0-.22.36c-.07.14-.22.22-.36.36a3.15 3.15 0 0 0-.29.51.55.55 0 0 0-.29.14l-.07.29-.22.07-.14.14-.07.14-.14.22-.14.14-.22.22a1 1 0 0 1-.22.29l-.14.14-.14.29-.05.22a1.86 1.86 0 0 1-.36.14.07.07 0 0 1-.07.07c-.07.07-.07.29-.22.43s-.22.14-.36.29-.07.22-.14.29a.22.22 0 0 0-.14.07s-.14.29-.22.29-.14.07-.22.14-.22.36-.43.51l-.36.36s-.29.14-.29.07a1.17 1.17 0 0 1 .29-.51c.14-.14.07-.22.22-.29l.14-.29a1.14 1.14 0 0 0 .36-.43c0-.07.22-.14.43-.29s.14-.36.22-.36l.14-.14s.14-.22.22-.22-.07-.07 0-.14l.22-.07c.07-.07 0-.14.07-.22s.22-.07.22-.14 0-.14.07-.22.14-.07.22-.14-.07-.14 0-.14.29-.22.36-.29 0-.14.14-.29.07 0 .14-.07.14-.36.22-.29.14-.22.22-.29a1 1 0 0 1 .14-.29c.14-.14.29-.14.29-.29s.36-.51.43-.58a6.77 6.77 0 0 1 .94-1.09 11.06 11.06 0 0 1 .8-1.16c0-.29.22-.29.22-.58.59-.12.44-.55.95-.62zm-20.8-12.54a1.58 1.58 0 0 1 .58-.36 3.27 3.27 0 0 0 .8-.22c.22-.07.36-.22.58-.29a.78.78 0 0 1 .58-.14l.87-.36c.14-.07.65-.07.87-.36.36.07.51-.22.87.07.14-.07.22-.22.43-.29s.36.07.43.07a1.07 1.07 0 0 1 .51-.07c.29-.07.51.07.87 0h.94s-.07.36-.58.36h-2.17l-.29.14-.72.14-.43.14-.36.14-.43.07-.33.25a2.56 2.56 0 0 1-.87.36 1.62 1.62 0 0 0-.72.36l-.51.07-.36.22-.54-.01c0-.1-.09-.25.06-.32zm-3.76 3.29a.32.32 0 0 1-.22.29.38.38 0 0 1-.36.07l.14-.58.22-.29s.29-.43.43-.36.43-.51.43-.58 1.09-.58 1.16-.8.51-.22.72-.51l.14.22a1.08 1.08 0 0 1-.43.43c-.29.07-.22.22-.29.22s-.22.29-.29.36-.51.43-.65.36-.14.14-.22.22a1.07 1.07 0 0 1-.36.43 1.48 1.48 0 0 0-.42.52zm-6.09 23.84c0 .07.07-.29.14-.29s.22-.36.22-.36c.14-.29.65-.51.87-.87.07-.14.07-.29.22-.43a3.17 3.17 0 0 0 .58-.51c-.14-.22 0 0 .07-.07.58-.65 1.3-1.38 2-2.1 0 0 .29.07.22 0s.22-.51.65-.87c0 0 .14.07.22 0l.22-.29c.36 0 .07-.14.22-.29s.22 0 .29-.14a1.75 1.75 0 0 1 .87-.72c.07 0 .22 0-.14.36-.07 0-.29.43-.43.58-.29.36-.8.72-1.23 1.16-.87.72-.51.65-1.67 1.67-.07.07-.07.29-.22.36a.82.82 0 0 0-.43.29c.14.22-.43.58-.72.94-.58.72-1 1.09-1.45 1.67-.5.22-.57.07-.5-.07zm11.38 20.58c.07 0-.07-.22-.14-.22s-.07.14-.14.22c-.36.07-.8-.07-1.23 0-.22 0-.29.07-.43.07s-.58-.29-.8-.22 0 0-.14 0c-.8-.14-1.88-.36-2.83-.58 0 0-.07-.29-.14-.14s-.58.14-1-.07a.26.26 0 0 0-.14-.22h-.36c-.22-.29-.14 0-.36 0s-.14-.22-.29-.22a2 2 0 0 1-1.09-.29c-.07-.07-.22 0-.29 0s-.07-.14-.29-.22l-.36-.22c-.14-.29-.36-.29-.8-.58-.07 0-.22-.14-.36-.22s-.51-.43-.72-.8c-.14-.14-.07-.29-.14-.36s1.09.43 1.38.87c.29 0 .22-.07.43.14a1.11 1.11 0 0 0 .43.29h.29c.22.36.8.36 1.3.58.07 0 .07.07.22.07a12.94 12.94 0 0 1 1.67.65 19.87 19.87 0 0 0 2.32.51c.14 0 .29-.07.36 0s.43.36.51.22.72.07 1.23.14a6.19 6.19 0 0 0 2.61-.22c.02.48-.49.77-.7.84zm9.93-12.9a3.37 3.37 0 0 1-.65.22 2928239354426.83 2928239354426.83 0 0 1-.72.29l-.43.22c-.07.07-.07.14-.14.22s-.43-.07-.43 0v.07c-.14.07-.36-.07-.36.14a8.47 8.47 0 0 1-1.45.43s-.07.14-.14.07 0-.14-.07-.07-.07.14-.07.22-.36.07-.58.14a8.67 8.67 0 0 1-1.74.43c-.29.07-.51.07-.8.14l-.65.22a1.56 1.56 0 0 1-.58 0 8.32 8.32 0 0 0-1 .14 2.12 2.12 0 0 0-.65.14c-.07 0-.14.07-.29.07s-.22.07-.29.07-.07.14-.22.14-.22-.07-.29-.07h-.36c-.07 0-.22.07-.29 0a.65.65 0 0 1-.36-.07c-.14-.07-.29-.07-.43-.22a.42.42 0 0 1 0-.51s-.07-.14 0-.22l.14-.07c0-.07-.07-.14 0-.22a3.16 3.16 0 0 0 .58-.72 14.75 14.75 0 0 1 1.09-1.3c.14-.14.29-.36.43-.51s.29-.14.36-.22.07-.22.14-.29.36-.29.51-.43.14-.22.22-.29a.25.25 0 0 1 .14-.07c-.07 0 .07-.22.36-.51.07-.07.43-.29.51-.36h.07c.07-.14.07-.22.29-.29a1 1 0 0 1 .29-.22l.07-.07a4 4 0 0 0 .58-.43l.07-.22h.22c.07-.07.07-.22.14-.29s.22 0 .36-.14.07-.14.07-.22.22-.22.29-.22.29-.07.43-.22.14-.14.14-.22h.29c.22.22.8.58.8.65s.14.36.22.36.43.14.51.36.29.07.29.29.14.14.22.14.29.14.29.22a7.94 7.94 0 0 0 .8.72 4.37 4.37 0 0 1 .58.58c.43.36.87.65 1.3 1 .22.22.51.29.58.65a4.27 4.27 0 0 1-.39.37zm.8-28.56a1.92 1.92 0 0 1-.36.43c-.07.14-.07.29-.14.36-.29.36-.58.8-.8 1s-.72.94-.8 1.09-.72.8-.87.94c-.36.43-1.59 1.52-1.59 1.52l-.51.51-.07.07c-.07 0-.07.07-.14.14l-.07.07-.07.07v.07h-.07a3.35 3.35 0 0 0-.51.51s-.07.22.14.07a3.76 3.76 0 0 1 .36-.22c.07-.07.07 0 .14-.07s.22-.14.22-.22a1.52 1.52 0 0 0 .43-.29c.07-.14.36-.14.29-.29.14 0 .07-.14.29-.14s.07 0 .07.07.29-.22.22-.36c.14-.07.07-.14.14-.22s.22-.14.29-.22v-.07a.1.1 0 0 1 .14 0v-.14h.14c.14-.07.14-.29.29-.36l.07-.07c0-.14.14-.07.22-.07s.14-.14.22-.22l.36-.36s0-.14.07-.14.22-.07.22-.22 0-.22.22-.22.07.07.07-.07l.22-.22H271c0-.14.14-.22.29-.36.07.07 0-.07.07.07 0-.07.07-.07 0-.14.14-.07.29-.29.51-.43.07.07.22-.07.22-.07s-.36.51-.29.43-.07.07-.14.14v.07c-.07.07-.14.07-.14.14s0 .14-.07.14-.14.14-.14.22l-.07.07-.29.29c-.07.07-.07.07-.07.14s-.07.14-.22.22-.07.07-.14.14-.22.14-.29.22a.25.25 0 0 1-.14.07s0 .14-.07.14-.22.07-.29.14 0 .07-.07.14-.14.07-.14.14l-.14.14a4 4 0 0 1-.58.43v.07a4.37 4.37 0 0 1-.58.58v.17h-.07l-.14.14-.14.14a2.54 2.54 0 0 0-.58.36.07.07 0 0 0-.07.07c0 .07-.07.07-.14.14a2.84 2.84 0 0 1-.65.29c-.07.07-.07.07-.22.07h-.22c-.07 0-.07.07-.29 0 0-.07-.07 0-.07 0h-.22c-.08 0-.29-.14-.36-.14h-.07l-.07-.07-.07-.07c-.07-.07-.14-.07-.14-.14s-.14-.07-.22-.14 0-.07-.07-.14l-.14-.14a.22.22 0 0 1-.07-.14c-.07-.07-.07-.22-.14-.36s-.14-.22-.22-.36-.07-.07-.07-.14v-.22c0-.07 0-.07-.07-.14s-.14-.14-.14-.22a.1.1 0 0 1 0-.14s-.07-.22-.14-.51-.07-.29-.07-.43v-.29a1.28 1.28 0 0 1 .07-.43.44.44 0 0 1 .07-.29c0-.07.07-.14.14-.22s.07-.29.14-.43.07-.22.14-.29a1.52 1.52 0 0 1 .29-.43c0-.07.07-.07.07-.14s-.07 0 0 0 .22-.14.29-.22.14-.29.29-.36.14-.07.22-.14a.57.57 0 0 0 .29-.29 5.24 5.24 0 0 1 .51-.29 3.53 3.53 0 0 1 .51-.22c.07-.07.22-.14.29-.22s.14-.07.22-.14l.43-.22a.27.27 0 0 0 .22-.07c.07 0 .14-.07.22-.14l.43-.22h.22c.07 0 .14 0 .14-.07s.22-.07.36-.07a.27.27 0 0 0 .22-.07c.14 0 .22-.07.36-.07a1.6 1.6 0 0 1 .58-.07h.87c.22 0 .36.07.51.07s.14-.07.22 0l.22.22c.14.07.29.07.36.14a1.11 1.11 0 0 1 .36.51 3.69 3.69 0 0 0-.38.75zm.51-8.26s-.22-.22-.43-.14a10.15 10.15 0 0 0-2.75.36.71.71 0 0 1 .22-.58h.07c.14 0 .07 0 .14-.07.29-.07.72 0 1.09-.07.14-.07.22-.22.29-.22s.29.29.58.14.29 0 .36 0l2.17.22s.14.22.14.07.36-.07.8.07a.14.14 0 0 0 .14.14h.36c.14.29.14 0 .29 0s.14.22.22.14c.36-.07.36.07.65.29h.29q.11.22.22.22s.36 0 .36.07c.14.29.51.29.87.51.07.07 0 .22.14.22s.8.51 1.09.58c.07.14.14.29 0 .36-.43-.14-.65-.58-1.23-.58-.07-.07-.36-.14-.51-.29a2.76 2.76 0 0 0-.43-.36c-.07 0-.22.07-.22 0-.14-.36-.36-.14-.8-.36a1.18 1.18 0 0 0-.43-.22 6.47 6.47 0 0 1-1.38-.51c-.58-.14-1.16-.14-1.88-.29-.18.32-.37.32-.44.32zm15.5 34.3c-.29-.29.51-1 .8-.8 0 .14-.14.14-.22.29s-.14.36-.29.65c0 .07-.14 0-.14.14s-.43.58-.58.29c.18-.5.18-.21.43-.57zm-39.14-5.73a4.14 4.14 0 0 1-.51.58c-.07.07 0 .22-.07.36a1.52 1.52 0 0 1-.29.43l-.22.22c-.07.07 0 .22-.07.36s-.14.07-.22.14 0 .22-.07.36l-.22.22c-.07.14 0 .22-.07.36s-.14.07-.22.14 0 .29-.07.36-.29.51-.36.58.07.14 0 .22-.14.14-.22.22-.07.43-.14.65h-.07v.22c-.07.14-.14.14-.22.22s-.07.43-.14.65a10.15 10.15 0 0 0-.43 2c0 .07-.07.07-.07.14a3.48 3.48 0 0 0 0 .87c0 .07.14.87.14.87-.07.51-.22.07-.22.58 0 .14-.07.14-.07.36a5.55 5.55 0 0 0 .22 1.45c.07.14 0 .36.07.58s.07.14.14.22a6.18 6.18 0 0 1 .29 1.09v.28c0 .07.22.14.22.22v.22c0 .07.07.07.14.07a4.28 4.28 0 0 0 .43 1c0 .07.22.14.22.22s.07.22.14.36.22.14.22.22a6.34 6.34 0 0 0 .58.72l.43.43c.14.14.36.29.43.43h.07V319.2c.23 0 .23.08.23.08z" transform="translate(-203.89 -289.27)"/></svg>