<svg id="Layer_1" data-name="Layer 1" xmlns="http://www.w3.org/2000/svg" viewBox="0 0 129.57 73"><defs><style>.cls-1{fill:#1d1d1b}</style></defs><title>logo15</title><path class="cls-1" d="M80.1 40.88V24.53l-9.74 16.35"/><path class="cls-1" d="M200.19 401.7l-5.7 9.91h7.35l-.74 2.15c-1.82 5.2-7.6 9.17-12.22 9.17-8.67 0-14.86-6.44-14.86-14.95 0-7.93 5.2-14.62 14.53-14.62h1v-.08h14.37l-7.35-12.72c-3.22 0-5.12-.08-8.75-.08-15.86 0-28.32 12.63-28.32 27.58s12.47 27.58 28.32 27.58a28 28 0 0 0 27.83-22.13l-6.85-11.89m63.9-5.04c0-2.31 1.4-3.14 3.22-3.14h10.16l-7.51-12.88h-4.62c-8.67 0-16.68 6.19-16.68 15.11s15.36 16.93 15.36 22c0 3.39-2.23 4.62-5.45 4.62h-9.41l6.23 10.79 1.4 2.39h7.27c8.26 0 16.35-7.27 16.35-15.94.08-12.55-16.35-18.42-16.35-23" transform="translate(-159.48 -370.98)"/><path class="cls-1" d="M257.83 422.27h-6v12.47h-12.25v-12.47h-19.32l7.6 13s4.87 8.75 18.42 8.75c18.42 0 24.11-.08 24.11-.08l-4.87-8.51-1.4-2.39m-32.3-45.95a10.27 10.27 0 0 0-.25-10.9s-3.3-5.2-13.46-5.2h-27.17l12.88 22.38 4.87 8.42 6.85 11.89.08.08c.08-.08 12.8-20.73 16.19-26.67" transform="translate(-159.48 -370.98)"/></svg>