<svg id="Layer_1" data-name="Layer 1" xmlns="http://www.w3.org/2000/svg" viewBox="0 0 137.33 50.33"><defs><style>.cls-1{fill:#1d1d1b}</style></defs><title>logo4</title><path class="cls-1" d="M239.63 442.82c-.23 1.85-1.62 2.86-4.17 2.86-3 0-4.86-1.78-4.86-4.79s1.85-4.79 4.94-4.79c2.47 0 3.86 1 3.94 2.62H238c-.08-.93-1.08-1.62-2.62-1.62-2.24 0-3.55 1.39-3.55 3.78s1.31 3.78 3.71 3.78c1.54 0 2.47-.69 2.55-1.85zm6.37 1.62c1.54 0 2.32-.39 2.32-1.62s-.85-1.7-2.55-1.7h-2.93v3.32zm-3.24-4.4h2.78c1.62 0 2.39-.31 2.39-1.47s-.77-1.39-2.32-1.39h-2.86zm-1.24-3.86H246a5.16 5.16 0 0 1 2.39.39 1.93 1.93 0 0 1 1 1.85 2 2 0 0 1-1.85 2.08 2.28 2.28 0 0 1 2.16 2.32 2.56 2.56 0 0 1-.77 1.85 3.82 3.82 0 0 1-2.86.77h-4.48zm18.72 4.17c1.93 0 2.78-.15 2.78-1.54s-.93-1.47-2.86-1.47h-2.39v3zm-3.63-4.17h4.09a5.15 5.15 0 0 1 2.7.46 2.21 2.21 0 0 1 .93 2 2.08 2.08 0 0 1-2 2.24c1.16 0 1.39.62 1.62 1.93l.23 1.24a4.14 4.14 0 0 0 .46 1.39h-1.39a4.08 4.08 0 0 1-.31-1.31l-.23-1.54c-.15-1.08-.85-1.24-2.32-1.24h-2.47v4.09h-1.24v-9.26z" transform="translate(-229.75 -395.35)"/><path class="cls-1" d="M37.13 40.84h1.31v9.26h-1.31z"/><path class="cls-1" d="M279.38 442.82c-.23 1.85-1.62 2.86-4.17 2.86-3 0-4.86-1.78-4.86-4.79s1.85-4.79 4.94-4.79c2.47 0 3.86 1 3.94 2.62h-1.47c-.15-.93-1.08-1.62-2.62-1.62-2.24 0-3.55 1.39-3.55 3.78s1.31 3.78 3.71 3.78c1.54 0 2.47-.69 2.55-1.85z" transform="translate(-229.75 -395.35)"/><path class="cls-1" d="M51.64 50.18v-9.34h1.24v3.78h5.94v-3.78h1.31v9.34h-1.31v-4.4h-5.94v4.4h-1.24z"/><path class="cls-1" d="M299.14 442l-2.24-4.71-2.39 4.71zm-3.09-5.79h1.62l4.63 9.26h-1.47l-1.22-2.47h-5.71l-1.24 2.47h-1.39zm11.27 4.14c1.93 0 2.78-.15 2.78-1.54s-.93-1.47-2.86-1.47h-2.39v3zm-3.63-4.17h4.09a5.15 5.15 0 0 1 2.7.46 2.21 2.21 0 0 1 .93 2 2.08 2.08 0 0 1-2 2.24c1.16 0 1.39.62 1.62 1.93l.23 1.24a4.14 4.14 0 0 0 .46 1.39h-1.39a4.08 4.08 0 0 1-.31-1.31l-.23-1.54c-.15-1.08-.85-1.24-2.32-1.24H305v4.09h-1.24v-9.26zm13.82 8.26c1.47 0 2.39-.15 3.09-.85a4.13 4.13 0 0 0-.08-5.48c-.77-.69-1.78-.77-3.16-.77h-2.08v7.1zm-3.63-8.26h3.71c1.78 0 3 .23 3.94 1.08a4.34 4.34 0 0 1 1.47 3.55 4.7 4.7 0 0 1-1.16 3.32 4.77 4.77 0 0 1-3.94 1.39h-4v-9.34z" transform="translate(-229.75 -395.35)"/><path class="cls-1" d="M99.81 40.84h6.87v1.15h-5.56v2.71h5.18v1.08h-5.18v3.24h5.71v1.16h-7.02v-9.34zm9.03 0h1.32v8.18h5.32v1.16h-6.64v-9.34zm8.26 0h1.31v8.18h5.25v1.16h-6.56v-9.34zm8.26 0h1.31v9.26h-1.31z"/><path class="cls-1" d="M360 442.66c.08 1.24 1.08 1.93 2.86 1.93s2.86-.69 2.86-1.78a1.24 1.24 0 0 0-.77-1.08 12.25 12.25 0 0 0-2.32-.39 9.08 9.08 0 0 1-2.47-.54 2.09 2.09 0 0 1-1.31-2.08c0-1.54 1.47-2.7 4.09-2.7 2.47 0 3.78 1 3.78 2.62h-1.31c-.08-1-1-1.62-2.55-1.62-1.78 0-2.7.62-2.7 1.7a.93.93 0 0 0 .62.93 31.5 31.5 0 0 0 3.16.62c2.08.31 3.09.93 3.09 2.47 0 1.78-1.54 2.93-4.4 2.93-2.62 0-4-1.08-4-2.93v-.08zm-73.52-21.15h-11.27v-5.71h11.58a2.83 2.83 0 0 1 2.55 2.78 2.92 2.92 0 0 1-2.86 2.93m-11.27-18.76h12a2.8 2.8 0 0 1 2.32 2.7 2.91 2.91 0 0 1-2.39 2.86h-11.85zm16.79 9.19c4.32-1.47 5.09-5.09 5.09-8.11 0-4.55-3.16-8.49-12.66-8.49h-17.6v34.12h17.6c9.49 0 13-4.94 13-9.8a8.22 8.22 0 0 0-5.4-7.72" transform="translate(-229.75 -395.35)"/><path class="cls-1" d="M107.14 0h29.8v7.41h-21.46v5.56h19.38v7.49h-19.38v5.94h21.46v7.8h-29.8V0z"/><path class="cls-1" d="M324.08 405.92a2.74 2.74 0 0 1-2.62 2.32h-11.67v-5.4h11.66a2.61 2.61 0 0 1 2.62 2.39zm-4.48-10.58h-18v34.12h8.26v-13.74H319a4.7 4.7 0 0 1 4.63 4.86v9h8.11v-11c0-5.09-4.94-6.64-4.94-6.64a7.69 7.69 0 0 0 5-7.56c0-7.41-6.33-9-12.2-9m-58.13 25.9c-.15 0-11.35.23-15.21-.15-6.25-.62-8.41-5.25-8.41-9 0-4.71 3.16-8.18 8.18-8.8 2.39-.31 15.21-.15 15.36-.15h.31v-7.8h-14.9a20.58 20.58 0 0 0-7.1 1.39 17.43 17.43 0 0 0-6.64 5.4 17.12 17.12 0 0 0-3.32 10.19 16.39 16.39 0 0 0 9.57 15.13 24.63 24.63 0 0 0 9.26 1.85l2.78.08h10.42v-8.22z" transform="translate(-229.75 -395.35)"/></svg>