<svg id="Layer_1" data-name="Layer 1" xmlns="http://www.w3.org/2000/svg" viewBox="0 0 7.7 6.98">
  <defs>
    <style>
      .cls-1 {
        fill: #ffd137;
      }
    </style>
  </defs>
  <title>contact</title>
  <path class="cls-1" d="M6.9,2.13H5.36V2.5A1.3,1.3,0,0,1,4.07,3.79H2.83v.84a.8.8,0,0,0,.79.79H5.46L6.78,7V5.43H6.9a.8.8,0,0,0,.79-.79V2.93A.8.8,0,0,0,6.9,2.13Zm-2,.37V.79A.8.8,0,0,0,4.07,0H.79A.8.8,0,0,0,0,.79V2.5a.8.8,0,0,0,.79.79H.92V4.85L2.24,3.29H4.07A.8.8,0,0,0,4.86,2.5Z"/>
</svg>
