<svg id="Layer_1" data-name="Layer 1" xmlns="http://www.w3.org/2000/svg" viewBox="0 0 883.46 500.97"><defs><style>.cls-1{fill:#fff;}.cls-2{fill:#ffd034;}.cls-3{fill:#6b6b65;}</style></defs><title>graphic</title><rect width="883.46" height="500.97"/><path class="cls-1" d="M330,245.46a30.63,30.63,0,0,1,1.36-8.9,44.39,44.39,0,0,1,3.12-7.39,15.94,15.94,0,0,1,2.25-3.58,2.34,2.34,0,0,1,1.62-.67,2.28,2.28,0,0,1,1.74.75,2.56,2.56,0,0,1,.7,1.81,3.7,3.7,0,0,1-.56,1.74,40.38,40.38,0,0,0-3.7,8.35,27.5,27.5,0,0,0,0,15.82,40.38,40.38,0,0,0,3.7,8.35,3.59,3.59,0,0,1,.56,1.74,2.56,2.56,0,0,1-.7,1.81,2.28,2.28,0,0,1-1.74.75,2.19,2.19,0,0,1-1.53-.6,16,16,0,0,1-2.49-3.95,44.39,44.39,0,0,1-3.05-7.34A30.91,30.91,0,0,1,330,245.46Z" transform="translate(-167.99 -143.6)"/><path class="cls-2" d="M360.59,240.3v12.53h6.86a3.49,3.49,0,0,1,2.48.72,2.49,2.49,0,0,1,.74,1.87,2.46,2.46,0,0,1-.74,1.85,3.49,3.49,0,0,1-2.48.72H352.91a3.49,3.49,0,0,1-2.48-.72,2.49,2.49,0,0,1-.74-1.87,2.46,2.46,0,0,1,.74-1.85,3.49,3.49,0,0,1,2.48-.72h2.87V240.3h-2.3a3.49,3.49,0,0,1-2.48-.72,2.49,2.49,0,0,1-.74-1.87,2.46,2.46,0,0,1,.74-1.85,3.49,3.49,0,0,1,2.48-.72h2.3v-2a7.37,7.37,0,0,1,2.36-5.6q2.36-2.23,6.85-2.23a31.81,31.81,0,0,1,4.61.39,6.81,6.81,0,0,1,3.36,1.09,2.39,2.39,0,0,1,.74,1.81,2.8,2.8,0,0,1-.66,1.92,2.08,2.08,0,0,1-1.62.74,7.57,7.57,0,0,1-1.34-.18,26,26,0,0,0-5.28-.63,5.25,5.25,0,0,0-3.3.77,2.4,2.4,0,0,0-.9,1.9v2H368a3.49,3.49,0,0,1,2.48.72,2.49,2.49,0,0,1,.74,1.87,2.46,2.46,0,0,1-.74,1.85,3.49,3.49,0,0,1-2.48.72Z" transform="translate(-167.99 -143.6)"/><path class="cls-2" d="M399.71,235.15v17.68a3.07,3.07,0,0,1,2.25.73,2.52,2.52,0,0,1,.73,1.86,2.46,2.46,0,0,1-.74,1.85,3.49,3.49,0,0,1-2.48.72H394.9V256.8a22.16,22.16,0,0,1-3.95,1.51,13.83,13.83,0,0,1-3.57.5,7.69,7.69,0,0,1-4.11-1.07,7.6,7.6,0,0,1-2.75-3,7.11,7.11,0,0,1-.73-3.4V240.3H379a3.49,3.49,0,0,1-2.48-.72,2.49,2.49,0,0,1-.74-1.87,2.46,2.46,0,0,1,.74-1.85,3.49,3.49,0,0,1,2.48-.72h5.64v15.34a3.36,3.36,0,0,0,.74,2.4,3,3,0,0,0,2.27.77,9.13,9.13,0,0,0,3.13-.62,21.71,21.71,0,0,0,4.14-2.23V240.3h-1.74a3.49,3.49,0,0,1-2.48-.72,2.49,2.49,0,0,1-.74-1.87,2.46,2.46,0,0,1,.74-1.85,3.49,3.49,0,0,1,2.48-.72Z" transform="translate(-167.99 -143.6)"/><path class="cls-2" d="M413.47,235.15v1.74a9,9,0,0,1,2.9-1.81,9.59,9.59,0,0,1,3.44-.6,8.53,8.53,0,0,1,6.76,2.84,8.71,8.71,0,0,1,2,5.94v9.58a3.1,3.1,0,0,1,2.25.72,2.51,2.51,0,0,1,.73,1.87,2.46,2.46,0,0,1-.74,1.85,3.49,3.49,0,0,1-2.48.72H424a3.49,3.49,0,0,1-2.48-.72,2.73,2.73,0,0,1,0-3.72,3.1,3.1,0,0,1,2.25-.72V243.1a3.21,3.21,0,0,0-.85-2.46,4.77,4.77,0,0,0-3.31-1,6,6,0,0,0-2.92.69,13.32,13.32,0,0,0-3.18,2.93v9.58a4.84,4.84,0,0,1,2.39.38,2.69,2.69,0,0,1,.41,4.06,3.49,3.49,0,0,1-2.48.72h-5.47a3.49,3.49,0,0,1-2.48-.72,2.71,2.71,0,0,1,.39-4.06,5,5,0,0,1,2.42-.38V240.3a3.06,3.06,0,0,1-2.25-.73,2.52,2.52,0,0,1-.73-1.86,2.46,2.46,0,0,1,.74-1.85,3.49,3.49,0,0,1,2.48-.72Z" transform="translate(-167.99 -143.6)"/><path class="cls-2" d="M454.71,236.08a2.53,2.53,0,0,1,1.79-.88,2.13,2.13,0,0,1,1.7.79,4.08,4.08,0,0,1,.67,2.63v3.32a4.07,4.07,0,0,1-.67,2.64,2.2,2.2,0,0,1-1.75.78,2.42,2.42,0,0,1-1.67-.6,3.53,3.53,0,0,1-.77-1.85,3,3,0,0,0-1.36-2.07,8.93,8.93,0,0,0-4.86-1.21,7.22,7.22,0,0,0-5.46,2.14,7.49,7.49,0,0,0-2.05,5.41,6,6,0,0,0,2,4.77q2,1.75,6.55,1.75a15.38,15.38,0,0,0,4.91-.65,6,6,0,0,0,2.14-1.37,2.83,2.83,0,0,1,1.83-1,2.24,2.24,0,0,1,1.7.78,2.63,2.63,0,0,1,.72,1.84q0,1.71-2.18,3.24-3.24,2.29-9.49,2.29-5.61,0-8.74-2.49a11,11,0,0,1-4.23-9.15,12.71,12.71,0,0,1,3.43-9.12,11.78,11.78,0,0,1,8.95-3.61,16.23,16.23,0,0,1,3.71.4A12.36,12.36,0,0,1,454.71,236.08Z" transform="translate(-167.99 -143.6)"/><path class="cls-2" d="M474.88,240.3v10.34a2.82,2.82,0,0,0,.63,2.19,5.6,5.6,0,0,0,3.52.83,14.11,14.11,0,0,0,6.81-1.69,4.35,4.35,0,0,1,1.88-.65,2.15,2.15,0,0,1,1.63.75,2.62,2.62,0,0,1,.69,1.84,2.34,2.34,0,0,1-.75,1.74,10.89,10.89,0,0,1-4.54,2.18,21,21,0,0,1-5.72,1q-4.49,0-6.73-2.08a6.67,6.67,0,0,1-2.24-5.09V240.3h-1.74a3.49,3.49,0,0,1-2.48-.72,2.49,2.49,0,0,1-.74-1.87,2.46,2.46,0,0,1,.74-1.85,3.49,3.49,0,0,1,2.48-.72h1.74V230.5a4.13,4.13,0,0,1,.67-2.65,2.18,2.18,0,0,1,1.75-.79,2.16,2.16,0,0,1,1.73.79,4.13,4.13,0,0,1,.67,2.65v4.65h8.9a3.49,3.49,0,0,1,2.48.72,2.49,2.49,0,0,1,.74,1.87,2.46,2.46,0,0,1-.74,1.85,3.49,3.49,0,0,1-2.48.72Z" transform="translate(-167.99 -143.6)"/><path class="cls-2" d="M507.31,235.15v17.68h5.78a3.49,3.49,0,0,1,2.48.72,2.49,2.49,0,0,1,.74,1.87,2.46,2.46,0,0,1-.74,1.85,3.49,3.49,0,0,1-2.48.72H496.72a3.49,3.49,0,0,1-2.48-.72,2.49,2.49,0,0,1-.74-1.87,2.46,2.46,0,0,1,.74-1.85,3.49,3.49,0,0,1,2.48-.72h5.78V240.3h-3.87a3.5,3.5,0,0,1-2.47-.72,2.7,2.7,0,0,1,0-3.72,3.49,3.49,0,0,1,2.48-.72Zm-.66-9.78v5.46h-5.73v-5.46Z" transform="translate(-167.99 -143.6)"/><path class="cls-2" d="M546.29,247a11.72,11.72,0,0,1-1.54,5.75,11.14,11.14,0,0,1-4.58,4.43,13,13,0,0,1-12.65,0,11.24,11.24,0,0,1-4.58-4.41,11.72,11.72,0,0,1-1.57-5.84,12.73,12.73,0,0,1,1.6-6.07,11.65,11.65,0,0,1,4.59-4.69,12.32,12.32,0,0,1,12.59,0,11.55,11.55,0,0,1,4.59,4.7A12.93,12.93,0,0,1,546.29,247Zm-4.81,0a7.17,7.17,0,0,0-1.67-4.58,7.76,7.76,0,0,0-11.44-.58,7.2,7.2,0,0,0-2.18,5.18,6.19,6.19,0,0,0,2.21,4.51,8.09,8.09,0,0,0,10.87,0A6.22,6.22,0,0,0,541.48,247Z" transform="translate(-167.99 -143.6)"/><path class="cls-2" d="M557.77,235.15v1.74a9,9,0,0,1,2.9-1.81,9.59,9.59,0,0,1,3.44-.6,8.53,8.53,0,0,1,6.76,2.84,8.71,8.71,0,0,1,2,5.94v9.58a3.1,3.1,0,0,1,2.25.72,2.51,2.51,0,0,1,.73,1.87,2.46,2.46,0,0,1-.74,1.85,3.49,3.49,0,0,1-2.48.72h-4.34a3.49,3.49,0,0,1-2.48-.72,2.73,2.73,0,0,1,0-3.72,3.1,3.1,0,0,1,2.25-.72V243.1a3.21,3.21,0,0,0-.84-2.46,4.78,4.78,0,0,0-3.31-1,6,6,0,0,0-2.92.69,13.34,13.34,0,0,0-3.18,2.93v9.58a4.85,4.85,0,0,1,2.4.38,2.69,2.69,0,0,1,.41,4.06,3.49,3.49,0,0,1-2.48.72h-5.47a3.49,3.49,0,0,1-2.48-.72,2.71,2.71,0,0,1,.39-4.06,5,5,0,0,1,2.42-.38V240.3a3.07,3.07,0,0,1-2.25-.73,2.52,2.52,0,0,1-.73-1.86,2.46,2.46,0,0,1,.74-1.85,3.49,3.49,0,0,1,2.48-.72Z" transform="translate(-167.99 -143.6)"/><path class="cls-3" d="M619.37,235.15v3.22a26.14,26.14,0,0,1,4.78-3.12,8.08,8.08,0,0,1,3.28-.78,7,7,0,0,1,4.56,1.86,3.46,3.46,0,0,1,1.5,2.57,2.65,2.65,0,0,1-.72,1.87,2.28,2.28,0,0,1-1.73.77,2.81,2.81,0,0,1-1.88-1,2.74,2.74,0,0,0-1.76-1,6.4,6.4,0,0,0-3,1.36,48.41,48.41,0,0,0-5,4.07v7.77h6.86a3.49,3.49,0,0,1,2.48.72,2.49,2.49,0,0,1,.74,1.87,2.46,2.46,0,0,1-.74,1.85,3.49,3.49,0,0,1-2.48.72H611.69a3.49,3.49,0,0,1-2.48-.72,2.49,2.49,0,0,1-.74-1.87,2.46,2.46,0,0,1,.74-1.85,3.49,3.49,0,0,1,2.48-.72h2.86V240.3h-1.74a3.49,3.49,0,0,1-2.48-.72,2.49,2.49,0,0,1-.74-1.87,2.46,2.46,0,0,1,.74-1.85,3.49,3.49,0,0,1,2.48-.72Z" transform="translate(-167.99 -143.6)"/><path class="cls-3" d="M661.31,249.18H641.56a6.5,6.5,0,0,0,2.67,3.24,9.48,9.48,0,0,0,5.18,1.23,28.15,28.15,0,0,0,7.12-1.23,11.57,11.57,0,0,1,2.54-.5,2.1,2.1,0,0,1,1.62.73,2.64,2.64,0,0,1,.66,1.84,2.33,2.33,0,0,1-.7,1.71q-.94.93-4.58,1.77a31,31,0,0,1-7,.84,12.42,12.42,0,0,1-9.24-3.5,11.74,11.74,0,0,1-3.46-8.6,11.4,11.4,0,0,1,3.75-8.84,12.45,12.45,0,0,1,8.63-3.41,13,13,0,0,1,5.39,1.11,11.38,11.38,0,0,1,3.65,2.39,15.22,15.22,0,0,1,2.79,4.6,12,12,0,0,1,.75,4.43ZM656,244a7.87,7.87,0,0,0-2.89-3.31A7.9,7.9,0,0,0,641.7,244Z" transform="translate(-167.99 -143.6)"/><path class="cls-3" d="M672.11,255.14v8.45H675a3.49,3.49,0,0,1,2.48.72,2.49,2.49,0,0,1,.74,1.87,2.46,2.46,0,0,1-.74,1.85,3.49,3.49,0,0,1-2.48.72h-8.52A3.49,3.49,0,0,1,664,268a2.69,2.69,0,0,1,0-3.72,3.5,3.5,0,0,1,2.47-.72h.82V240.3h-.82a3.49,3.49,0,0,1-2.48-.72,2.49,2.49,0,0,1-.74-1.87,2.46,2.46,0,0,1,.74-1.85,3.49,3.49,0,0,1,2.48-.72h5.64v1.76a12.83,12.83,0,0,1,3.5-1.84,11.64,11.64,0,0,1,3.71-.6,11.28,11.28,0,0,1,8.41,3.58,11.47,11.47,0,0,1,3.47,8.21,10.37,10.37,0,0,1-4.11,8.43,12.09,12.09,0,0,1-11.39,2.19A15,15,0,0,1,672.11,255.14Zm14.28-8.85a6.78,6.78,0,0,0-.8-2.75,7,7,0,0,0-2.45-2.79,6.78,6.78,0,0,0-3.89-1.12,6.7,6.7,0,0,0-5.71,2.89,6.59,6.59,0,0,0-1.43,3.82,5.59,5.59,0,0,0,2.05,4,7.64,7.64,0,0,0,10.18,0A5.63,5.63,0,0,0,686.39,246.29Z" transform="translate(-167.99 -143.6)"/><path class="cls-3" d="M719,249.18H699.28a6.5,6.5,0,0,0,2.67,3.24,9.48,9.48,0,0,0,5.18,1.23,28.15,28.15,0,0,0,7.12-1.23,11.57,11.57,0,0,1,2.54-.5,2.1,2.1,0,0,1,1.62.73,2.64,2.64,0,0,1,.66,1.84,2.33,2.33,0,0,1-.7,1.71q-.94.93-4.58,1.77a31,31,0,0,1-7,.84,12.42,12.42,0,0,1-9.24-3.5,11.74,11.74,0,0,1-3.46-8.6,11.4,11.4,0,0,1,3.75-8.84,12.45,12.45,0,0,1,8.63-3.41,13,13,0,0,1,5.39,1.11,11.38,11.38,0,0,1,3.65,2.39,15.22,15.22,0,0,1,2.79,4.6A12,12,0,0,1,719,247ZM713.7,244a7.87,7.87,0,0,0-2.89-3.31A7.9,7.9,0,0,0,699.42,244Z" transform="translate(-167.99 -143.6)"/><path class="cls-3" d="M740.14,258v-1.21a14.93,14.93,0,0,1-4,1.55,17.42,17.42,0,0,1-4,.52,9,9,0,0,1-6.29-2.2,6.5,6.5,0,0,1-2.42-4.87,8.07,8.07,0,0,1,3.09-6q3.09-2.78,8.54-2.78a29.67,29.67,0,0,1,5,.5v-1.23a2.29,2.29,0,0,0-.93-1.89,6.06,6.06,0,0,0-3.53-.73,22.62,22.62,0,0,0-5.54.91,8.51,8.51,0,0,1-2,.33,2.12,2.12,0,0,1-1.63-.74,2.73,2.73,0,0,1-.67-1.9,2.55,2.55,0,0,1,.23-1.13,2,2,0,0,1,.66-.77,7.39,7.39,0,0,1,1.76-.69,31.13,31.13,0,0,1,3.64-.84,20.29,20.29,0,0,1,3.36-.31,10.54,10.54,0,0,1,7,2.08,7,7,0,0,1,2.48,5.67v10.61h.82a3.49,3.49,0,0,1,2.48.72,2.49,2.49,0,0,1,.74,1.87,2.46,2.46,0,0,1-.74,1.85,3.49,3.49,0,0,1-2.48.72Zm0-9.23a26.19,26.19,0,0,0-5.33-.6,8.36,8.36,0,0,0-5,1.53,2.64,2.64,0,0,0-1.32,2,1.39,1.39,0,0,0,.63,1.18,5.49,5.49,0,0,0,3.22.83,12.62,12.62,0,0,0,3.93-.73,14,14,0,0,0,3.91-2Z" transform="translate(-167.99 -143.6)"/><path class="cls-3" d="M763.48,240.3v10.34a2.82,2.82,0,0,0,.63,2.19,5.6,5.6,0,0,0,3.52.83,14.11,14.11,0,0,0,6.81-1.69,4.34,4.34,0,0,1,1.88-.65,2.15,2.15,0,0,1,1.63.75,2.62,2.62,0,0,1,.69,1.84,2.34,2.34,0,0,1-.75,1.74,10.89,10.89,0,0,1-4.54,2.18,21,21,0,0,1-5.72,1q-4.49,0-6.73-2.08a6.67,6.67,0,0,1-2.24-5.09V240.3h-1.74a3.49,3.49,0,0,1-2.48-.72,2.49,2.49,0,0,1-.74-1.87,2.46,2.46,0,0,1,.74-1.85,3.49,3.49,0,0,1,2.48-.72h1.74V230.5a4.13,4.13,0,0,1,.67-2.65,2.18,2.18,0,0,1,1.75-.79,2.16,2.16,0,0,1,1.73.79,4.13,4.13,0,0,1,.67,2.65v4.65h8.9a3.49,3.49,0,0,1,2.48.72,2.49,2.49,0,0,1,.74,1.87,2.46,2.46,0,0,1-.74,1.85,3.49,3.49,0,0,1-2.48.72Z" transform="translate(-167.99 -143.6)"/><path class="cls-1" d="M791.81,245.46a30.63,30.63,0,0,1,1.36-8.9,44.39,44.39,0,0,1,3.12-7.39,15.94,15.94,0,0,1,2.25-3.58,2.34,2.34,0,0,1,1.62-.67,2.28,2.28,0,0,1,1.74.75,2.56,2.56,0,0,1,.7,1.81,3.7,3.7,0,0,1-.56,1.74,40.44,40.44,0,0,0-3.7,8.35,27.5,27.5,0,0,0,0,15.82,40.44,40.44,0,0,0,3.7,8.35,3.59,3.59,0,0,1,.56,1.74,2.56,2.56,0,0,1-.7,1.81,2.28,2.28,0,0,1-1.74.75,2.19,2.19,0,0,1-1.53-.6,15.92,15.92,0,0,1-2.49-3.95,44.39,44.39,0,0,1-3.05-7.34A30.87,30.87,0,0,1,791.81,245.46Z" transform="translate(-167.99 -143.6)"/><path class="cls-1" d="M824.45,245.46a30.91,30.91,0,0,1-1.36,8.93,43.7,43.7,0,0,1-3.12,7.37,16.38,16.38,0,0,1-2.25,3.6,2.32,2.32,0,0,1-1.62.68,2.28,2.28,0,0,1-1.74-.75,2.56,2.56,0,0,1-.71-1.81,3.6,3.6,0,0,1,.56-1.74,40.39,40.39,0,0,0,3.7-8.35,27.5,27.5,0,0,0,0-15.82,40.39,40.39,0,0,0-3.7-8.35,3.71,3.71,0,0,1-.56-1.74,2.56,2.56,0,0,1,.71-1.81,2.28,2.28,0,0,1,1.74-.75,2.19,2.19,0,0,1,1.53.6,15.28,15.28,0,0,1,2.49,3.95,44.89,44.89,0,0,1,3.05,7.32A31.1,31.1,0,0,1,824.45,245.46Z" transform="translate(-167.99 -143.6)"/><path class="cls-1" d="M881.09,245.49a6.12,6.12,0,0,1,1.15,2,11.47,11.47,0,0,1,.3,3.13v8.2a2.32,2.32,0,0,0,.36,1.47,1.92,1.92,0,0,0,1.35.53,2.34,2.34,0,0,1,1.62.82,2.8,2.8,0,0,1-.08,3.65A2.4,2.4,0,0,1,884,266a5.72,5.72,0,0,1-3-.89,7.38,7.38,0,0,1-2.54-2.9,6.5,6.5,0,0,1-.68-3v-9.08a2.44,2.44,0,0,0-.33-1.48,2.19,2.19,0,0,0-1.41-.54,2.49,2.49,0,0,1-1.66-.82,2.67,2.67,0,0,1-.58-1.79,2.71,2.71,0,0,1,.58-1.81,2.5,2.5,0,0,1,1.67-.82q1.09-.14,1.33-.47a2.5,2.5,0,0,0,.4-1.56v-8.6a6.81,6.81,0,0,1,1.88-4.79,5.77,5.77,0,0,1,4.34-2,2.43,2.43,0,0,1,1.84.75,2.77,2.77,0,0,1,.08,3.62,2.41,2.41,0,0,1-1.64.83,1.82,1.82,0,0,0-1.27.45,2.46,2.46,0,0,0-.42,1.56v8.2a8.82,8.82,0,0,1-.32,2.68A6.64,6.64,0,0,1,881.09,245.49Z" transform="translate(-167.99 -143.6)"/><path class="cls-1" d="M459.29,311H439.54a6.5,6.5,0,0,0,2.67,3.24,9.48,9.48,0,0,0,5.18,1.23,28.15,28.15,0,0,0,7.12-1.23,11.56,11.56,0,0,1,2.54-.5,2.1,2.1,0,0,1,1.62.73,2.64,2.64,0,0,1,.66,1.84,2.33,2.33,0,0,1-.7,1.71q-.94.93-4.58,1.77a31,31,0,0,1-7,.84,12.42,12.42,0,0,1-9.24-3.5,11.75,11.75,0,0,1-3.46-8.6,11.4,11.4,0,0,1,3.75-8.84,12.44,12.44,0,0,1,8.63-3.41,13,13,0,0,1,5.39,1.11,11.38,11.38,0,0,1,3.65,2.39,15.23,15.23,0,0,1,2.79,4.6,12,12,0,0,1,.75,4.43ZM454,305.84a7.87,7.87,0,0,0-2.89-3.31,7.9,7.9,0,0,0-11.39,3.31Z" transform="translate(-167.99 -143.6)"/><path class="cls-1" d="M480.4,319.8v-1.21a14.91,14.91,0,0,1-4,1.55,17.4,17.4,0,0,1-4,.52,9,9,0,0,1-6.29-2.2,6.5,6.5,0,0,1-2.42-4.87,8.07,8.07,0,0,1,3.09-6q3.09-2.78,8.54-2.78a29.66,29.66,0,0,1,5,.5v-1.23a2.29,2.29,0,0,0-.93-1.89,6.06,6.06,0,0,0-3.53-.73,22.62,22.62,0,0,0-5.54.91,8.51,8.51,0,0,1-2,.33,2.12,2.12,0,0,1-1.63-.74,2.73,2.73,0,0,1-.67-1.9,2.53,2.53,0,0,1,.24-1.13,2,2,0,0,1,.66-.77,7.41,7.41,0,0,1,1.76-.69,31.14,31.14,0,0,1,3.64-.84,20.28,20.28,0,0,1,3.36-.31,10.54,10.54,0,0,1,7,2.08,7,7,0,0,1,2.48,5.67v10.61H486a3.49,3.49,0,0,1,2.48.72,2.49,2.49,0,0,1,.74,1.87,2.46,2.46,0,0,1-.74,1.85,3.49,3.49,0,0,1-2.48.72Zm0-9.23a26.19,26.19,0,0,0-5.33-.6,8.36,8.36,0,0,0-5,1.53,2.65,2.65,0,0,0-1.32,2,1.39,1.39,0,0,0,.63,1.18,5.49,5.49,0,0,0,3.22.83,12.63,12.63,0,0,0,3.93-.73,14,14,0,0,0,3.91-2Z" transform="translate(-167.99 -143.6)"/><path class="cls-1" d="M503.74,302.12v10.34a2.82,2.82,0,0,0,.63,2.19,5.6,5.6,0,0,0,3.52.83,14.11,14.11,0,0,0,6.81-1.69,4.35,4.35,0,0,1,1.88-.65,2.15,2.15,0,0,1,1.63.75,2.62,2.62,0,0,1,.69,1.84,2.34,2.34,0,0,1-.75,1.74,10.89,10.89,0,0,1-4.54,2.18,21,21,0,0,1-5.72,1q-4.49,0-6.73-2.08a6.67,6.67,0,0,1-2.24-5.09V302.12h-1.74a3.49,3.49,0,0,1-2.48-.72,2.49,2.49,0,0,1-.74-1.87,2.46,2.46,0,0,1,.74-1.85,3.49,3.49,0,0,1,2.48-.72h1.74v-4.65a4.13,4.13,0,0,1,.67-2.65,2.18,2.18,0,0,1,1.75-.79,2.16,2.16,0,0,1,1.73.79,4.13,4.13,0,0,1,.67,2.65V297h8.9a3.49,3.49,0,0,1,2.48.72,2.49,2.49,0,0,1,.74,1.87,2.46,2.46,0,0,1-.74,1.85,3.49,3.49,0,0,1-2.48.72Z" transform="translate(-167.99 -143.6)"/><path class="cls-1" d="M532.06,307.27a30.63,30.63,0,0,1,1.36-8.9,44.39,44.39,0,0,1,3.12-7.39,15.92,15.92,0,0,1,2.25-3.58,2.34,2.34,0,0,1,1.62-.67,2.28,2.28,0,0,1,1.74.75,2.56,2.56,0,0,1,.71,1.81,3.71,3.71,0,0,1-.56,1.74,40.4,40.4,0,0,0-3.7,8.35,27.5,27.5,0,0,0,0,15.82,40.39,40.39,0,0,0,3.7,8.35,3.6,3.6,0,0,1,.56,1.74,2.56,2.56,0,0,1-.71,1.81,2.28,2.28,0,0,1-1.74.75,2.19,2.19,0,0,1-1.53-.6,16,16,0,0,1-2.49-3.95,44.4,44.4,0,0,1-3.05-7.34A30.88,30.88,0,0,1,532.06,307.27Z" transform="translate(-167.99 -143.6)"/><path class="cls-1" d="M564.7,307.27a30.87,30.87,0,0,1-1.36,8.93,43.62,43.62,0,0,1-3.12,7.37,16.39,16.39,0,0,1-2.25,3.6,2.33,2.33,0,0,1-1.62.68,2.28,2.28,0,0,1-1.74-.75,2.56,2.56,0,0,1-.71-1.81,3.59,3.59,0,0,1,.56-1.74,40.44,40.44,0,0,0,3.7-8.35,27.5,27.5,0,0,0,0-15.82,40.44,40.44,0,0,0-3.7-8.35,3.7,3.7,0,0,1-.56-1.74,2.56,2.56,0,0,1,.71-1.81,2.28,2.28,0,0,1,1.74-.75,2.19,2.19,0,0,1,1.53.6,15.28,15.28,0,0,1,2.49,3.95,44.89,44.89,0,0,1,3.05,7.32A31.06,31.06,0,0,1,564.7,307.27Z" transform="translate(-167.99 -143.6)"/><path class="cls-1" d="M589.92,312.28h6.13l-6.79,11.8q-.66,1.18-1.29,1.18a1.42,1.42,0,0,1-1-.38,1.09,1.09,0,0,1-.41-.8,3.29,3.29,0,0,1,.16-.88Zm7.44-11.75a3.34,3.34,0,0,1-1,2.44,3.55,3.55,0,0,1-2.65,1,3.49,3.49,0,0,1-2.63-1,3.59,3.59,0,0,1,0-4.88,3.48,3.48,0,0,1,2.64-1,3.55,3.55,0,0,1,2.65,1A3.37,3.37,0,0,1,597.37,300.53Z" transform="translate(-167.99 -143.6)"/><path class="cls-1" d="M452.41,364.81a9.15,9.15,0,0,0-5.17-1.56,8.63,8.63,0,0,0-4.44,1q-.73.43-.73.93t1,1.13a12.52,12.52,0,0,0,3.36.78,37.07,37.07,0,0,1,6.67,1.41,8.09,8.09,0,0,1,3.8,2.77,6.47,6.47,0,0,1,1.34,3.87,5.75,5.75,0,0,1-2.28,4.63,12.89,12.89,0,0,1-8.48,2.69,18,18,0,0,1-3.86-.39,13.51,13.51,0,0,1-3.25-1.14,2.72,2.72,0,0,1-.75.5,2,2,0,0,1-.82.18,2.23,2.23,0,0,1-1.8-.79,4.13,4.13,0,0,1-.67-2.65V376.4a4.13,4.13,0,0,1,.67-2.65,2.18,2.18,0,0,1,1.75-.79,2.12,2.12,0,0,1,1.46.52,3.5,3.5,0,0,1,.92,1.77,7.3,7.3,0,0,0,2.65,1.52,11.31,11.31,0,0,0,3.57.52,10,10,0,0,0,5.14-1.11q.87-.55.87-1.16a1.92,1.92,0,0,0-1.24-1.66,17.36,17.36,0,0,0-5.14-1.11q-5.8-.65-7.75-2.52a6,6,0,0,1-1.95-4.53,5.77,5.77,0,0,1,2.18-4.6,11.56,11.56,0,0,1,7.75-2.52,14.86,14.86,0,0,1,3.21.34,12.7,12.7,0,0,1,2.95,1,4.2,4.2,0,0,1,.83-.53,1.76,1.76,0,0,1,.72-.18,2.05,2.05,0,0,1,1.64.79,4.19,4.19,0,0,1,.66,2.65v1.26a4.76,4.76,0,0,1-.38,2.29,2.32,2.32,0,0,1-2,1.16,2.24,2.24,0,0,1-1.53-.58A2.65,2.65,0,0,1,452.41,364.81Z" transform="translate(-167.99 -143.6)"/><path class="cls-1" d="M478.47,349v27.46h5.78a3.49,3.49,0,0,1,2.48.72,2.49,2.49,0,0,1,.74,1.87,2.46,2.46,0,0,1-.74,1.85,3.49,3.49,0,0,1-2.48.72H467.88a3.49,3.49,0,0,1-2.48-.72,2.49,2.49,0,0,1-.74-1.87,2.46,2.46,0,0,1,.74-1.85,3.49,3.49,0,0,1,2.48-.72h5.78V354.14h-3.87a3.5,3.5,0,0,1-2.47-.72,2.7,2.7,0,0,1,0-3.72,3.49,3.49,0,0,1,2.48-.72Z" transform="translate(-167.99 -143.6)"/><path class="cls-1" d="M517,372.8H497.26a6.49,6.49,0,0,0,2.66,3.24,9.48,9.48,0,0,0,5.18,1.23,28.14,28.14,0,0,0,7.12-1.23,11.58,11.58,0,0,1,2.54-.5,2.1,2.1,0,0,1,1.62.73,2.64,2.64,0,0,1,.66,1.84,2.33,2.33,0,0,1-.71,1.71q-.94.93-4.58,1.77a31,31,0,0,1-7,.84,12.43,12.43,0,0,1-9.24-3.5,11.75,11.75,0,0,1-3.46-8.6,11.4,11.4,0,0,1,3.75-8.84,12.44,12.44,0,0,1,8.63-3.41,13,13,0,0,1,5.39,1.11,11.39,11.39,0,0,1,3.65,2.39,15.24,15.24,0,0,1,2.79,4.6,12,12,0,0,1,.75,4.43Zm-5.33-5.16a7.86,7.86,0,0,0-2.89-3.31,7.9,7.9,0,0,0-11.39,3.31Z" transform="translate(-167.99 -143.6)"/><path class="cls-1" d="M545.87,372.8H526.12a6.49,6.49,0,0,0,2.67,3.24,9.48,9.48,0,0,0,5.18,1.23,28.14,28.14,0,0,0,7.12-1.23,11.58,11.58,0,0,1,2.54-.5,2.1,2.1,0,0,1,1.62.73,2.64,2.64,0,0,1,.66,1.84,2.33,2.33,0,0,1-.71,1.71q-.94.93-4.58,1.77a31,31,0,0,1-7,.84,12.43,12.43,0,0,1-9.24-3.5,11.75,11.75,0,0,1-3.46-8.6,11.4,11.4,0,0,1,3.75-8.84,12.44,12.44,0,0,1,8.63-3.41,13,13,0,0,1,5.39,1.11,11.39,11.39,0,0,1,3.65,2.39,15.23,15.23,0,0,1,2.79,4.6,12,12,0,0,1,.75,4.43Zm-5.33-5.16a7.86,7.86,0,0,0-2.89-3.31,7.9,7.9,0,0,0-11.39,3.31Z" transform="translate(-167.99 -143.6)"/><path class="cls-1" d="M556.67,378.77v8.45h2.89a3.49,3.49,0,0,1,2.48.72,2.49,2.49,0,0,1,.74,1.87,2.46,2.46,0,0,1-.74,1.85,3.49,3.49,0,0,1-2.48.72H551a3.49,3.49,0,0,1-2.48-.72,2.69,2.69,0,0,1,0-3.72,3.5,3.5,0,0,1,2.47-.72h.82V363.93H551a3.49,3.49,0,0,1-2.48-.72,2.49,2.49,0,0,1-.74-1.87,2.46,2.46,0,0,1,.74-1.85,3.49,3.49,0,0,1,2.48-.72h5.64v1.76a12.84,12.84,0,0,1,3.5-1.84,11.64,11.64,0,0,1,3.71-.6,11.28,11.28,0,0,1,8.41,3.58,11.47,11.47,0,0,1,3.48,8.21,10.37,10.37,0,0,1-4.11,8.43,12.09,12.09,0,0,1-11.39,2.19A15,15,0,0,1,556.67,378.77Zm14.28-8.85a6.79,6.79,0,0,0-.8-2.75,7,7,0,0,0-2.45-2.79,6.77,6.77,0,0,0-3.89-1.12,6.7,6.7,0,0,0-5.71,2.89,6.59,6.59,0,0,0-1.43,3.82,5.59,5.59,0,0,0,2.05,4,7.64,7.64,0,0,0,10.18,0A5.63,5.63,0,0,0,570.95,369.91Z" transform="translate(-167.99 -143.6)"/><path class="cls-1" d="M589.78,369.08a30.63,30.63,0,0,1,1.36-8.9,44.39,44.39,0,0,1,3.12-7.39,15.92,15.92,0,0,1,2.25-3.58,2.34,2.34,0,0,1,1.62-.67,2.28,2.28,0,0,1,1.74.75,2.56,2.56,0,0,1,.71,1.81,3.71,3.71,0,0,1-.56,1.74,40.39,40.39,0,0,0-3.7,8.35,27.5,27.5,0,0,0,0,15.82,40.4,40.4,0,0,0,3.7,8.35,3.6,3.6,0,0,1,.56,1.74,2.56,2.56,0,0,1-.71,1.81,2.28,2.28,0,0,1-1.74.75,2.19,2.19,0,0,1-1.53-.6,16,16,0,0,1-2.49-3.95,44.41,44.41,0,0,1-3.05-7.34A30.88,30.88,0,0,1,589.78,369.08Z" transform="translate(-167.99 -143.6)"/><path class="cls-1" d="M622.42,369.08a30.87,30.87,0,0,1-1.36,8.93,43.62,43.62,0,0,1-3.12,7.37,16.39,16.39,0,0,1-2.25,3.6,2.33,2.33,0,0,1-1.62.68,2.28,2.28,0,0,1-1.74-.75,2.56,2.56,0,0,1-.71-1.81,3.59,3.59,0,0,1,.56-1.74,40.44,40.44,0,0,0,3.7-8.35,27.5,27.5,0,0,0,0-15.82,40.44,40.44,0,0,0-3.7-8.35,3.7,3.7,0,0,1-.56-1.74,2.56,2.56,0,0,1,.71-1.81,2.28,2.28,0,0,1,1.74-.75,2.19,2.19,0,0,1,1.53.6,15.28,15.28,0,0,1,2.49,3.95,44.89,44.89,0,0,1,3.05,7.32A31.06,31.06,0,0,1,622.42,369.08Z" transform="translate(-167.99 -143.6)"/><path class="cls-1" d="M647.64,374.09h6.13L647,385.88q-.66,1.18-1.29,1.18a1.42,1.42,0,0,1-1-.38,1.09,1.09,0,0,1-.41-.8,3.29,3.29,0,0,1,.16-.88Zm7.44-11.75a3.34,3.34,0,0,1-1,2.44,3.55,3.55,0,0,1-2.65,1,3.49,3.49,0,0,1-2.63-1,3.59,3.59,0,0,1,0-4.88,3.48,3.48,0,0,1,2.64-1,3.55,3.55,0,0,1,2.65,1A3.38,3.38,0,0,1,655.09,362.34Z" transform="translate(-167.99 -143.6)"/><path class="cls-1" d="M454.71,421.51a2.53,2.53,0,0,1,1.79-.88,2.13,2.13,0,0,1,1.7.79,4.08,4.08,0,0,1,.67,2.63v3.32a4.07,4.07,0,0,1-.67,2.64,2.2,2.2,0,0,1-1.75.78,2.43,2.43,0,0,1-1.67-.6,3.53,3.53,0,0,1-.77-1.85,3,3,0,0,0-1.36-2.07,8.93,8.93,0,0,0-4.86-1.21,7.22,7.22,0,0,0-5.46,2.14,7.49,7.49,0,0,0-2.05,5.41,6,6,0,0,0,2,4.77q2,1.75,6.55,1.75a15.36,15.36,0,0,0,4.91-.65,6,6,0,0,0,2.14-1.37,2.84,2.84,0,0,1,1.83-1,2.24,2.24,0,0,1,1.7.78,2.62,2.62,0,0,1,.72,1.84q0,1.71-2.18,3.24-3.24,2.29-9.49,2.29-5.61,0-8.74-2.49a11,11,0,0,1-4.23-9.15,12.71,12.71,0,0,1,3.43-9.12,11.78,11.78,0,0,1,8.95-3.61,16.2,16.2,0,0,1,3.71.4A12.31,12.31,0,0,1,454.71,421.51Z" transform="translate(-167.99 -143.6)"/><path class="cls-1" d="M488.57,432.43a11.72,11.72,0,0,1-1.54,5.75,11.14,11.14,0,0,1-4.58,4.43,13,13,0,0,1-12.65,0,11.23,11.23,0,0,1-4.58-4.41,11.72,11.72,0,0,1-1.57-5.83,12.73,12.73,0,0,1,1.6-6.07,11.66,11.66,0,0,1,4.59-4.69,12.32,12.32,0,0,1,12.59,0,11.54,11.54,0,0,1,4.59,4.7A12.93,12.93,0,0,1,488.57,432.43Zm-4.81,0a7.17,7.17,0,0,0-1.67-4.58,7.76,7.76,0,0,0-11.44-.58,7.2,7.2,0,0,0-2.18,5.18,6.19,6.19,0,0,0,2.21,4.51,8.09,8.09,0,0,0,10.87,0A6.22,6.22,0,0,0,483.76,432.45Z" transform="translate(-167.99 -143.6)"/><path class="cls-1" d="M516,410.8v27.46h.82a3.5,3.5,0,0,1,2.47.72,2.7,2.7,0,0,1,0,3.72,3.49,3.49,0,0,1-2.48.72h-5.64v-1.26a13.75,13.75,0,0,1-3.44,1.56,13.11,13.11,0,0,1-3.72.53,11.72,11.72,0,0,1-8.74-3.36,11.43,11.43,0,0,1-3.31-8.36,12.57,12.57,0,0,1,3.48-8.93,11.19,11.19,0,0,1,8.48-3.7,11.37,11.37,0,0,1,3.69.62,14.29,14.29,0,0,1,3.57,1.85V416h-.82a3.49,3.49,0,0,1-2.48-.72,2.46,2.46,0,0,1-.74-1.85,2.49,2.49,0,0,1,.74-1.87,3.49,3.49,0,0,1,2.48-.72Zm-4.81,21.88a7.58,7.58,0,0,0-2.09-5.41,7,7,0,0,0-10.21,0,7.49,7.49,0,0,0-2.09,5.33,6.22,6.22,0,0,0,1.88,4.67,8.64,8.64,0,0,0,10.61,0A6.09,6.09,0,0,0,511.16,432.68Z" transform="translate(-167.99 -143.6)"/><path class="cls-1" d="M545.87,434.62H526.12a6.49,6.49,0,0,0,2.67,3.24,9.47,9.47,0,0,0,5.18,1.23,28.11,28.11,0,0,0,7.12-1.23,11.6,11.6,0,0,1,2.54-.5,2.1,2.1,0,0,1,1.62.73,2.64,2.64,0,0,1,.66,1.84,2.33,2.33,0,0,1-.71,1.71q-.94.93-4.58,1.77a31,31,0,0,1-7,.84,12.43,12.43,0,0,1-9.24-3.5,11.74,11.74,0,0,1-3.46-8.6,11.4,11.4,0,0,1,3.75-8.84,12.44,12.44,0,0,1,8.63-3.41,13,13,0,0,1,5.39,1.11,11.39,11.39,0,0,1,3.65,2.39,15.23,15.23,0,0,1,2.79,4.6,12.05,12.05,0,0,1,.75,4.43Zm-5.33-5.16a7.86,7.86,0,0,0-2.89-3.31,7.9,7.9,0,0,0-11.39,3.31Z" transform="translate(-167.99 -143.6)"/><path class="cls-1" d="M560.92,430.89a30.63,30.63,0,0,1,1.36-8.9,44.37,44.37,0,0,1,3.12-7.39,15.89,15.89,0,0,1,2.25-3.58,2.34,2.34,0,0,1,1.62-.67,2.28,2.28,0,0,1,1.74.75,2.56,2.56,0,0,1,.71,1.81,3.71,3.71,0,0,1-.56,1.74,40.38,40.38,0,0,0-3.7,8.35,27.5,27.5,0,0,0,0,15.82,40.42,40.42,0,0,0,3.7,8.35,3.6,3.6,0,0,1,.56,1.73,2.56,2.56,0,0,1-.71,1.81,2.28,2.28,0,0,1-1.74.75,2.19,2.19,0,0,1-1.53-.6,16,16,0,0,1-2.49-3.95,44.41,44.41,0,0,1-3.05-7.34A30.88,30.88,0,0,1,560.92,430.89Z" transform="translate(-167.99 -143.6)"/><path class="cls-1" d="M593.56,430.89a30.88,30.88,0,0,1-1.36,8.93,43.62,43.62,0,0,1-3.12,7.37,16.41,16.41,0,0,1-2.25,3.6,2.32,2.32,0,0,1-1.62.68,2.28,2.28,0,0,1-1.74-.75,2.56,2.56,0,0,1-.7-1.81,3.59,3.59,0,0,1,.56-1.73,40.48,40.48,0,0,0,3.7-8.35A27.5,27.5,0,0,0,587,423a40.43,40.43,0,0,0-3.7-8.35,3.7,3.7,0,0,1-.56-1.74,2.56,2.56,0,0,1,.7-1.81,2.28,2.28,0,0,1,1.74-.75,2.19,2.19,0,0,1,1.53.6,15.28,15.28,0,0,1,2.49,3.95,44.93,44.93,0,0,1,3.05,7.32A31.06,31.06,0,0,1,593.56,430.89Z" transform="translate(-167.99 -143.6)"/><path class="cls-1" d="M618.78,435.9h6.13l-6.79,11.8q-.66,1.18-1.29,1.18a1.42,1.42,0,0,1-1-.38,1.09,1.09,0,0,1-.41-.8,3.29,3.29,0,0,1,.16-.88Zm7.44-11.75a3.35,3.35,0,0,1-1,2.44,3.55,3.55,0,0,1-2.65,1,3.49,3.49,0,0,1-2.63-1,3.59,3.59,0,0,1,0-4.88,3.48,3.48,0,0,1,2.64-1,3.55,3.55,0,0,1,2.65,1A3.38,3.38,0,0,1,626.23,424.15Z" transform="translate(-167.99 -143.6)"/><path class="cls-1" d="M446.21,482.39v3.22a26.18,26.18,0,0,1,4.78-3.12,8.08,8.08,0,0,1,3.28-.78,7,7,0,0,1,4.56,1.86,3.46,3.46,0,0,1,1.5,2.57,2.65,2.65,0,0,1-.72,1.87,2.28,2.28,0,0,1-1.73.77,2.8,2.8,0,0,1-1.88-1,2.75,2.75,0,0,0-1.76-1,6.41,6.41,0,0,0-3,1.36,48.63,48.63,0,0,0-5,4.07v7.77h6.86a3.5,3.5,0,0,1,2.48.72,2.49,2.49,0,0,1,.74,1.88,2.46,2.46,0,0,1-.74,1.85,3.49,3.49,0,0,1-2.48.72H438.53a3.49,3.49,0,0,1-2.48-.72,2.71,2.71,0,0,1,0-3.72,3.5,3.5,0,0,1,2.48-.72h2.87V487.55h-1.74a3.5,3.5,0,0,1-2.48-.72,2.49,2.49,0,0,1-.74-1.87,2.46,2.46,0,0,1,.74-1.85,3.49,3.49,0,0,1,2.48-.72Z" transform="translate(-167.99 -143.6)"/><path class="cls-1" d="M488.15,496.43H468.4a6.48,6.48,0,0,0,2.66,3.24,9.47,9.47,0,0,0,5.18,1.23,28.1,28.1,0,0,0,7.12-1.23,11.64,11.64,0,0,1,2.54-.5,2.1,2.1,0,0,1,1.62.73,2.64,2.64,0,0,1,.66,1.84,2.33,2.33,0,0,1-.71,1.71q-.94.93-4.58,1.77a31.08,31.08,0,0,1-7,.84,12.42,12.42,0,0,1-9.24-3.5,11.74,11.74,0,0,1-3.46-8.6,11.4,11.4,0,0,1,3.75-8.84,12.45,12.45,0,0,1,8.63-3.41,13,13,0,0,1,5.39,1.11,11.39,11.39,0,0,1,3.65,2.39,15.23,15.23,0,0,1,2.79,4.6,12.05,12.05,0,0,1,.75,4.43Zm-5.33-5.16a7.86,7.86,0,0,0-2.89-3.31,7.9,7.9,0,0,0-11.39,3.31Z" transform="translate(-167.99 -143.6)"/><path class="cls-1" d="M499,502.39v8.45h2.89a3.49,3.49,0,0,1,2.48.72,2.49,2.49,0,0,1,.74,1.87,2.46,2.46,0,0,1-.74,1.85,3.5,3.5,0,0,1-2.48.72h-8.52a3.5,3.5,0,0,1-2.48-.72,2.69,2.69,0,0,1,0-3.72,3.5,3.5,0,0,1,2.47-.72h.82V487.55h-.82a3.5,3.5,0,0,1-2.48-.72,2.49,2.49,0,0,1-.74-1.87,2.46,2.46,0,0,1,.74-1.85,3.49,3.49,0,0,1,2.48-.72H499v1.76a12.84,12.84,0,0,1,3.5-1.84,11.64,11.64,0,0,1,3.71-.6,11.28,11.28,0,0,1,8.41,3.58,11.47,11.47,0,0,1,3.48,8.21,10.37,10.37,0,0,1-4.11,8.43,12.08,12.08,0,0,1-11.39,2.19A15.06,15.06,0,0,1,499,502.39Zm14.28-8.85a6.79,6.79,0,0,0-.8-2.75A7,7,0,0,0,510,488a6.77,6.77,0,0,0-3.89-1.12,6.7,6.7,0,0,0-5.71,2.89,6.59,6.59,0,0,0-1.43,3.82,5.59,5.59,0,0,0,2.05,4,7.64,7.64,0,0,0,10.18,0A5.62,5.62,0,0,0,513.23,493.53Z" transform="translate(-167.99 -143.6)"/><path class="cls-1" d="M545.87,496.43H526.12a6.48,6.48,0,0,0,2.67,3.24A9.47,9.47,0,0,0,534,500.9a28.1,28.1,0,0,0,7.12-1.23,11.64,11.64,0,0,1,2.54-.5,2.1,2.1,0,0,1,1.62.73,2.64,2.64,0,0,1,.66,1.84,2.33,2.33,0,0,1-.71,1.71q-.94.93-4.58,1.77a31.08,31.08,0,0,1-7,.84,12.42,12.42,0,0,1-9.24-3.5,11.74,11.74,0,0,1-3.46-8.6,11.4,11.4,0,0,1,3.75-8.84,12.45,12.45,0,0,1,8.63-3.41,13,13,0,0,1,5.39,1.11,11.39,11.39,0,0,1,3.65,2.39,15.23,15.23,0,0,1,2.79,4.6,12.05,12.05,0,0,1,.75,4.43Zm-5.33-5.16a7.86,7.86,0,0,0-2.89-3.31,7.9,7.9,0,0,0-11.39,3.31Z" transform="translate(-167.99 -143.6)"/><path class="cls-1" d="M567,505.23V504a14.93,14.93,0,0,1-4,1.55,17.4,17.4,0,0,1-4,.52,9,9,0,0,1-6.29-2.2,6.5,6.5,0,0,1-2.42-4.87,8.07,8.07,0,0,1,3.09-6q3.09-2.78,8.54-2.78a29.56,29.56,0,0,1,5,.5v-1.23a2.29,2.29,0,0,0-.93-1.89,6.07,6.07,0,0,0-3.53-.73,22.61,22.61,0,0,0-5.54.91,8.52,8.52,0,0,1-2,.33,2.12,2.12,0,0,1-1.63-.74,2.73,2.73,0,0,1-.67-1.9,2.54,2.54,0,0,1,.24-1.13,2,2,0,0,1,.66-.77,7.43,7.43,0,0,1,1.76-.69A31.14,31.14,0,0,1,559,482a20.33,20.33,0,0,1,3.36-.31,10.54,10.54,0,0,1,7,2.08,7,7,0,0,1,2.48,5.67v10.61h.82a3.5,3.5,0,0,1,2.48.72,2.5,2.5,0,0,1,.74,1.88,2.46,2.46,0,0,1-.74,1.85,3.49,3.49,0,0,1-2.48.72Zm0-9.23a26.19,26.19,0,0,0-5.33-.6,8.36,8.36,0,0,0-5,1.54,2.65,2.65,0,0,0-1.32,2,1.39,1.39,0,0,0,.63,1.18,5.48,5.48,0,0,0,3.22.83,12.64,12.64,0,0,0,3.93-.73,14,14,0,0,0,3.91-2Z" transform="translate(-167.99 -143.6)"/><path class="cls-1" d="M590.32,487.55v10.34a2.82,2.82,0,0,0,.63,2.19,5.59,5.59,0,0,0,3.52.83,14.12,14.12,0,0,0,6.81-1.68,4.32,4.32,0,0,1,1.88-.65,2.15,2.15,0,0,1,1.63.75,2.62,2.62,0,0,1,.69,1.84,2.34,2.34,0,0,1-.75,1.74,10.9,10.9,0,0,1-4.54,2.18,21,21,0,0,1-5.72,1q-4.49,0-6.73-2.07a6.67,6.67,0,0,1-2.24-5.09V487.55h-1.74a3.49,3.49,0,0,1-2.48-.72,2.49,2.49,0,0,1-.74-1.87,2.46,2.46,0,0,1,.74-1.85,3.49,3.49,0,0,1,2.48-.72h1.74v-4.65a4.12,4.12,0,0,1,.67-2.65,2.18,2.18,0,0,1,1.75-.79,2.16,2.16,0,0,1,1.73.79,4.12,4.12,0,0,1,.67,2.65v4.65h8.9a3.49,3.49,0,0,1,2.48.72,2.49,2.49,0,0,1,.74,1.87,2.46,2.46,0,0,1-.74,1.85,3.5,3.5,0,0,1-2.48.72Z" transform="translate(-167.99 -143.6)"/><path class="cls-1" d="M618.64,492.7a30.62,30.62,0,0,1,1.36-8.9,44.41,44.41,0,0,1,3.12-7.39,15.91,15.91,0,0,1,2.25-3.58,2.34,2.34,0,0,1,1.62-.67,2.28,2.28,0,0,1,1.74.75,2.56,2.56,0,0,1,.7,1.81,3.7,3.7,0,0,1-.56,1.74,40.34,40.34,0,0,0-3.7,8.35,27.48,27.48,0,0,0,0,15.82,40.44,40.44,0,0,0,3.7,8.35,3.59,3.59,0,0,1,.56,1.73,2.56,2.56,0,0,1-.7,1.81,2.29,2.29,0,0,1-1.74.75,2.19,2.19,0,0,1-1.53-.6,16,16,0,0,1-2.49-3.95,44.38,44.38,0,0,1-3.05-7.34A30.88,30.88,0,0,1,618.64,492.7Z" transform="translate(-167.99 -143.6)"/><path class="cls-1" d="M651.28,492.7a30.91,30.91,0,0,1-1.36,8.93A43.71,43.71,0,0,1,646.8,509a16.36,16.36,0,0,1-2.25,3.6,2.32,2.32,0,0,1-1.62.68,2.28,2.28,0,0,1-1.74-.75,2.56,2.56,0,0,1-.71-1.81A3.6,3.6,0,0,1,641,509a40.45,40.45,0,0,0,3.7-8.35,27.5,27.5,0,0,0,0-15.82,40.36,40.36,0,0,0-3.7-8.35,3.71,3.71,0,0,1-.56-1.74,2.56,2.56,0,0,1,.71-1.81,2.28,2.28,0,0,1,1.74-.75,2.19,2.19,0,0,1,1.53.6,15.27,15.27,0,0,1,2.49,3.95A44.87,44.87,0,0,1,650,484,31.08,31.08,0,0,1,651.28,492.7Z" transform="translate(-167.99 -143.6)"/><path class="cls-1" d="M676.5,497.71h6.13l-6.79,11.79q-.66,1.18-1.29,1.18a1.42,1.42,0,0,1-1-.38,1.09,1.09,0,0,1-.41-.8,3.29,3.29,0,0,1,.16-.88ZM683.95,486a3.34,3.34,0,0,1-1,2.44,3.55,3.55,0,0,1-2.65,1,3.49,3.49,0,0,1-2.63-1,3.59,3.59,0,0,1,0-4.88,3.48,3.48,0,0,1,2.64-1,3.55,3.55,0,0,1,2.65,1A3.38,3.38,0,0,1,683.95,486Z" transform="translate(-167.99 -143.6)"/><path class="cls-1" d="M330.67,554.54a6.52,6.52,0,0,1-1.14-2,8.83,8.83,0,0,1-.32-2.65v-8.2a2.32,2.32,0,0,0-.36-1.47,2,2,0,0,0-1.35-.54,2.39,2.39,0,0,1-1.62-.83,2.77,2.77,0,0,1,.08-3.62,2.4,2.4,0,0,1,1.82-.76,5.73,5.73,0,0,1,3,.89,7.38,7.38,0,0,1,2.54,2.91,6.44,6.44,0,0,1,.68,3v8.6a2.5,2.5,0,0,0,.33,1.5,2.1,2.1,0,0,0,1.41.54,2.44,2.44,0,0,1,1.66.8,2.71,2.71,0,0,1,.58,1.81,2.67,2.67,0,0,1-.58,1.79,2.5,2.5,0,0,1-1.67.82c-.73.09-1.17.25-1.33.46a2.5,2.5,0,0,0-.4,1.56v9.08a6.84,6.84,0,0,1-1.88,4.82,5.77,5.77,0,0,1-4.34,2,2.43,2.43,0,0,1-1.84-.75,2.77,2.77,0,0,1-.08-3.62,2.41,2.41,0,0,1,1.64-.83,1.82,1.82,0,0,0,1.27-.45,2.46,2.46,0,0,0,.42-1.56v-8.2a11.72,11.72,0,0,1,.29-3.12A6.05,6.05,0,0,1,330.67,554.54Z" transform="translate(-167.99 -143.6)"/><path class="cls-1" d="M362.68,554.51a30.91,30.91,0,0,1-1.36,8.93,43.73,43.73,0,0,1-3.12,7.37,16.33,16.33,0,0,1-2.25,3.6,2.32,2.32,0,0,1-1.62.68,2.29,2.29,0,0,1-1.74-.75,2.56,2.56,0,0,1-.7-1.81,3.59,3.59,0,0,1,.56-1.73,40.43,40.43,0,0,0,3.7-8.35,27.48,27.48,0,0,0,0-15.82,40.34,40.34,0,0,0-3.7-8.35,3.7,3.7,0,0,1-.56-1.74,2.56,2.56,0,0,1,.7-1.81,2.28,2.28,0,0,1,1.74-.75,2.19,2.19,0,0,1,1.53.6,15.3,15.3,0,0,1,2.49,3.95,45,45,0,0,1,3.05,7.32A31.08,31.08,0,0,1,362.68,554.51Z" transform="translate(-167.99 -143.6)"/><path class="cls-1" d="M387.76,554.51a30.62,30.62,0,0,1,1.36-8.9,44.41,44.41,0,0,1,3.12-7.39,15.9,15.9,0,0,1,2.25-3.58,2.35,2.35,0,0,1,1.62-.67,2.28,2.28,0,0,1,1.74.75,2.56,2.56,0,0,1,.7,1.81,3.7,3.7,0,0,1-.56,1.74,40.34,40.34,0,0,0-3.7,8.35,27.5,27.5,0,0,0,0,15.82,40.43,40.43,0,0,0,3.7,8.35,3.59,3.59,0,0,1,.56,1.73,2.56,2.56,0,0,1-.7,1.81,2.29,2.29,0,0,1-1.74.75,2.19,2.19,0,0,1-1.53-.6,16,16,0,0,1-2.49-3.95,44.39,44.39,0,0,1-3.05-7.34A30.91,30.91,0,0,1,387.76,554.51Z" transform="translate(-167.99 -143.6)"/><path class="cls-1" d="M420.4,554.51a30.91,30.91,0,0,1-1.36,8.93,43.72,43.72,0,0,1-3.12,7.37,16.34,16.34,0,0,1-2.25,3.6,2.32,2.32,0,0,1-1.62.68,2.29,2.29,0,0,1-1.74-.75,2.56,2.56,0,0,1-.7-1.81,3.59,3.59,0,0,1,.56-1.73,40.43,40.43,0,0,0,3.7-8.35,27.48,27.48,0,0,0,0-15.82,40.34,40.34,0,0,0-3.7-8.35,3.7,3.7,0,0,1-.56-1.74,2.56,2.56,0,0,1,.7-1.81A2.28,2.28,0,0,1,412,534a2.19,2.19,0,0,1,1.53.6,15.3,15.3,0,0,1,2.49,3.95,45,45,0,0,1,3.05,7.32A31.08,31.08,0,0,1,420.4,554.51Z" transform="translate(-167.99 -143.6)"/><path class="cls-1" d="M445.62,559.52h6.13L445,571.31q-.66,1.18-1.29,1.18a1.42,1.42,0,0,1-1-.38,1.09,1.09,0,0,1-.41-.8,3.24,3.24,0,0,1,.16-.88Zm7.44-11.75a3.34,3.34,0,0,1-1,2.44,3.55,3.55,0,0,1-2.65,1,3.49,3.49,0,0,1-2.63-1,3.59,3.59,0,0,1,0-4.88,3.49,3.49,0,0,1,2.64-1,3.56,3.56,0,0,1,2.65,1A3.38,3.38,0,0,1,453.06,547.77Z" transform="translate(-167.99 -143.6)"/><text x="-167.99" y="-143.6"></text></svg>