<svg id="Layer_1" data-name="Layer 1" xmlns="http://www.w3.org/2000/svg" viewBox="0 0 137.33 50.33"><defs><style>.cls-1{fill:#1d1d1b;}</style></defs><title>logo4</title><path class="cls-1" d="M239.63,442.82c-.23,1.85-1.62,2.86-4.17,2.86-3,0-4.86-1.78-4.86-4.79s1.85-4.79,4.94-4.79c2.47,0,3.86,1,3.94,2.62H238c-.08-.93-1.08-1.62-2.62-1.62-2.24,0-3.55,1.39-3.55,3.78s1.31,3.78,3.71,3.78c1.54,0,2.47-.69,2.55-1.85Z" transform="translate(-229.75 -395.35)"/><path class="cls-1" d="M246,444.44c1.54,0,2.32-.39,2.32-1.62s-.85-1.7-2.55-1.7h-2.93v3.32Zm-3.24-4.4h2.78c1.62,0,2.39-.31,2.39-1.47s-.77-1.39-2.32-1.39h-2.86Zm-1.24-3.86H246a5.16,5.16,0,0,1,2.39.39,1.93,1.93,0,0,1,1,1.85,2,2,0,0,1-1.85,2.08,2.28,2.28,0,0,1,2.16,2.32,2.56,2.56,0,0,1-.77,1.85,3.82,3.82,0,0,1-2.86.77h-4.48Z" transform="translate(-229.75 -395.35)"/><path class="cls-1" d="M260.24,440.35c1.93,0,2.78-.15,2.78-1.54s-.93-1.47-2.86-1.47h-2.39v3Zm-3.63-4.17h4.09a5.15,5.15,0,0,1,2.7.46,2.21,2.21,0,0,1,.93,2,2.08,2.08,0,0,1-2,2.24c1.16,0,1.39.62,1.62,1.93l.23,1.24a4.14,4.14,0,0,0,.46,1.39h-1.39a4.08,4.08,0,0,1-.31-1.31l-.23-1.54c-.15-1.08-.85-1.24-2.32-1.24h-2.47v4.09h-1.24v-9.26Z" transform="translate(-229.75 -395.35)"/><rect class="cls-1" x="37.13" y="40.84" width="1.31" height="9.26"/><path class="cls-1" d="M279.38,442.82c-.23,1.85-1.62,2.86-4.17,2.86-3,0-4.86-1.78-4.86-4.79s1.85-4.79,4.94-4.79c2.47,0,3.86,1,3.94,2.62h-1.47c-.15-.93-1.08-1.62-2.62-1.62-2.24,0-3.55,1.39-3.55,3.78s1.31,3.78,3.71,3.78c1.54,0,2.47-.69,2.55-1.85Z" transform="translate(-229.75 -395.35)"/><polygon class="cls-1" points="51.64 50.18 51.64 40.84 52.88 40.84 52.88 44.62 58.82 44.62 58.82 40.84 60.13 40.84 60.13 50.18 58.82 50.18 58.82 45.78 52.88 45.78 52.88 50.18 51.64 50.18"/><path class="cls-1" d="M299.14,442l-2.24-4.71L294.51,442Zm-3.09-5.79h1.62l4.63,9.26h-1.47L299.61,443h-5.71l-1.24,2.47h-1.39Z" transform="translate(-229.75 -395.35)"/><path class="cls-1" d="M307.32,440.35c1.93,0,2.78-.15,2.78-1.54s-.93-1.47-2.86-1.47h-2.39v3Zm-3.63-4.17h4.09a5.15,5.15,0,0,1,2.7.46,2.21,2.21,0,0,1,.93,2,2.08,2.08,0,0,1-2,2.24c1.16,0,1.39.62,1.62,1.93l.23,1.24a4.14,4.14,0,0,0,.46,1.39h-1.39a4.08,4.08,0,0,1-.31-1.31l-.23-1.54c-.15-1.08-.85-1.24-2.32-1.24H305v4.09h-1.24v-9.26Z" transform="translate(-229.75 -395.35)"/><path class="cls-1" d="M317.51,444.44c1.47,0,2.39-.15,3.09-.85a4.13,4.13,0,0,0-.08-5.48c-.77-.69-1.78-.77-3.16-.77h-2.08v7.1Zm-3.63-8.26h3.71c1.78,0,3,.23,3.94,1.08a4.34,4.34,0,0,1,1.47,3.55,4.7,4.7,0,0,1-1.16,3.32,4.77,4.77,0,0,1-3.94,1.39h-4v-9.34Z" transform="translate(-229.75 -395.35)"/><polygon class="cls-1" points="99.81 40.84 106.68 40.84 106.68 41.99 101.12 41.99 101.12 44.7 106.3 44.7 106.3 45.78 101.12 45.78 101.12 49.02 106.83 49.02 106.83 50.18 99.81 50.18 99.81 40.84"/><polygon class="cls-1" points="108.84 40.84 110.16 40.84 110.16 49.02 115.48 49.02 115.48 50.18 108.84 50.18 108.84 40.84"/><polygon class="cls-1" points="117.1 40.84 118.41 40.84 118.41 49.02 123.66 49.02 123.66 50.18 117.1 50.18 117.1 40.84"/><rect class="cls-1" x="125.36" y="40.84" width="1.31" height="9.26"/><path class="cls-1" d="M360,442.66c.08,1.24,1.08,1.93,2.86,1.93s2.86-.69,2.86-1.78a1.24,1.24,0,0,0-.77-1.08,12.25,12.25,0,0,0-2.32-.39,9.08,9.08,0,0,1-2.47-.54,2.09,2.09,0,0,1-1.31-2.08c0-1.54,1.47-2.7,4.09-2.7,2.47,0,3.78,1,3.78,2.62h-1.31c-.08-1-1-1.62-2.55-1.62-1.78,0-2.7.62-2.7,1.7a.93.93,0,0,0,.62.93,31.5,31.5,0,0,0,3.16.62c2.08.31,3.09.93,3.09,2.47,0,1.78-1.54,2.93-4.4,2.93-2.62,0-4-1.08-4-2.93v-.08Z" transform="translate(-229.75 -395.35)"/><path class="cls-1" d="M286.48,421.51H275.21V415.8h11.58a2.83,2.83,0,0,1,2.55,2.78,2.92,2.92,0,0,1-2.86,2.93m-11.27-18.76h12a2.8,2.8,0,0,1,2.32,2.7,2.91,2.91,0,0,1-2.39,2.86H275.29ZM292,411.94c4.32-1.47,5.09-5.09,5.09-8.11,0-4.55-3.16-8.49-12.66-8.49h-17.6v34.12h17.6c9.49,0,13-4.94,13-9.8a8.22,8.22,0,0,0-5.4-7.72" transform="translate(-229.75 -395.35)"/><polygon class="cls-1" points="107.14 0 136.94 0 136.94 7.41 115.48 7.41 115.48 12.97 134.86 12.97 134.86 20.46 115.48 20.46 115.48 26.4 136.94 26.4 136.94 34.2 107.14 34.2 107.14 0"/><path class="cls-1" d="M324.08,405.92a2.74,2.74,0,0,1-2.62,2.32H309.79v-5.4h11.66a2.61,2.61,0,0,1,2.62,2.39Zm-4.48-10.58h-18v34.12h8.26V415.72H319a4.7,4.7,0,0,1,4.63,4.86v9h8.11v-11c0-5.09-4.94-6.64-4.94-6.64a7.69,7.69,0,0,0,5-7.56c0-7.41-6.33-9-12.2-9" transform="translate(-229.75 -395.35)"/><path class="cls-1" d="M261.47,421.28c-.15,0-11.35.23-15.21-.15-6.25-.62-8.41-5.25-8.41-9,0-4.71,3.16-8.18,8.18-8.8,2.39-.31,15.21-.15,15.36-.15h.31v-7.8h-14.9a20.58,20.58,0,0,0-7.1,1.39,17.43,17.43,0,0,0-6.64,5.4,17.12,17.12,0,0,0-3.32,10.19,16.39,16.39,0,0,0,9.57,15.13,24.63,24.63,0,0,0,9.26,1.85l2.78.08h10.42V421.2Z" transform="translate(-229.75 -395.35)"/></svg>