<svg id="Layer_1" data-name="Layer 1" xmlns="http://www.w3.org/2000/svg" viewBox="0 0 76.61 97.1"><defs><style>.cls-1{fill:#1d1d1b;}</style></defs><title>logo17</title><rect class="cls-1" width="7.56" height="97.1"/><path class="cls-1" d="M150.89,394h-.83V411.4h.83c6.35,0,8.77-3.48,8.77-8.7C159.67,397,156.72,394,150.89,394Z" transform="translate(-127.9 -354.23)"/><path class="cls-1" d="M139.78,354.23v97.1h64.73v-97.1Zm12.48,61.71H145V389.54h7.34c7.56,0,12.7,5.67,12.7,13.23C165,410.19,159.74,415.93,152.26,415.93ZM180.77,394h-5.29v21.93h-5.14V394H165v-4.46h15.81Zm19.81-2.87-10.74,20.34h10.74v4.46H181.67L193.32,394h-9.91v-4.46h17.17Z" transform="translate(-127.9 -354.23)"/></svg>