<svg id="Layer_1" data-name="Layer 1" xmlns="http://www.w3.org/2000/svg" viewBox="0 0 148.87 63.8"><defs><style>.cls-1{fill:#1d1d1b;}</style></defs><title>logo16</title><polygon class="cls-1" points="105.97 63.62 105.7 62.9 105.34 60.65 105.07 57.31 104.89 0.09 104.62 0 104.26 0.09 98.13 2.07 98.31 2.61 98.58 3.51 98.85 4.87 99.03 5.59 99.12 6.13 99.12 58.66 99.03 59.02 99.03 60.38 98.58 62.45 98.22 63.8 102.55 63.8 105.97 63.8 105.97 63.62"/><polygon class="cls-1" points="51.18 56.68 66.77 19.1 67.86 17.39 68.13 16.85 69.57 14.78 69.84 14.42 65.51 14.42 61.46 14.42 61.46 15.41 61.19 17.93 60.47 20.46 59.74 22.62 58.66 25.23 56.05 31.81 54.07 37.04 51.45 43.62 49.47 48.75 48.48 51.73 48.21 51.73 44.43 41 37.22 21.18 36.41 18.83 36.05 16.13 36.05 14.42 31.54 14.42 27.39 14.42 27.66 14.69 27.93 15.05 29.38 17.57 30.64 20.55 32.08 24.33 31.99 24.6 21.36 52.09 21.27 52.09 19.1 46.59 18.11 43.88 14.78 34.96 13.79 32.17 10.45 23.43 9.55 20.73 8.92 18.56 8.56 16.13 8.38 14.69 8.29 14.42 3.96 14.42 0 14.42 1.35 16.22 1.44 16.58 3.15 19.91 19.82 63.8 21.27 63.8 28.3 45.15 29.2 42.98 29.83 41 30.64 39.11 31.27 37.31 31.99 35.51 32.71 33.52 33.43 31.72 33.97 30.37 34.06 30.37 34.33 30.91 37.22 38.39 38.93 42.98 39.83 45.15 40.46 47.04 41.36 49.38 43.07 53.98 43.8 55.78 45.42 60.38 46.41 62.72 46.77 63.8 48.3 63.8 51.18 56.68"/><polygon class="cls-1" points="76.51 63.62 76.33 62.9 75.97 60.65 75.61 57.22 75.61 27.39 75.06 27.21 74.79 27.39 68.76 29.2 68.67 29.29 69.03 30.28 69.39 31.27 69.66 32.71 69.66 33.43 69.84 58.66 69.66 59.02 69.57 60.38 69.12 62.45 68.76 63.8 73.26 63.8 76.51 63.8 76.51 63.62"/><polygon class="cls-1" points="91.28 63.53 90.65 61.28 90.38 58.66 90.38 6.4 90.11 6.31 89.84 6.4 89.48 6.58 87.77 7.03 84.89 7.84 83.44 8.38 83.98 10.09 84.35 11.53 84.35 11.89 84.62 15.86 84.44 57.22 84.26 60.74 83.81 62.9 83.53 63.62 83.72 63.8 91.28 63.8 91.28 63.53"/><polygon class="cls-1" points="120.48 63.08 120.12 61.19 119.85 58.66 119.67 27.39 119.22 27.21 118.95 27.39 118.5 27.48 112.73 29.2 112.91 29.56 113.27 30.55 113.54 31.72 113.81 33.43 113.99 34.6 113.99 57.31 113.81 57.58 113.81 59.74 113.27 62.36 113 63.62 113 63.8 120.66 63.8 120.75 63.8 120.48 63.08"/><polygon class="cls-1" points="137.87 63.53 138.41 63.53 139.85 63.17 141.48 62.72 143.64 61.73 145.08 60.74 145.53 60.65 146.52 59.48 147.51 58.3 148.15 56.95 148.78 55.24 148.78 54.79 148.87 54.52 148.87 51.09 148.78 50.64 148.24 48.57 147.88 47.76 147.69 47.4 147.06 46.5 146.79 46.23 145.89 45.15 144.36 43.98 142.92 43.07 140.31 41.54 139.76 41.27 138.95 40.82 137.69 40.19 137.24 39.92 135.98 39.02 135.53 38.75 135.17 38.39 134.9 38.21 134.27 37.58 134.09 37.31 133.73 37.04 133.1 35.59 133.1 35.14 133.37 33.79 133.73 32.98 133.82 32.71 134.27 32.35 135.26 31.54 135.98 31.27 137.24 30.82 137.87 30.82 138.14 30.64 140.4 30.64 142.65 31.18 144.45 31.81 146.16 32.71 147.25 33.52 147.25 32.62 147.25 28.11 145.62 27.48 143.64 26.94 141.84 26.67 137.42 26.58 137.15 26.67 136.43 26.85 134.63 27.21 133.19 27.75 132.65 28.11 131.21 28.93 130.93 29.2 130.57 29.47 129.13 30.82 129.04 31.18 128.59 31.72 128.32 32.08 127.96 32.89 127.69 33.7 127.42 34.87 127.42 35.23 127.33 37.76 127.42 37.94 127.6 38.48 128.05 39.83 128.86 41 130.48 42.71 130.75 42.8 131.21 43.34 131.66 43.62 134 45.06 134.36 45.33 136.16 46.32 138.05 47.31 139.59 48.3 140.94 49.38 142.2 50.64 142.47 50.91 142.92 51.99 143.28 53.44 143.19 54.07 142.92 55.42 142.38 56.41 141.57 57.58 141.21 57.76 140.94 58.12 140.49 58.39 139.5 58.84 137.87 59.29 137.42 59.29 135.26 59.48 134.36 59.29 133.64 59.2 132.38 58.84 130.84 58.3 129.04 57.22 128.59 56.95 127.33 55.69 127.06 55.51 127.06 60.02 127.06 62.18 127.42 62.36 129.13 62.9 130.48 63.17 131.93 63.53 132.38 63.53 135.98 63.8 137.87 63.53"/></svg>