<svg id="Layer_1" data-name="Layer 1" xmlns="http://www.w3.org/2000/svg" viewBox="0 0 126.87 126.87"><defs><style>.cls-1{fill:#1d1d1b;}</style></defs><title>logo12</title><path class="cls-1" d="M322.25,433.71a1,1,0,0,0-.94,1.08v.54h.14a.9.9,0,0,0,.81.94c.81,0,.81-.81.81-1.21S322.92,433.71,322.25,433.71Z" transform="translate(-234.25 -357.59)"/><path class="cls-1" d="M325.49,435.74a.61.61,0,0,0,.67.54,1,1,0,0,0,1.08-1.08v-.27a7.27,7.27,0,0,0-1.08.13A.7.7,0,0,0,325.49,435.74Z" transform="translate(-234.25 -357.59)"/><path class="cls-1" d="M274.74,435.74c0,.13,0,.54.67.54a1,1,0,0,0,1.08-1.08v-.27a7.27,7.27,0,0,0-1.08.13A.7.7,0,0,0,274.74,435.74Z" transform="translate(-234.25 -357.59)"/><path class="cls-1" d="M265.16,435.74c0,.13,0,.54.67.54a1,1,0,0,0,1.08-1.08v-.27a7.26,7.26,0,0,0-1.08.13A.7.7,0,0,0,265.16,435.74Z" transform="translate(-234.25 -357.59)"/><path class="cls-1" d="M292.15,433.71c-.81,0-.94.67-.94,1.21,0,.13,0,1.21.94,1.21s.94-.94.94-1.35A1,1,0,0,0,292.15,433.71Z" transform="translate(-234.25 -357.59)"/><path class="cls-1" d="M282.7,434a1,1,0,0,0-.67-.27,1.17,1.17,0,0,0-.81.4.81.81,0,0,0-.13.54H283v-.13A.54.54,0,0,0,282.7,434Z" transform="translate(-234.25 -357.59)"/><path class="cls-1" d="M311.32,433.71c-.81,0-.94.67-.94,1.21,0,.13,0,1.21.94,1.21s.94-.94.94-1.35A1,1,0,0,0,311.32,433.71Z" transform="translate(-234.25 -357.59)"/><path class="cls-1" d="M234.25,357.59V484.46H361.12V357.59Zm76.12,51.15a5.37,5.37,0,0,1,5-5h26.32v11.07H322.25a.54.54,0,0,0,0,1.08l19.43-.13v11.07H315.37a5.35,5.35,0,0,1-5-4.86ZM257.2,436.41a3.44,3.44,0,0,1-1.89.54h-1.89v-5.13h2.16a2.38,2.38,0,0,1,1.75.67,2.66,2.66,0,0,1,.81,1.89A2.4,2.4,0,0,1,257.2,436.41Zm2.56-.67a.82.82,0,0,0,.81.4.92.92,0,0,0,.94-.67l.67.27A1.91,1.91,0,0,1,260.3,437a1.81,1.81,0,0,1-1.89-2,1.91,1.91,0,0,1,2-2,1.81,1.81,0,0,1,1.89,2h-2.83A1,1,0,0,0,259.76,435.74Zm3.91,1.21h-.94v-5.13h.94Zm3.24,0a1.46,1.46,0,0,1-.13-.81,1.32,1.32,0,0,1-1.35.81,1.18,1.18,0,0,1-1.35-1.21c0-1.21,1.89-1.35,2.83-1.35v-.27c0-.54-.4-.54-.94-.54-.81,0-.94.4-.94.54l-.81-.13c.14-.81,1.08-1.08,1.89-1.08a1.81,1.81,0,0,1,1.21.27,1.23,1.23,0,0,1,.4,1.08v1.89h0a4.77,4.77,0,0,0,.13.81Zm5.53,0h-.81l-.81-2.7-.67,2.7h-.94L268,433h.94l.81,2.56.81-2.56h.81l.67,2.56.81-2.56h.81Zm4.18,0a1.46,1.46,0,0,1-.14-.81,1.32,1.32,0,0,1-1.35.81,1.18,1.18,0,0,1-1.35-1.21c0-1.21,1.89-1.35,2.83-1.35v-.27c0-.54-.4-.54-.94-.54-.81,0-.94.4-.94.54l-.81-.13c.13-.81,1.08-1.08,1.89-1.08a1.81,1.81,0,0,1,1.21.27,1.23,1.23,0,0,1,.4,1.08v1.89h0a4.77,4.77,0,0,0,.14.81Zm3.37-3.1a1,1,0,0,0-.81.27,1.74,1.74,0,0,0-.27,1.08v1.48H278V433h.81V434c.14-.27.4-1.08,1.21-1.08Zm1.35,1.89a.82.82,0,0,0,.81.4.92.92,0,0,0,.94-.67l.81.27A1.91,1.91,0,0,1,282,437a1.81,1.81,0,0,1-1.89-2,1.91,1.91,0,0,1,2-2,1.81,1.81,0,0,1,1.89,2h-3A1,1,0,0,0,281.36,435.74ZM284.73,422a5.35,5.35,0,0,1-5,4.86H253.42V415.76H273v.13a.54.54,0,1,0,0-1.08H253.55V403.75h26.18a5.37,5.37,0,0,1,5,5ZM290,437h-1.08l-2.16-3.24a2,2,0,0,0-.27-.54v3.91h-.81V432h1.08l2,3a2.33,2.33,0,0,0,.4.54v-3.64H290Zm2.16,0a1.87,1.87,0,0,1-1.89-2,1.81,1.81,0,0,1,2-1.89,1.88,1.88,0,0,1,1.89,2A2,2,0,0,1,292.15,437Zm4.32-3.1a1,1,0,0,0-.81.27,1.74,1.74,0,0,0-.27,1.08v1.48h-.94V433h.81V434c.13-.27.4-1.08,1.21-1.08Zm3,3.1a5.84,5.84,0,0,0-.67.13,2.5,2.5,0,0,1-.94-.27,1.14,1.14,0,0,1-.27-.94v-2H297V433h.54l.13-.94h.81v1.08h.81v.67h-.81v1.89c0,.54.27.67.67.67h.27Zm3.91,0h-.94v-2.29c0-.27,0-.94-.67-.94a1,1,0,0,0-.81.4,2,2,0,0,0-.13.94v1.75h-.94v-5h.94v2A1.25,1.25,0,0,1,302,433c.94,0,1.35.4,1.35,1.48Zm3.51-.94a1.06,1.06,0,0,0,1.08-1.08l1.08.27a2,2,0,0,1-2.16,1.75,2.41,2.41,0,0,1-2.29-2.7c0-1.35.67-2.7,2.29-2.7a2.07,2.07,0,0,1,2.16,1.75l-.94.14c-.13-.4-.27-1.21-1.21-1.21s-1.21,1.35-1.21,1.89C305.65,435.6,306.32,436,306.86,436Zm2.56-9H298.09v-16.2l2.43,4.86a.51.51,0,1,0,.94-.4l-3.37-6.88c0-.13-.27-.27-.4-.27s-.4.14-.4.27l-3.37,6.88a.51.51,0,1,0,.94.4l2.43-4.86V427H285.94V408.88a5.37,5.37,0,0,1,5-5h13.5a5.37,5.37,0,0,1,5,5Zm1.89,10a1.87,1.87,0,0,1-1.89-2,1.81,1.81,0,0,1,2-1.89,1.88,1.88,0,0,1,1.89,2A2,2,0,0,1,311.32,437Zm8.5-.27h-.94v-2.29c0-.54-.13-.81-.67-.81a1,1,0,0,0-.94,1.08v2h-.94v-2.43c0-.27-.13-.81-.67-.81s-.94.27-.94,1.21v1.89h-.94V433h.81v.81a1.56,1.56,0,0,1,1.35-.94,1.2,1.2,0,0,1,1.21.94,1.71,1.71,0,0,1,1.35-.94,1.21,1.21,0,0,1,1.35,1.35Zm3.78-.27a1.33,1.33,0,0,1-1.08.4,1.69,1.69,0,0,1-1.21-.54V438h-.81v-5h.94v.67a1.19,1.19,0,0,1,1.21-.67c1.21,0,1.48,1.21,1.48,1.89A2,2,0,0,1,323.6,436.41Zm3.78.54a1.46,1.46,0,0,1-.13-.81,1.32,1.32,0,0,1-1.35.81,1.18,1.18,0,0,1-1.35-1.21c0-1.21,1.89-1.35,2.83-1.35v-.27c0-.54-.4-.54-.94-.54-.81,0-.94.4-.94.54l-.81-.13c.13-.81,1.08-1.08,1.89-1.08a1.81,1.81,0,0,1,1.21.27,1.23,1.23,0,0,1,.4,1.08v1.89h0a4.77,4.77,0,0,0,.13.81Zm4.72,0h-.94v-2.29c0-.94-.54-.94-.67-.94s-.94,0-.94,1.35v1.75h-.94V433h.94V434c.14-.27.54-.94,1.21-.94,1.35,0,1.35,1.08,1.35,1.62Zm1.62,0h-.94V433h.94Zm0-4.32h-.94v-.94h.94Zm1.75,3.1a.82.82,0,0,0,.81.4.92.92,0,0,0,.94-.67l.67.27A1.91,1.91,0,0,1,336,437a1.81,1.81,0,0,1-1.89-2,1.91,1.91,0,0,1,2-2,1.81,1.81,0,0,1,1.89,2h-2.83A1,1,0,0,0,335.48,435.74Zm4.86,1.21c-.94,0-1.62-.4-1.75-.94l.54-.13a1,1,0,0,0,.94.4c.13,0,.94,0,.94-.4a.43.43,0,0,0-.4-.4l-.81-.13a1.16,1.16,0,0,1-1.21-1.08c0-.4.27-1.21,1.62-1.21a1.55,1.55,0,0,1,1.62.94l-.81.14c0-.14-.14-.4-.81-.4s-.81.13-.81.4.27.4.67.4l.94.13c.67.14,1.08.54,1.08,1.08C342.09,436.82,340.87,437,340.33,437Zm4.45-9.85a1.48,1.48,0,1,1,1.48-1.48A1.5,1.5,0,0,1,344.79,427.1Z" transform="translate(-234.25 -357.59)"/><path class="cls-1" d="M344.79,424.27a1.21,1.21,0,0,0-1.21,1.21,1.25,1.25,0,0,0,1.21,1.35,1.15,1.15,0,0,0,.72-.27h0l-.54-.81h-.4v.81h-.27v-1.89h.67c.4,0,.67.13.67.54s-.27.4-.4.54l.46.7a1.41,1.41,0,0,0,.35-1A1.21,1.21,0,0,0,344.79,424.27Z" transform="translate(-234.25 -357.59)"/><path class="cls-1" d="M255.58,432.5h-.94v3.64h.81c.94,0,1.62-.67,1.62-1.89A1.57,1.57,0,0,0,255.58,432.5Z" transform="translate(-234.25 -357.59)"/><path class="cls-1" d="M261.11,434a1,1,0,0,0-.67-.27,1.17,1.17,0,0,0-.81.4.81.81,0,0,0-.14.54h1.89v-.13A.54.54,0,0,0,261.11,434Z" transform="translate(-234.25 -357.59)"/><path class="cls-1" d="M344.79,424.94h-.27v.54h.27c.27,0,.4,0,.4-.27S344.92,424.94,344.79,424.94Z" transform="translate(-234.25 -357.59)"/><path class="cls-1" d="M336.83,434a1,1,0,0,0-.67-.27,1.17,1.17,0,0,0-.81.4.81.81,0,0,0-.13.54h1.89v-.13A.54.54,0,0,0,336.83,434Z" transform="translate(-234.25 -357.59)"/></svg>