<svg id="Layer_1" data-name="Layer 1" xmlns="http://www.w3.org/2000/svg" viewBox="0 0 277.7 53"><defs><style>.cls-1{fill:#1d1d1b;}</style></defs><title>logo20</title><polygon class="cls-1" points="17.9 14.5 25.4 27.1 0 52.8 31.8 38.4 41 52.8 51.9 27.4 80.3 14.5 17.9 14.5"/><path class="cls-1" d="M75.93,64.17c2.8,0,6.4-2.8,7.9-6.3s.5-6.3-2.4-6.3-6.4,2.8-7.9,6.3-.4,6.3,2.4,6.3" transform="translate(-27.83 -51.57)"/><path class="cls-1" d="M132.93,94.77l-8.3-30.2h-.1l-21,30.2h4.6c1-2.7,3.2-5.7,5-8.5l7.7-12.1,2.2,9.3h-8.1l-1.8,2.8h10.5a48.36,48.36,0,0,1,1.6,8.5Z" transform="translate(-27.83 -51.57)"/><path class="cls-1" d="M284.53,94.77c1.1-7.7,3.3-18,5.6-28.7h-7.8a5.3,5.3,0,0,1,.3,3.7l-3.8,18.6a20.52,20.52,0,0,1-2.2,6.4Z" transform="translate(-27.83 -51.57)"/><path class="cls-1" d="M294.83,94.77l-8-14.5c1.5-1.3,5.7-5,13.7-14.2h5l-12.9,12.7c7.4,11.1,8.6,13.8,10.5,16Z" transform="translate(-27.83 -51.57)"/><path class="cls-1" d="M221.13,94.77a55.57,55.57,0,0,1,.3-6.9l2.3-21.8h-4.9c-2.9,4.8-9.4,12.7-14.2,19.2l-5.4-19.2h-4.8a7,7,0,0,1-.4,3.6l-6.4,18.7s-1,3.2-2.3,6.4h4a49.26,49.26,0,0,1,1.6-6.4l4-13.8,5.5,20.2h1.4l14.3-20.2-1.8,13.7s-.5,3.1-1.1,6.4h7.9Z" transform="translate(-27.83 -51.57)"/><path class="cls-1" d="M186.33,94.77,178,64.57h-.1l-21,30.2h4.6c1-2.7,3.2-5.7,4.9-8.5l7.7-12.1,2.2,9.3h-8.1l-1.8,2.8h10.5a47.29,47.29,0,0,1,1.6,8.5Z" transform="translate(-27.83 -51.57)"/><path class="cls-1" d="M248.83,94.77l-8.3-30.2h-.2l-21,30.2h4.6c1-2.7,3.2-5.7,5-8.5l7.7-12.1,2.2,9.3h-8.1l-1.8,2.8h10.5a47.29,47.29,0,0,1,1.6,8.5Z" transform="translate(-27.83 -51.57)"/><path class="cls-1" d="M139,69.77l-3.8,18.6a20.52,20.52,0,0,1-2.2,6.4h7.9c1.1-7.7,2.7-15.3,5-26h2.4a5.83,5.83,0,0,1,2.5.5c1.2.7,1.9,2.1,1.6,4.5-.6,4.6-3.9,5.6-7,5.8l6.6,15.2h8.3c-2-2.8-3.8-6.2-8.3-14.1,2.3-.5,7.2-2,7.5-7.4a6.25,6.25,0,0,0-2.4-5.6c-1.9-1.3-4-1.6-6.9-1.6h-11.3a5.53,5.53,0,0,1,.1,3.7" transform="translate(-27.83 -51.57)"/><path class="cls-1" d="M254.93,69.77l-3.8,18.6a20.52,20.52,0,0,1-2.2,6.4h7.9c1.1-7.7,2.7-15.3,5-26h2.4a5.83,5.83,0,0,1,2.5.5c1.2.7,1.9,2.1,1.6,4.5-.6,4.6-3.9,5.6-7,5.8l6.6,15.2h8.3c-2-2.8-3.8-6.2-8.3-14.1,2.3-.5,7.2-2,7.5-7.4a6.25,6.25,0,0,0-2.4-5.6c-1.9-1.3-4-1.6-6.9-1.6h-11.3a7.21,7.21,0,0,1,.1,3.7" transform="translate(-27.83 -51.57)"/><path class="cls-1" d="M76.63,100.57l.2-1h.6c.3,0,.8,0,.7.5s-.4.5-.8.5Zm-1.2,2.3h.9l.3-1.7H77l.7,1.7h.9l-.8-1.7a1.12,1.12,0,0,0,1.2-1.1c.1-.9-.4-1.2-1.4-1.2h-1.5Zm-1.9-1.9a3,3,0,0,0,3,3.6,4.38,4.38,0,0,0,4.2-3.6,3,3,0,0,0-3-3.6,4.46,4.46,0,0,0-4.2,3.6m1.1,0a3.28,3.28,0,0,1,3-2.8,2.16,2.16,0,0,1,2.1,2.8,3.18,3.18,0,0,1-3,2.8,2.15,2.15,0,0,1-2.1-2.8" transform="translate(-27.83 -51.57)"/></svg>