<svg id="Layer_1" data-name="Layer 1" xmlns="http://www.w3.org/2000/svg" viewBox="0 0 181.9 83.89"><defs><style>.cls-1,.cls-3{fill:none;stroke:#1d1d1b;}.cls-1{stroke-width:2.79px;}.cls-2{fill:#1d1d1b;}.cls-3{stroke-width:1.75px;}</style></defs><title>logo22</title><path class="cls-1" d="M191.29,57.61c0,13.76-15.7,24.91-35.06,24.91s-35.06-11.15-35.06-24.91,15.7-24.91,35.06-24.91S191.29,43.86,191.29,57.61ZM156.08,82.53s-25.61-5.91-25.61-24.83c0-18.39,25.61-25,25.61-25m.15,0s25.61,5.73,25.61,24.84-25.61,25-25.61,25" transform="translate(-68.85 -31.31)"/><path class="cls-2" d="M243.74,89.36a3.51,3.51,0,1,1,3.51,3.53,3.49,3.49,0,0,1-3.51-3.53m.57,0a2.94,2.94,0,1,0,2.94-2.95,2.94,2.94,0,0,0-2.94,2.95m4.55,2h-.65l-1-1.84h-.73v1.84h-.57v-4h1.66c.71,0,1.35.21,1.35,1a1,1,0,0,1-1,1.08ZM246.46,88v1h.61c.53,0,1.26.09,1.26-.45s-.42-.54-.89-.54Z" transform="translate(-68.85 -31.31)"/><path class="cls-1" d="M129.09,73.22a46.92,46.92,0,0,1,27-8.37,49.84,49.84,0,0,1,27.56,8.37m-11.09-16h18.78m-70.53,0h19.4" transform="translate(-68.85 -31.31)"/><polyline class="cls-2" points="0 56.22 10.32 56.22 10.32 76.8 17.83 76.8 17.83 83.48 0 83.48 0 56.22"/><path class="cls-2" d="M114.16,101.25c0,8.7-6.47,13.91-14.41,13.91S85.33,110,85.33,101.25c0-8.52,6.44-14.3,14.36-14.3s14.47,5.77,14.47,14.3M96,101c0,3.1.84,7.11,3.71,7.11s3.71-4,3.71-7.11c0-2.87-.7-7-3.71-7S96,98.08,96,101" transform="translate(-68.85 -31.31)"/><path class="cls-2" d="M136.41,95.29a6.44,6.44,0,0,0-5.49-1.76c-3.94.54-6,4-6,7.49s3,6.92,6,7.2a7.09,7.09,0,0,0,5.47-1.22v7.1a22.32,22.32,0,0,1-7.11,1.08c-8.38,0-14.93-6-14.93-13.76,0-7.93,6.58-14.47,15.2-14.47a21.74,21.74,0,0,1,6.84.73v7.6" transform="translate(-68.85 -31.31)"/><path class="cls-2" d="M136.87,87.5h10.38V98.41C147.43,98,153,87.5,153,87.5h11.6l-8.15,13,8.41,14.24h-12l-5.57-11.11V114.8H136.87V87.5" transform="translate(-68.85 -31.31)"/><polyline class="cls-2" points="95.9 56.2 117.99 56.2 117.99 63.38 112.13 63.37 112.1 83.48 101.69 83.48 101.66 63.38 95.9 63.38 95.9 56.2"/><polyline class="cls-2" points="146.78 56.32 158.1 56.32 164.24 69.82 164.13 56.33 174.51 56.33 174.51 83.58 163.09 83.58 157.39 70.51 157.39 83.6 146.78 83.58 146.78 56.32"/><path class="cls-2" d="M215.31,101.15c0,8.71-6.83,14-15,14s-14.53-5.34-14.53-14c0-8.51,6.65-14.22,14.75-14.22s14.76,5.71,14.76,14.22m-18.56-.22c0,3.1.86,7,3.8,7s3.8-3.88,3.8-7c0-2.87-.72-7-3.8-7s-3.8,4.17-3.8,7" transform="translate(-68.85 -31.31)"/><path class="cls-3" d="M155.94,32.7s-16.13,8.11-16.13,25,16.13,24.84,16.13,24.84m.29,0s16.13-7.84,16.13-25c0-16.94-16.13-24.84-16.13-24.84" transform="translate(-68.85 -31.31)"/><path class="cls-2" d="M171.19,54.76a23.27,23.27,0,0,1,0,5.27H142.41c-3.76,0-3.58-3.88-3.58-3.88,1.35-18.23,17.11-24.47,17.11-24.47,1.14-.07,3.75.1,3.75.1s-13.56,8.32-15,23h26.51" transform="translate(-68.85 -31.31)"/></svg>