<svg id="Layer_1" data-name="Layer 1" xmlns="http://www.w3.org/2000/svg" viewBox="0 0 209.05 54.95"><defs><style>.cls-1{fill:#1d1d1b;}</style></defs><title>logo2</title><path class="cls-1" d="M251.86,448c-2.84,0-4.26-2.13-4.26-4.62s1.42-4.62,4.26-4.62a4,4,0,0,1,2.31.53l-.44,1a3,3,0,0,0-1.42-.36c-1.86,0-2.57,1.69-2.57,3.46s.71,3.37,2.57,3.37a2.42,2.42,0,0,0,1.42-.36l.44,1.07a4.23,4.23,0,0,1-2.31.53" transform="translate(-193.8 -393.04)"/><path class="cls-1" d="M263.4,443.37c0-2.57-1.15-4.62-4.17-4.62s-4.17,2-4.17,4.62,1.15,4.62,4.17,4.62,4.17-2,4.17-4.62m-2-.09c0,1.69-.36,3.46-2,3.46s-2.13-1.78-2.13-3.46.36-3.46,2.13-3.46,2,1.78,2,3.46" transform="translate(-193.8 -393.04)"/><path class="cls-1" d="M272.1,447.81,267.93,442c-.36-.53-.62-1-.62-1h0a7.43,7.43,0,0,1,.09,1.07v5.77h-1.69v-9.05h2l4,5.5c.36.53.62.89.62.89h0a5.56,5.56,0,0,1-.09-1v-5.41h1.69v9Z" transform="translate(-193.8 -393.04)"/><path class="cls-1" d="M278.4,448a5.36,5.36,0,0,1-2.75-.53l.53-1.15a4,4,0,0,0,1.86.44c1.07,0,1.78-.53,1.78-1.42,0-.71-.44-1.07-1.69-1.51-1.78-.62-2.31-1.6-2.31-2.49,0-1.42,1.24-2.66,3.28-2.66a4,4,0,0,1,2.4.53l-.44,1a3.86,3.86,0,0,0-1.69-.44c-1,0-1.6.53-1.6,1.33s.71,1.15,1.69,1.51c2.13.71,2.49,1.78,2.49,2.57,0,1.69-1.51,2.84-3.55,2.84" transform="translate(-193.8 -393.04)"/><polygon class="cls-1" points="93.21 46.87 93.21 54.77 91.17 54.77 91.17 46.87 89.13 46.87 89.13 45.8 95.34 45.8 95.34 46.87 93.21 46.87"/><path class="cls-1" d="M298.37,447.81l-3.28-4h0c1.78-.09,2.93-1.07,2.93-2.4,0-1.69-1.33-2.75-4.08-2.75a7.07,7.07,0,0,0-3,.53v8.61h2v-4.08h0l3.11,4.08Zm-2.31-6.3q0,1.86-2.4,1.86a2.2,2.2,0,0,1-.8-.09v-3.55a3.19,3.19,0,0,1,1-.18c1.6.09,2.22.71,2.22,2" transform="translate(-193.8 -393.04)"/><path class="cls-1" d="M303.88,448c-2.22,0-3.64-1.15-3.64-2.75v-6.39h2v6.39a1.54,1.54,0,0,0,1.69,1.51,1.5,1.5,0,0,0,1.69-1.51v-6.39h1.86v6.39c0,1.6-1.51,2.75-3.64,2.75" transform="translate(-193.8 -393.04)"/><path class="cls-1" d="M313.91,448c-2.84,0-4.26-2.13-4.26-4.62s1.42-4.62,4.26-4.62a4,4,0,0,1,2.31.53l-.44,1a3,3,0,0,0-1.42-.36c-1.86,0-2.57,1.69-2.57,3.46s.71,3.37,2.57,3.37a2.42,2.42,0,0,0,1.42-.36l.44,1.07a4.23,4.23,0,0,1-2.31.53" transform="translate(-193.8 -393.04)"/><polygon class="cls-1" points="127.65 46.96 127.65 54.77 125.52 54.77 125.61 46.87 123.48 46.87 123.48 45.8 129.69 45.8 129.69 46.96 127.65 46.96"/><rect class="cls-1" x="131.56" y="45.81" width="2.04" height="8.97"/><path class="cls-1" d="M337.88,443.37c0-2.57-1.15-4.62-4.17-4.62s-4.17,2-4.17,4.62,1.15,4.62,4.17,4.62,4.17-2,4.17-4.62m-2.13-.09c0,1.69-.36,3.46-2,3.46s-2.13-1.78-2.13-3.46.36-3.46,2.13-3.46,2,1.78,2,3.46" transform="translate(-193.8 -393.04)"/><path class="cls-1" d="M346.49,447.81,342.32,442c-.36-.53-.62-1-.62-1h0a7.43,7.43,0,0,1,.09,1.07v5.77H340.1v-9.05h2l4,5.5c.36.53.62.89.62.89h0a5.56,5.56,0,0,1-.09-1v-5.41h1.69v9Z" transform="translate(-193.8 -393.04)"/><path class="cls-1" d="M286.48,413.28v17.13a72.65,72.65,0,0,0,15.8,1.51,73.66,73.66,0,0,0,15.8-1.51v-5.77A89.56,89.56,0,0,1,302.19,426a63.57,63.57,0,0,1-9-.71v-6.75a71.06,71.06,0,0,1,9.05-.71,86.11,86.11,0,0,1,15.8,1.42v-5.86a72.65,72.65,0,0,0-15.8-1.51,63.31,63.31,0,0,0-15.8,1.42" transform="translate(-193.8 -393.04)"/><rect class="cls-1" x="131.82" y="19" width="6.92" height="19.53"/><rect class="cls-1" x="39.06" y="19" width="6.92" height="19.53"/><path class="cls-1" d="M272.1,431.47a81.6,81.6,0,0,0-12.34-8c-2-1.07-3.82-1.78-5.41-2.49v10.39H247.6V412a51.63,51.63,0,0,1,12.16,4.53,91.11,91.11,0,0,1,12.34,7.63V412h6.75v19.53H272.1Z" transform="translate(-193.8 -393.04)"/><path class="cls-1" d="M228.25,416.38,211,432,193.8,416.38l5.15-4.7s10.47,10.21,12.07,11.63c1.51-1.42,12.07-11.72,12.07-11.72Z" transform="translate(-193.8 -393.04)"/><path class="cls-1" d="M348.17,412h9.59a8.91,8.91,0,0,0,6.57-2.66c.8-.89,2.75-3,2.75-5.5v-8.08a2.75,2.75,0,0,1,2.66-2.75h10.47a2.69,2.69,0,0,1,2.66,2.75v10.56a2.75,2.75,0,0,1-2.66,2.75h-8c-2.49,0-4.62,2-5.5,2.75a8.91,8.91,0,0,0-2.66,6.57v9.76H348.17V412Z" transform="translate(-193.8 -393.04)"/><path class="cls-1" d="M402.86,420.55a9.57,9.57,0,0,0-2.66-6.57,9.13,9.13,0,0,0-6.48-2.66,9.41,9.41,0,0,0-9.41,9.41c0,1,.44,2.75.44,3.46a7.26,7.26,0,0,1-7.28,7.28h-7.72a2.69,2.69,0,0,0-2.66,2.75v10.56a2.75,2.75,0,0,0,2.66,2.75h10.47a2.69,2.69,0,0,0,2.66-2.75V437a7.31,7.31,0,0,1,7.28-7.28c.71,0,2.49.44,3.46.44a9.6,9.6,0,0,0,9.23-9.59" transform="translate(-193.8 -393.04)"/></svg>