<svg id="Layer_1" data-name="Layer 1" xmlns="http://www.w3.org/2000/svg" viewBox="0 0 263.42 36.98"><defs><style>.cls-1{fill:#1d1d1b;}</style></defs><title>logo24</title><path class="cls-1" d="M198.13,408c0,1.05-.35,1.4-4.47,1.84-2.45.35-8.24,1.49-8.24,6.57,0,4.21,3.42,6.48,7.36,6.48a8.08,8.08,0,0,0,5.43-2.28l.09,1.23a.49.49,0,0,0,.44.53H203a.51.51,0,0,0,.53-.53V407.27c0-3.86-2-6.48-8.68-6.48a17.8,17.8,0,0,0-7.36,1.49,1.2,1.2,0,0,0-.7,1.14v2.1a.89.89,0,0,0,.79,1c.53,0,1-.53,1.31-.7a10.25,10.25,0,0,1,5.78-2c3.07,0,3.42,1.93,3.42,4.21m0,9.9c0,.61-1.58,2.28-3.77,2.28-2.45,0-3.42-1.75-3.42-3.59,0-2.54,2-4.91,7.19-4.91Z" transform="translate(-135.03 -393.34)"/><path class="cls-1" d="M258.41,418.4a2.62,2.62,0,0,0,.88,2.19,11.86,11.86,0,0,0,7.54,2.45C273,423,278,418.23,278,411c0-5.61-3.07-9.9-7.89-9.9a9.41,9.41,0,0,0-6.13,2.37v-9.29a.51.51,0,0,0-.53-.53h-4.56a.49.49,0,0,0-.44.53V418.4Zm5.61.35V406a6,6,0,0,1,3.59-1.49c4.29,0,4.73,5.52,4.73,7.54,0,5.26-2.1,8.41-5.17,8.41a4.73,4.73,0,0,1-2.54-.53,1.32,1.32,0,0,1-.61-1.23h0" transform="translate(-135.03 -393.34)"/><path class="cls-1" d="M338.6,401.31h-2.19a.58.58,0,0,0-.61.53l-4.91,13.5-5.17-13.5a.77.77,0,0,0-.79-.53h-5.17a.41.41,0,0,0-.44.44c0,.18.09.26.26.79l8.59,19.8c-.09,3.51-3.42,4.64-7.1,3.59a4.45,4.45,0,0,0-1.49-.26.68.68,0,0,0-.61.7v2.72a1,1,0,0,0,1,1,5.8,5.8,0,0,0,2,.26,9.28,9.28,0,0,0,8.24-5.61l8.68-22.26a2.23,2.23,0,0,0,.18-.61c-.09-.35-.26-.53-.44-.53" transform="translate(-135.03 -393.34)"/><path class="cls-1" d="M163.95,421.38c7.89,3.68,19.19,1.58,19.19-7.89,0-8.68-14.9-8.15-14.9-13.5,0-2.19,2.1-3.59,4.73-3.59a9.67,9.67,0,0,1,6,2.19,2.52,2.52,0,0,0,1.31.61c.53,0,.7-.35.7-.79v-2.72a.78.78,0,0,0-.53-.88A22.33,22.33,0,0,0,173,393.6c-6.31,0-9.64,3.86-9.64,8.24,0,9.55,14.72,7.54,14.72,14,0,3.94-5.7,6.66-12.18,2.1-.61-.44-.88-.7-1.31-.7-.79,0-1,.44-1,.88v2.37c-.18.35-.09.61.35.88" transform="translate(-135.03 -393.34)"/><path class="cls-1" d="M207.76,421.91a.49.49,0,0,0,.44.53h4.56a.51.51,0,0,0,.53-.53v-20a.51.51,0,0,0-.53-.53H208.2a.49.49,0,0,0-.44.53Z" transform="translate(-135.03 -393.34)"/><path class="cls-1" d="M210.48,393.34c-2.1,0-3.07,1.23-3.07,2.63a2.79,2.79,0,0,0,3.07,2.8,2.72,2.72,0,0,0,3-2.8,2.68,2.68,0,0,0-3-2.63" transform="translate(-135.03 -393.34)"/><path class="cls-1" d="M294.17,415.6c0,3.07-1,4.73-3.86,4.73-2.37,0-3.86-1.4-3.86-3.59V401.93a.51.51,0,0,0-.53-.53h-4.56a.49.49,0,0,0-.44.53v13.76c0,5.26,4.73,7.27,9.38,7.27s9.46-2,9.46-7.8V401.93a.51.51,0,0,0-.53-.53h-4.56a.49.49,0,0,0-.44.53V415.6Z" transform="translate(-135.03 -393.34)"/><path class="cls-1" d="M217.93,421.91a.49.49,0,0,0,.44.53h4.56a.59.59,0,0,0,.61-.53V405.78a9.94,9.94,0,0,1,4.38-1.49c3.15,0,3.33,1.93,3.33,3.51v14.11a.49.49,0,0,0,.44.53h4.56a.51.51,0,0,0,.53-.53V407.36c0-3.86-2-6.48-6.57-6.48a14,14,0,0,0-6.84,2.1v-1.05c0-.35-.26-.53-.61-.53h-4.29a.59.59,0,0,0-.61.53v20Z" transform="translate(-135.03 -393.34)"/><path class="cls-1" d="M254.12,402.19c-6.13-2.54-14.28-1.14-14.28,5.43,0,7.45,11.92,6,11.92,10,0,3.24-5.61,3.59-9.64.44a1.13,1.13,0,0,0-.88-.35c-.44,0-.79.18-.79.88v1.84a1.24,1.24,0,0,0,.7,1.23C246.41,424,256,424,256,415.42c0-7.45-12-5.7-12-9.46,0-3.07,5.87-2.8,9.29-.44a1.85,1.85,0,0,0,.88.35c.44,0,.79-.18.79-.88v-1.58a1.48,1.48,0,0,0-.79-1.23" transform="translate(-135.03 -393.34)"/><path class="cls-1" d="M317,401.23a6.53,6.53,0,0,0-2.1-.26c-2.63,0-4.73,2.19-5.7,3.51l-.09-2.54a.51.51,0,0,0-.53-.53h-4.38a.49.49,0,0,0-.44.53v20a.49.49,0,0,0,.44.53h4.56a.51.51,0,0,0,.53-.53V409.2c0-4,3.86-4.21,6.4-3.68a5.73,5.73,0,0,0,1.58.35.68.68,0,0,0,.61-.7v-3c.09-.44-.26-.88-.88-1" transform="translate(-135.03 -393.34)"/><path class="cls-1" d="M378.29,394.13a.38.38,0,0,0-.35-.35H373a.38.38,0,0,0-.35.35v28.13a.38.38,0,0,0,.35.35h4.91a.38.38,0,0,0,.35-.35Z" transform="translate(-135.03 -393.34)"/><path class="cls-1" d="M387.23,411.74c0-6.13,2-8.24,5.08-8.24a6.42,6.42,0,0,1,4.64,1.93,1.48,1.48,0,0,0,.88.61c.35,0,.44-.18.44-.53V402.8a.59.59,0,0,0-.35-.61,19.07,19.07,0,0,0-6.31-1.05c-6.84,0-10.43,4.91-10.43,11s3.68,11,10.6,11a17.12,17.12,0,0,0,6.31-1.14.59.59,0,0,0,.35-.61v-2.72c0-.35-.09-.53-.44-.53a1.82,1.82,0,0,0-.88.53,5.6,5.6,0,0,1-4.21,1.93c-3,.09-5.7-2.28-5.7-8.76" transform="translate(-135.03 -393.34)"/><path class="cls-1" d="M146.34,414.55c0,4.12-2,5.61-4.47,5.61-2.28,0-4.64-1.93-5.35-2.63a1.18,1.18,0,0,0-.88-.44.75.75,0,0,0-.61.79v2.54a1.11,1.11,0,0,0,.61.88A14,14,0,0,0,142,423c7.36,0,10.08-4.64,10.08-8.59V394.13a.59.59,0,0,0-.53-.61h-4.82a.49.49,0,0,0-.44.53v20.51Z" transform="translate(-135.03 -393.34)"/><path class="cls-1" d="M360.77,400.88c5.61,0,8.59,4.64,8.59,10.87,0,7.45-4.73,11-9,11a9.85,9.85,0,0,1-4.91-1.4h-.09v8.76a.23.23,0,0,1-.26.26h-5a.28.28,0,0,1-.26-.26V401.66a.38.38,0,0,1,.35-.35h4.73c.18,0,.26.18.26.35v1.49h.09a9.21,9.21,0,0,1,5.52-2.28m-5.52,6.75v10.69a4.66,4.66,0,0,0,3.86,1.75c4.21-.26,4.38-5.78,4.38-7.8,0-4.73-1.58-8.32-4.64-8.32a3.62,3.62,0,0,0-3.59,3.68" transform="translate(-135.03 -393.34)"/></svg>