<svg id="Layer_1" data-name="Layer 1" xmlns="http://www.w3.org/2000/svg" viewBox="0 0 118.37 49.06"><defs><style>.cls-1{fill:#1d1d1b;}</style></defs><title>logo1</title><path class="cls-1" d="M271.65,401.29c2.37,0,9.11.27,4.74,12.3-4.47,12.67-14.49,10-14.49,10l7.38-22.42h2.37Zm17.86,13.12c5.65-13.21-4.83-16.86-11.76-16.86H255.06a3,3,0,0,1,1.18,3.92L243,441.84a6.72,6.72,0,0,1-3.55,3.55h18.41a2.75,2.75,0,0,1-1.91-3.46l4.83-14.58c-.09,0,22.05,2.82,28.7-12.94" transform="translate(-239.48 -396.98)"/><path class="cls-1" d="M297,439.2a17.52,17.52,0,0,1-6.29,2.1c-2.46.18-6.65-.73-6.65-5.47,0-4.1,4.65-7,7.11-8.11A35.06,35.06,0,0,0,297,439.2m7.29-25.7c-.64,3.83-5.83,7.75-7.11,8.29a13.56,13.56,0,0,1,1.73-8.38c1.28-1.82,2.92-2.64,4.28-2.19,1,.27,1.18,1.18,1.09,2.28m0,31.89h12.39c-3.92-1.18-9.84-4.74-12.12-7.29a14.32,14.32,0,0,0,4.65-9.48h-6.38a2.45,2.45,0,0,1,1.28,2.1,7.31,7.31,0,0,1-1.64,4.47,21.69,21.69,0,0,1-4.56-10.11c2.55-1.18,6-2.46,8.84-4.83,2.64-2.28,3.28-4.37,3.28-5.74v-.18a5.1,5.1,0,0,0-1.64-3.83,9.14,9.14,0,0,0-7.84-1.91,13.06,13.06,0,0,0-5.65,2.64c-3.74,3.37-4.19,8.84-4.19,11.3a5.25,5.25,0,0,0,.09,1.37,3.71,3.71,0,0,1-.64.18c-2.73.91-10,2.82-12.67,8.57a10,10,0,0,0-.82,4.1,9.39,9.39,0,0,0,1.37,4.92c1.82,2.73,4.92,4.47,9.93,4.37,5.47-.09,10.75-3.65,11.76-4.28a20,20,0,0,0,4.56,3.65" transform="translate(-239.48 -396.98)"/><path class="cls-1" d="M341.81,401.29c7.38-1.64,13.4,3.83,13.94,4.19l2.1-6.38c-2.92-.82-24-7.65-38.91,8.57-9.2,10-11.39,30.44.18,36,12.48,5.83,26.15-.91,27.25-1.37L352,425a6.24,6.24,0,0,1,4.47-4.28H336.71c2.92,1.18,2.64,3.19,2.46,4.1l-5.65,17.31c-.73.18-16.68,3.92-7.75-22.6,2-5.74,7.29-16.22,16-18.23" transform="translate(-239.48 -396.98)"/><path class="cls-1" d="M271.65,401.29c2.37,0,9.11.27,4.74,12.3-4.47,12.67-14.49,10-14.49,10l7.38-22.42h2.37Zm17.86,13.12c5.65-13.21-4.83-16.86-11.76-16.86H255.06a3,3,0,0,1,1.18,3.92L243,441.84a6.72,6.72,0,0,1-3.55,3.55h18.41a2.75,2.75,0,0,1-1.91-3.46l4.83-14.58c-.09,0,22.05,2.82,28.7-12.94" transform="translate(-239.48 -396.98)"/><path class="cls-1" d="M297,439.2a17.52,17.52,0,0,1-6.29,2.1c-2.46.18-6.65-.73-6.65-5.47,0-4.1,4.65-7,7.11-8.11A35.06,35.06,0,0,0,297,439.2m7.29-25.7c-.64,3.83-5.83,7.75-7.11,8.29a13.56,13.56,0,0,1,1.73-8.38c1.28-1.82,2.92-2.64,4.28-2.19,1,.27,1.18,1.18,1.09,2.28m0,31.89h12.39c-3.92-1.18-9.84-4.74-12.12-7.29a14.32,14.32,0,0,0,4.65-9.48h-6.38a2.45,2.45,0,0,1,1.28,2.1,7.31,7.31,0,0,1-1.64,4.47,21.69,21.69,0,0,1-4.56-10.11c2.55-1.18,6-2.46,8.84-4.83,2.64-2.28,3.28-4.37,3.28-5.74v-.18a5.1,5.1,0,0,0-1.64-3.83,9.14,9.14,0,0,0-7.84-1.91,13.06,13.06,0,0,0-5.65,2.64c-3.74,3.37-4.19,8.84-4.19,11.3a5.25,5.25,0,0,0,.09,1.37,3.71,3.71,0,0,1-.64.18c-2.73.91-10,2.82-12.67,8.57a10,10,0,0,0-.82,4.1,9.39,9.39,0,0,0,1.37,4.92c1.82,2.73,4.92,4.47,9.93,4.37,5.47-.09,10.75-3.65,11.76-4.28a20,20,0,0,0,4.56,3.65" transform="translate(-239.48 -396.98)"/><path class="cls-1" d="M341.81,401.29c7.38-1.64,13.4,3.83,13.94,4.19l2.1-6.38c-2.92-.82-24-7.65-38.91,8.57-9.2,10-11.39,30.44.18,36,12.48,5.83,26.15-.91,27.25-1.37L352,425a6.24,6.24,0,0,1,4.47-4.28H336.71c2.92,1.18,2.64,3.19,2.46,4.1l-5.65,17.31c-.73.18-16.68,3.92-7.75-22.6,2-5.74,7.29-16.22,16-18.23" transform="translate(-239.48 -396.98)"/></svg>