<svg id="Layer_1" data-name="Layer 1" xmlns="http://www.w3.org/2000/svg" viewBox="0 0 187.63 59"><defs><style>.cls-1{fill:#000100;}</style></defs><title>logo13</title><path class="cls-1" d="M280.71,475.41c6.45-.18,11.13-5.83,13.78-11.48,3.44-7.42,4.42-17,3.09-25.53A38.35,38.35,0,0,0,294,426.83a22.2,22.2,0,0,0-6.27-7.77,12.48,12.48,0,0,0-7-2.56,11.07,11.07,0,0,0-4.77,1.06,10.48,10.48,0,0,0-9.19,0,11,11,0,0,0-4.68-1.06c-6.62.18-11.22,6.09-13.78,11.48-3.18,7-4.5,16.25-3.09,25.53a38.35,38.35,0,0,0,3.62,11.57,22.2,22.2,0,0,0,6.27,7.77,12.48,12.48,0,0,0,7,2.56,12.89,12.89,0,0,0,4.77-1.06,10.48,10.48,0,0,0,9.19,0,10.68,10.68,0,0,0,4.68,1.06m-.09-.09a14.86,14.86,0,0,1-2.56-2.12,23.48,23.48,0,0,0,6.89-8.39,36.68,36.68,0,0,0,3.62-12.19c1.15-8.66.18-18.37-4-26.14a21.46,21.46,0,0,0-5.39-6.89,15.5,15.5,0,0,0-2.12,2.65c4.33,5.83,6.36,13.07,6.89,20.31.53,8.21-.71,16.78-4.77,24a27.4,27.4,0,0,1-7.68,8.83,14.86,14.86,0,0,1-2.56-2.12,15.35,15.35,0,0,0,2.56-2.21c.44.44.88.88,1.41,1.32a21.94,21.94,0,0,0,2.21-2.65,18.91,18.91,0,0,1-1.15-1.68,35,35,0,0,0,4.95-12,44.89,44.89,0,0,0,.79-14.57,38.72,38.72,0,0,0-4.68-15.72,34.71,34.71,0,0,0-2.47,5.48l.35,1.06a43.82,43.82,0,0,1,1.41,6.09,48,48,0,0,1,.09,14.66,41.35,41.35,0,0,1-3.62,12.19,28.77,28.77,0,0,1-3.8,5.83,22.1,22.1,0,0,1-4.68,4.42,23.82,23.82,0,0,1-6.18-6.45A40,40,0,0,1,250,449.89c-.53-7.77.44-15.81,4-22.88a29,29,0,0,1,7.42-9.54,9.25,9.25,0,0,1,1-.71,19.19,19.19,0,0,1,2.56,2.12,23.48,23.48,0,0,0-6.89,8.39,36.68,36.68,0,0,0-3.62,12.19c-1.24,8.74,0,18.55,4,26.14a23.88,23.88,0,0,0,5.39,6.89c.71-.79,1.5-1.68,2.21-2.65a38.91,38.91,0,0,1-6.71-20.23c-.53-8.13.71-16.78,4.77-24a27,27,0,0,1,7.6-8.83,14.86,14.86,0,0,1,2.56,2.12,15.35,15.35,0,0,0-2.56,2.21c-.44-.44-1-.88-1.41-1.32a15.5,15.5,0,0,0-2.12,2.65,18.91,18.91,0,0,1,1.15,1.68,35.38,35.38,0,0,0-4.95,12.1,44.89,44.89,0,0,0-.79,14.57,39.13,39.13,0,0,0,4.68,15.72,40.1,40.1,0,0,0,2.47-5.48l-.35-1.06a43.82,43.82,0,0,1-1.41-6.09,51,51,0,0,1-.09-14.66,38.9,38.9,0,0,1,3.53-12.1,26.9,26.9,0,0,1,3.89-6,23.81,23.81,0,0,1,4.59-4.33,26,26,0,0,1,6.27,6.54,37.91,37.91,0,0,1,6.18,19.17c.53,7.77-.44,15.81-4,22.88a28.46,28.46,0,0,1-7.51,9.63c-.53-.09-.79.18-1.15.35" transform="translate(-244.64 -416.5)"/><path class="cls-1" d="M320.54,437c0,3.27-.26,5.74-2.38,7.42a7.66,7.66,0,0,1-2.91,1.24l-.35-.88a4.24,4.24,0,0,0,2.91-3.62,32.43,32.43,0,0,0,.35-5.65v-11c0-2.3-.18-2.65-2.47-2.83v-.79h7.15v.79c-2,.18-2.3.53-2.3,2.83Zm9.36-10.25c2.3,0,3.53,2.38,3.53,7.07,0,4.15-1.15,5.92-3,5.92-2.3,0-3.53-2.74-3.53-7,.09-4.06,1.24-6,3-6Zm.18,14c3.36,0,5.74-3.09,5.74-7.77,0-4.33-2.47-7.42-5.39-7.42h0c-4,0-5.83,4.06-5.83,7.77,0,4.15,2.21,7.42,5.48,7.42m17.13-9.36a26,26,0,0,0-.18-3.53c-.09-.71-.53-1.06-1.94-1.15v-.88h5.21v.88c-1.15.09-1.59.44-1.68,1.15a26,26,0,0,0-.18,3.53v9.27h-1l-7-11V435a27,27,0,0,0,.18,3.53c.09.62.53,1.06,1.94,1.15v.88H337.5v-.88c1.15-.09,1.5-.44,1.68-1.15a27,27,0,0,0,.18-3.53v-5.39c0-1.41,0-1.68-.26-2.12s-.79-.62-1.77-.71v-.88h3.18l6.8,10.51v-4.95Zm4.15,9.1v-.88c1.85-.18,1.94-.26,1.94-1.94v-9c0-1.68-.09-1.77-1.68-1.94v-.88h8.92c0,.53.18,2.3.26,3.44l-1,.09a3.82,3.82,0,0,0-.71-1.94c-.26-.35-.71-.53-1.94-.53h-1.5c-.35,0-.35,0-.35.44v4.86H357c1.59,0,1.59-.09,1.85-1.59h.88V435h-.88c-.26-1.5-.35-1.59-1.85-1.59h-1.68v4.06c0,1,.09,1.41.35,1.59a3.56,3.56,0,0,0,1.77.26,3.23,3.23,0,0,0,2.3-.62,7.77,7.77,0,0,0,1.06-2.12l.88.18c-.18.71-.53,2.91-.79,3.71Zm12.28-.44c-.18-.71-.35-2.12-.62-3.53l.88-.18c.35,1.32,1.24,3.44,3.18,3.44,1.41,0,2.21-1,2.21-2.56,0-2.12-1.94-2.83-3.36-3.8a4.49,4.49,0,0,1-2.38-3.71,4,4,0,0,1,4.24-4.06,8.84,8.84,0,0,1,2.56.53c.09,1,.26,1.77.44,3.18l-.88.18c-.44-1.5-.88-2.83-2.47-2.83-1.24,0-1.85,1-1.85,2.21,0,2,2,2.74,3.36,3.62a4.5,4.5,0,0,1,2.38,4,4.27,4.27,0,0,1-4.5,4.33,9.35,9.35,0,0,1-3.18-.79m15.19.44v-.79c2.3-.26,2.47-.53,2.47-2.83V424.54c0-2.3-.26-2.65-2.47-2.83v-.79h7.33v.79c-2.3.18-2.47.53-2.47,2.83v12.28c0,1.24.18,2,.62,2.3a4.23,4.23,0,0,0,2.38.44,3.74,3.74,0,0,0,3-1,11.2,11.2,0,0,0,1.41-2.91l.88.18c-.09.79-.71,3.8-1,4.77H378.84Zm20-11,1.32,4.59h-2.74c.53-1.5,1-3,1.41-4.59m1.59,11h5.12v-.88c-1.24-.18-1.5-.26-2-2.12-1.32-4-2.56-7.95-3.71-12l-.79.26-3.8,11.57c-.62,1.94-.79,2.12-2.12,2.21v.88h4.59v-.88c-1.5-.18-1.59-.26-1.32-1.5.18-.88.62-2.21.79-2.83h3.53c.44,1.32.88,2.91,1,3.27.18.71.18.88-1.24,1.06v1Zm15.81-9.1a26,26,0,0,0-.18-3.53c-.09-.71-.53-1.06-1.94-1.15v-.88h5.21v.88c-1.15.09-1.5.44-1.68,1.15a26,26,0,0,0-.18,3.53v9.27h-1l-7-11V435a27,27,0,0,0,.18,3.53c.09.62.53,1.06,1.94,1.15v.88h-5.12v-.88c1.15-.09,1.59-.44,1.68-1.15a27,27,0,0,0,.18-3.53v-5.39c0-1.41,0-1.68-.26-2.12s-.79-.62-1.77-.71v-.88h3.18l6.8,10.51v-4.95ZM431,437.79a10.07,10.07,0,0,0,.18,2.3,12.18,12.18,0,0,1-3.8.79c-4,0-6.62-2.91-6.62-7.51,0-5.21,3.44-7.77,6.89-7.77a9.45,9.45,0,0,1,3.18.53,28.44,28.44,0,0,0,.35,3.44l-1,.18c-.62-2.47-1.59-3-3-3-2.21,0-4.06,2.21-4.06,6.27,0,3.36,1.24,6.71,4.42,6.71a2.09,2.09,0,0,0,1.15-.18c.18-.09.27-.18.27-1.15V436.2c0-1.24-.09-1.41-2-1.59v-.88h5.3v.88c-1.15.26-1.15.26-1.15,1.5v1.68ZM315.42,469.23v-.79c2.3-.18,2.47-.53,2.47-2.83V453.24c0-2.3-.18-2.56-2.47-2.83v-.79h7.33v.79c-2.3.18-2.47.53-2.47,2.83v12.28c0,1.24.18,2,.62,2.3a4.36,4.36,0,0,0,2.38.35,3.74,3.74,0,0,0,3-1,11.2,11.2,0,0,0,1.41-2.91l.88.18c-.09.79-.71,3.89-1,4.77Zm20.14-11,1.32,4.59h-2.74c.44-1.5.88-3,1.41-4.59m1.5,11h5.12v-.88c-1.24-.18-1.5-.26-2-2.12-1.32-4-2.47-7.95-3.71-12l-.79.26L331.85,466c-.62,1.94-.79,2-2.12,2.21v.88h4.68v-.88c-1.5-.18-1.59-.26-1.32-1.5a18.29,18.29,0,0,1,.79-2.83h3.53c.44,1.32.88,2.83,1.06,3.27.18.71.18.88-1.24,1.06v1Zm8.74.09c-.62-.18-1.15-.44-1.68-.62-.26-.88-.44-2.56-.71-4.15l.79-.18c.44,1.5,1.5,4.33,4.24,4.33,1.85,0,2.91-1.32,2.91-3.36s-1.32-3.18-3.09-4.15a11,11,0,0,1-2.65-1.85,4.64,4.64,0,0,1-1.5-3.44c0-2.65,1.94-4.86,5.21-4.86a9.11,9.11,0,0,1,1.77.18c.44.09.88.26,1.24.35.09,1.06.26,2.12.53,3.71l-.79.18c-.44-1.68-1.15-3.44-3.27-3.44a2.65,2.65,0,0,0-2.56,2.91c0,2.56,2.56,3.44,4.33,4.68s3,2.56,3,4.77a5.27,5.27,0,0,1-5.56,5.3,12.85,12.85,0,0,1-2.21-.35m14.93-11.13,1.32,4.59h-2.74c.44-1.5,1-3,1.41-4.59m1.5,11h5.12v-.88c-1.24-.18-1.5-.26-2-2.12-1.32-4-2.47-7.95-3.71-12l-.79.26L357,466c-.62,1.94-.79,2-2.12,2.21v.88h4.68v-.88c-1.5-.18-1.59-.26-1.32-1.5a18.29,18.29,0,0,1,.79-2.83h3.53c.44,1.32.88,2.83,1.06,3.27.18.71.18.88-1.24,1.06v1Zm6.18,0v-.88c1.68-.18,1.77-.26,1.77-1.94v-9c0-1.68-.09-1.77-1.77-1.94v-.88h5.65v.88c-1.68.18-1.77.26-1.77,1.94v8.92c0,1,.09,1.41.35,1.59a3.87,3.87,0,0,0,1.68.26,2.55,2.55,0,0,0,2-.62,7.31,7.31,0,0,0,1.06-2.21l.88.18c-.09.79-.53,3-.71,3.71h-9.19Zm11.13,0v-.88c1.68-.18,1.77-.26,1.77-1.94v-9c0-1.68-.09-1.77-1.77-1.94v-.88h5.56v.88c-1.68.18-1.77.26-1.77,1.94v8.92c0,1,.09,1.41.35,1.59a3.43,3.43,0,0,0,1.59.26,2.9,2.9,0,0,0,2.12-.62,7.31,7.31,0,0,0,1.06-2.21l.88.18c-.09.79-.53,3-.71,3.71h-9.1Zm11,0v-.88c1.85-.18,1.94-.26,1.94-1.94v-9c0-1.68-.09-1.77-1.68-1.94v-.88h8.92c0,.53.18,2.3.26,3.44l-.88.09a3.82,3.82,0,0,0-.71-1.94c-.26-.35-.71-.53-1.94-.53h-1.59c-.35,0-.44.09-.44.53V461h1.68c1.59,0,1.59-.09,1.85-1.59h.88v4.42h-.88c-.26-1.5-.44-1.59-1.85-1.59h-1.68v4.06c0,1,.18,1.41.44,1.59a3.56,3.56,0,0,0,1.77.26c1.24,0,1.94-.26,2.21-.62a6.62,6.62,0,0,0,1.06-2.12l.88.18a31.11,31.11,0,0,1-.79,3.71h-9.45Zm15-13.6a1.94,1.94,0,1,1-1.94-1.94,1.9,1.9,0,0,1,1.94,1.94m-3.62,0a1.68,1.68,0,1,0,1.68-1.68,1.68,1.68,0,0,0-1.68,1.68m1.06-1.06h.71c.18,0,.71,0,.71.53a.41.41,0,0,1-.35.44.62.62,0,0,1,.35.44c0,.26.09.44.09.62h-.26c0-.18-.09-.18-.09-.53s-.09-.35-.44-.35h-.35v1H403v-2.12Zm.26.88h.44c.18,0,.44,0,.44-.35s-.26-.35-.44-.35h-.44Z" transform="translate(-244.64 -416.5)"/></svg>