<svg id="Layer_1" data-name="Layer 1" xmlns="http://www.w3.org/2000/svg" viewBox="0 0 136.39 76.11"><defs><style>.cls-1{fill:none;}.cls-2{fill:#1d1d1b;}</style></defs><title>logo23</title><rect class="cls-1" width="136.39" height="76.11"/><polygon class="cls-2" points="107.86 56.77 106.25 62.72 109.77 62.72 108.08 56.77 107.86 56.77"/><path class="cls-2" d="M176.06,90.84H174.6v5.51h1.46c1.56,0,2-.85,2-2.75S177.63,90.84,176.06,90.84Z" transform="translate(-104.12 -36.75)"/><path class="cls-2" d="M104.12,36.9v75.94H240.46V36.9Zm68.17,5.84a19.48,19.48,0,1,1-19.47,19.49A19.48,19.48,0,0,1,172.28,42.74Zm-42.85,0A19.48,19.48,0,1,1,110,62.24,19.48,19.48,0,0,1,129.44,42.74Zm-12.67,62.68a9.56,9.56,0,0,1-4.79-1.08v-3.88h.63l1.49,2.63a7.32,7.32,0,0,0,2.58.39c1.8,0,2.3-.86,2.3-1.74,0-1.32-.81-1.76-2.76-2.76-.31-.16-1.16-.61-1.43-.78A5.22,5.22,0,0,1,112,93.59c0-3,2.14-4.89,5.63-4.89a10.94,10.94,0,0,1,4,.61v3.86H121l-1.36-2.25a5.72,5.72,0,0,0-2-.28c-1.32,0-2.13.52-2.13,1.57,0,1.29.9,1.72,2.15,2.48.34.21,1.6.79,2,1,1.57.94,2.94,1.7,2.94,4.33C122.6,103.29,120.69,105.42,116.77,105.42Zm19-.32H123.65v-.6l1.69-1.13V90.76l-1.69-1.14V89h12v4.31H135l-1.63-2.56h-3.8V96h1.73l1.2-2h.63v5.73h-.63l-1.2-2h-1.73v5.72h3.72l1.77-3.13h.63ZM149.45,94h-.67l-1.51-2.93a4.76,4.76,0,0,0-1.93-.33c-2.36,0-3.59,2-3.59,6.29s1.24,6.29,3.59,6.29a3.52,3.52,0,0,0,1.93-.36l1.51-2.9h.67v4.41a11,11,0,0,1-4.75.92c-4.19,0-7.54-3-7.54-8.36s3.36-8.36,7.54-8.36a9.84,9.84,0,0,1,4.75.92Zm17.63-4.42-1.69,1.14v12.61l1.69,1.13v.6h-5.53v-1.65h-.34a4.9,4.9,0,0,1-4,2c-3.46,0-4.76-2.07-4.76-4.92V90.76l-1.69-1.14V89h7.44v.59l-1.48,1.14v9.54c0,1.43.57,2.42,2,2.42a3,3,0,0,0,2.48-1.2V90.76l-1.48-1.14V89h7.44Zm17.18,15.49h-5.9l-1.5-5.77c-.24-.9-.59-1.16-1.42-1.16h-.83v5.2l1.78,1.13v.6h-7.74v-.6l1.69-1.13V90.76l-1.69-1.14V89h8.28c3.52,0,5.33,1.45,5.33,4.28,0,2-1.35,3.38-3.9,3.8v.3a3.8,3.8,0,0,1,3.09,2.49l1,3.47,1.79,1.13Zm8.27-15.49-1.7,1.14v12.61l1.7,1.13v.6h-7.66v-.6l1.7-1.13V90.76l-1.7-1.14V89h7.66Zm11.76,14.89v.6h-7.66v-.6l1.7-1.13V90.77h-2l-1.83,3.39h-.66V89h13.23v5.14h-.65l-1.83-3.39h-2v12.59Zm16.78.6h-7.54v-.6l1.46-1.13-.58-2h-4.54l-.5,1.85,1.4,1.32v.6h-5.22v-.6l1.67-1.32,4.31-13.81,3-.55,5,14.55,1.57,1.13Zm5.31.32a9.56,9.56,0,0,1-4.79-1.08v-3.88h.63l1.49,2.63a7.32,7.32,0,0,0,2.58.39c1.8,0,2.3-.86,2.3-1.74,0-1.32-.81-1.76-2.76-2.76-.31-.16-1.16-.61-1.43-.78a5.22,5.22,0,0,1-2.75-4.62c0-3,2.14-4.89,5.63-4.89a10.94,10.94,0,0,1,4,.61v3.86h-.65l-1.36-2.25a5.72,5.72,0,0,0-2-.28c-1.32,0-2.13.52-2.13,1.57,0,1.29.9,1.72,2.15,2.48.34.21,1.6.79,2,1,1.57.94,2.94,1.7,2.94,4.33C232.22,103.29,230.31,105.42,226.38,105.42ZM215.14,81.7a19.48,19.48,0,1,1,19.48-19.46A19.47,19.47,0,0,1,215.14,81.7Z" transform="translate(-104.12 -36.75)"/></svg>