<svg xmlns="http://www.w3.org/2000/svg" viewBox="0 0 25.95 50.46"><defs><style>.cls-1{fill:#b38245;}.cls-1,.cls-12,.cls-2,.cls-3,.cls-4,.cls-5,.cls-6,.cls-7,.cls-8,.cls-9{fill-rule:evenodd;}.cls-2{fill:#fde6b9;}.cls-3{fill:#32210e;}.cls-4{fill:#51371a;}.cls-5{fill:#ededed;}.cls-11,.cls-6{fill:#fff;}.cls-10,.cls-7{fill:#131615;}.cls-8{fill:#e30613;}.cls-9{fill:#e8c88b;}.cls-12{fill:#5b5c5c;}</style></defs><title>me</title><g id="Layer_1" data-name="Layer 1"><path class="cls-1" d="M302.33,465.43h0a1,1,0,0,1,1.29.64l2.63,7.79a1,1,0,0,1-.64,1.29h0a1,1,0,0,1-1.29-.64l-2.63-7.79A1,1,0,0,1,302.33,465.43Z" transform="translate(-285.16 -438.78)"/><path class="cls-2" d="M306.56,476.59a2.69,2.69,0,0,0-.31-2.82,1.7,1.7,0,0,0-2-.26c-.65.34-1.28,1.42-.37,1.64l-.2.31C302.81,476.93,305.39,478.22,306.56,476.59Z" transform="translate(-285.16 -438.78)"/><path class="cls-1" d="M293.95,465.43h0a1,1,0,0,0-1.29.64L290,473.86a1,1,0,0,0,.64,1.29h0a1,1,0,0,0,1.29-.64l2.63-7.79A1,1,0,0,0,293.95,465.43Z" transform="translate(-285.16 -438.78)"/><path class="cls-2" d="M289.72,476.59a2.69,2.69,0,0,1,.31-2.82,1.7,1.7,0,0,1,2-.26c.65.34,1.28,1.42.37,1.64l.2.31C293.47,476.93,290.88,478.22,289.72,476.59Z" transform="translate(-285.16 -438.78)"/><path class="cls-3" d="M294.57,474.63h7.14A2.28,2.28,0,0,1,304,476.9h0a2.28,2.28,0,0,1-2.13,2.27v9.74h-3v-9.74h-1.36v9.74h-3v-9.74a2.28,2.28,0,0,1-2.13-2.27h0A2.28,2.28,0,0,1,294.57,474.63Z" transform="translate(-285.16 -438.78)"/><path class="cls-4" d="M294.38,486.52h3.19l.16,2.72h-6.62C291.11,488,291.8,486.52,294.38,486.52Z" transform="translate(-285.16 -438.78)"/><path class="cls-4" d="M301.9,486.52h-3.19l-.16,2.72h6.62C305.17,488,304.47,486.52,301.9,486.52Z" transform="translate(-285.16 -438.78)"/><path class="cls-1" d="M293.06,486.68l.75,1.29h-.44l-.68-1.17.37-.12Zm.44-.09.8,1.39h.44l-.83-1.44Z" transform="translate(-285.16 -438.78)"/><path class="cls-1" d="M303.22,486.68l-.75,1.29h.44l.68-1.17-.37-.12Zm-.44-.09L302,488h-.44l.83-1.44Z" transform="translate(-285.16 -438.78)"/><path class="cls-5" d="M298.08,477.25,297,478.4l-3-1.15Zm.11,0,1.11,1.15,3-1.15Z" transform="translate(-285.16 -438.78)"/><path class="cls-1" d="M295.57,464.66h5.14a2.84,2.84,0,0,1,2.73,2.43l1,8.15a2.11,2.11,0,0,1-2.13,2.43h-8.38a2.11,2.11,0,0,1-2.13-2.43l1-8.15A2.84,2.84,0,0,1,295.57,464.66Z" transform="translate(-285.16 -438.78)"/><path class="cls-6" d="M298.14,465.84,297.08,468l-3.39-2.59a2.76,2.76,0,0,1,1.87-.78h.13l2.43,1.18,1.05,2.19,3.39-2.59a2.76,2.76,0,0,0-1.87-.78h-.13Z" transform="translate(-285.16 -438.78)"/><path class="cls-2" d="M308.35,453.35c1.53,0,2.76,1.64,2.76,3.66s-1.24,3.66-2.76,3.66-2.76-1.64-2.76-3.66,1.24-3.66,2.76-3.66Zm-20.42,0c-1.53,0-2.76,1.64-2.76,3.66s1.24,3.66,2.76,3.66,2.76-1.64,2.76-3.66S289.45,453.35,287.93,453.35Z" transform="translate(-285.16 -438.78)"/><path class="cls-2" d="M286,453.31c-.91-9.69,5.6-14.53,12.12-14.53s13,4.84,12.12,14.53c-.84,8.91-6.48,13.37-12.12,13.37S286.86,462.22,286,453.31Z" transform="translate(-285.16 -438.78)"/><path class="cls-7" d="M293.58,459.93c-.15,1.74,2.71,4.76,5.89,3.68A5.52,5.52,0,0,0,302,462c1.09-1.32,1-3-.62-2.34a9,9,0,0,1-3.53.86C295.72,460.4,293.66,459,293.58,459.93Z" transform="translate(-285.16 -438.78)"/><path class="cls-8" d="M295.67,463.1a2.08,2.08,0,0,1,1.55-1,1.52,1.52,0,0,1,1.42.86.88.88,0,0,0-.29-.63,2.53,2.53,0,0,1,1.29-.22,3.2,3.2,0,0,1,1.4.7,6.32,6.32,0,0,1-1.57.78A4.38,4.38,0,0,1,295.67,463.1Z" transform="translate(-285.16 -438.78)"/><path class="cls-6" d="M296.21,460.21c0,.26,0,.6.18.64a15.77,15.77,0,0,0,3.82-.08,1.26,1.26,0,0,0,.1-.75,7,7,0,0,1-2.46.45A7.55,7.55,0,0,1,296.21,460.21Z" transform="translate(-285.16 -438.78)"/><path class="cls-9" d="M298.07,456.9s-.88,1-.49,1.56,1.32.22,1.32.22a1.4,1.4,0,0,1-.94-.37C297.69,457.95,298.07,456.9,298.07,456.9Z" transform="translate(-285.16 -438.78)"/><ellipse class="cls-10" cx="17.87" cy="16.39" rx="1.05" ry="1.63"/><ellipse class="cls-10" cx="8.09" cy="16.39" rx="1.05" ry="1.63"/><ellipse class="cls-11" cx="8.53" cy="15.56" rx="0.26" ry="0.25"/><ellipse class="cls-11" cx="18.24" cy="15.56" rx="0.26" ry="0.25"/><path class="cls-12" d="M287.53,451.31a20.24,20.24,0,0,0,2.07-2,6.62,6.62,0,0,0,1.24-2.1,7.89,7.89,0,0,0,1.74,2.36,14.25,14.25,0,0,0,3,1.59,13.55,13.55,0,0,1-1.82-2.32,5.38,5.38,0,0,1-.43-1.18,22.51,22.51,0,0,0,5.06,2.44,27.91,27.91,0,0,0,6,1.37,12.76,12.76,0,0,1-2.32-2.08,6.48,6.48,0,0,1-1-1.72,28.38,28.38,0,0,0,4.35,1.44,26.86,26.86,0,0,0,3.51.65,21.47,21.47,0,0,0-.39,5.19c.13.89.38,2,.66,3.08a19.64,19.64,0,0,0,1-4.73,15.6,15.6,0,0,0-.71-6.71h0a11.43,11.43,0,0,0-3.81-5.31,4.49,4.49,0,0,1,.36-.31,3.25,3.25,0,0,1,1.33-.28,1.51,1.51,0,0,0-.91-.24,2.47,2.47,0,0,0-1.1.32,1,1,0,0,0-.25-.48,1.41,1.41,0,0,0-.73-.4,1,1,0,0,1,.28.29,2.32,2.32,0,0,1,.24.54,12.58,12.58,0,0,0-6.81-2,11.81,11.81,0,0,0-11.4,7.83h0a15.6,15.6,0,0,0-.71,6.71,19.65,19.65,0,0,0,1,4.73c.27-1.08.53-2.19.66-3.08A15.49,15.49,0,0,0,287.53,451.31Z" transform="translate(-285.16 -438.78)"/></g></svg>